<?xml version="1.0" encoding="utf-8"?>
<COLLADA xmlns="http://www.collada.org/2005/11/COLLADASchema" version="1.4.1" xmlns:xsi="http://www.w3.org/2001/XMLSchema-instance">
  <asset>
    <contributor>
      <author>Blender User</author>
      <authoring_tool>Blender 4.5.7 LTS commit date:2026-02-16, commit time:13:34, hash:a9874eeece8d</authoring_tool>
    </contributor>
    <created>2026-08-27T01:17:57</created>
    <modified>2026-08-27T01:17:57</modified>
    <unit name="meter" meter="1"/>
    <up_axis>Z_UP</up_axis>
  </asset>
  <library_effects>
    <effect id="struct_nature-effect">
      <profile_COMMON>
        <newparam sid="structs_nature_png-surface">
          <surface type="2D">
            <init_from>structs_nature_png</init_from>
          </surface>
        </newparam>
        <newparam sid="structs_nature_png-sampler">
          <sampler2D>
            <source>structs_nature_png-surface</source>
          </sampler2D>
        </newparam>
        <technique sid="common">
          <lambert>
            <emission>
              <color sid="emission">0 0 0 1</color>
            </emission>
            <diffuse>
              <texture texture="structs_nature_png-sampler" texcoord="ao_map"/>
            </diffuse>
            <index_of_refraction>
              <float sid="ior">1.5</float>
            </index_of_refraction>
          </lambert>
        </technique>
      </profile_COMMON>
    </effect>
  </library_effects>
  <library_images>
    <image id="structs_nature_png" name="structs_nature_png">
      <init_from>structs_nature.png</init_from>
    </image>
  </library_images>
  <library_materials>
    <material id="struct_nature-material" name="struct_nature">
      <instance_effect url="#struct_nature-effect"/>
    </material>
  </library_materials>
  <library_geometries>
    <geometry id="structs_nature-mesh" name="structs_nature">
      <mesh>
        <source id="structs_nature-mesh-positions">
          <float_array id="structs_nature-mesh-positions-array" count="240">-0.04161566 0.5165972 9.288903 -0.4031937 0.3239018 9.342036 -0.5226109 -0.0680294 9.477573 -0.3299146 -0.4296065 9.587118 -0.0408501 0.5166732 9.023566 -0.4029943 0.3239202 9.0767 -0.5226109 -0.0680294 9.212235 -0.3299146 -0.4296065 9.39438 0.0620166 -0.5490247 9.587332 -0.0365172 0.5171233 8.429739 -0.3995389 0.3242575 8.482872 -0.5203946 -0.06781357 8.618409 -0.3286142 -0.4294816 8.800551 0.06284856 -0.548946 8.993505 0.4239808 -0.356289 9.161472 0.5431167 0.03561246 9.268657 0.3504222 0.3971912 9.288903 -0.03683876 0.5203236 8.164404 -0.4010473 0.3255133 8.217537 -0.5199804 -0.0677734 8.353074 -0.3274798 -0.4293714 8.535216 0.06444615 -0.5487896 8.72817 0.4256937 -0.3561248 8.896136 0.5445779 0.03575491 9.003321 0.3518816 0.3973329 9.023566 -0.04031002 0.5167257 9.023566 -0.04335129 0.5564684 7.570575 -0.4299324 0.3472156 7.623708 -0.5501117 -0.07101303 7.759245 -0.3410136 -0.446385 7.941389 0.06776183 -0.5657744 8.134342 0.4399895 -0.3651891 8.302309 0.5623676 0.03717505 8.409494 0.3648822 0.4076033 8.429739 -0.04610419 0.5675491 7.30524 -0.4398655 0.3541459 7.358373 -0.5616965 -0.0721395 7.49391 -0.3479088 -0.4534744 7.676052 0.06777054 -0.5736327 7.869006 0.4448363 -0.3691917 8.036973 0.5672511 0.03765219 8.14416 0.3679549 0.4113402 8.164404 -0.03784382 0.5346928 8.164404 -0.03736662 0.5298765 8.429739 -0.04703581 0.5723408 6.711413 -0.4446564 0.358013 6.764547 -0.5701824 -0.07265686 6.900084 -0.3555872 -0.460811 7.082226 0.06561022 -0.5859954 7.275178 0.4502965 -0.3777239 7.443146 0.5749085 0.03870528 7.550331 0.3712427 0.4208651 7.570575 -0.04703581 0.5723408 6.446078 -0.444728 0.3580707 6.499211 -0.5726119 -0.07289195 6.634747 -0.3597576 -0.4658781 6.816891 0.06643521 -0.5944612 7.009844 0.4573265 -0.3840808 7.177811 0.5841581 0.03960543 7.284996 0.3766191 0.429032 7.30524 -0.04555886 0.5576413 7.30524 -0.04327791 0.5470536 7.570575 -0.04706376 0.5726301 5.85225 -0.4466681 0.3596708 5.905385 -0.5786438 -0.0734784 6.04092 -0.3656811 -0.4730801 6.223063 0.06746643 -0.6050583 6.416017 0.467069 -0.3920966 6.583983 0.599043 0.04105007 6.691168 0.3860837 0.4406553 6.711413 -0.04706376 0.5726301 5.586915 -0.4466681 0.3596708 5.640048 -0.5786438 -0.0734784 5.775584 -0.3656811 -0.4730801 5.957727 0.06746643 -0.6050583 6.150681 0.467069 -0.3920966 6.318648 0.599043 0.04105007 6.425832 0.3860837 0.4406553 6.446078 -0.04706376 0.5726301 6.446078 -0.04706376 0.5726301 6.711413</float_array>
          <technique_common>
            <accessor source="#structs_nature-mesh-positions-array" count="80" stride="3">
              <param name="X" type="float"/>
              <param name="Y" type="float"/>
              <param name="Z" type="float"/>
            </accessor>
          </technique_common>
        </source>
        <source id="structs_nature-mesh-normals">
          <float_array id="structs_nature-mesh-normals-array" count="243">-0.7187124 -0.6953075 0 -0.605846 -0.7955819 0 -0.9847604 -0.173917 0 -0.9999949 0.003203392 -1.54764e-4 -0.8064264 0.5913345 -4.22787e-4 -0.7306141 0.6827903 -6.81473e-4 -0.1237326 0.9922559 0.01088327 -0.7180309 -0.6960055 -0.002821683 -0.5452467 -0.838271 -0.002820253 -0.9820038 -0.1888501 -0.002080619 0.9982607 0.05867683 0.005707144 0.9902709 0.1390442 0.005526363 0.8244231 -0.5659539 0.004774332 -0.9999912 0.004201352 2.6946e-4 -0.8053742 0.5927395 0.00570774 0.7182983 -0.6957228 0.004169642 0.2046185 -0.9788416 6.93332e-4 -0.7302551 0.6831236 0.008351206 -0.4696547 0.8827974 0.00966382 -0.008619308 -0.9999628 -5.0184e-4 0.6410069 0.767525 0.003936707 0.6294962 0.7769942 0.003833353 -0.7138358 -0.6992688 0.03823131 -0.5477298 -0.8358975 0.03560096 -0.981183 -0.1883041 0.04267972 0.9981164 0.0581935 0.01942443 0.9905104 0.1361979 0.01842176 0.8216935 -0.5694833 0.022551 -0.9990047 -0.005831956 0.04422098 -0.8046616 0.5920218 0.04505646 0.7173646 -0.6962683 0.0244655 0.1999975 -0.9793931 0.02810907 0.6400249 0.7681367 0.01827961 0.2907937 0.9566376 0.01684165 0.2907932 0.9566377 0.01684129 -0.7353417 0.6761742 0.04539966 -0.47158 0.8808539 0.04133647 -0.008848726 -0.9994937 0.03056371 0.630262 0.7761685 0.01823025 -0.7126972 -0.7011349 0.02174222 -0.5533543 -0.8325437 0.02588427 -0.9819152 -0.1889467 0.01190865 0.9976404 0.05907166 0.03498858 0.9903003 0.1344719 0.03496831 0.8193267 -0.5722327 0.03540599 -0.9999075 -0.01135033 0.007497966 -0.8076037 0.5897226 0.001884698 0.7171084 -0.6960853 0.03494042 0.1922974 -0.980793 0.03266328 0.6393465 0.7680441 0.03666341 0.2912256 0.9559903 0.03564298 0.2911628 0.9560135 0.03553342 -0.7385147 0.6742374 2.81329e-4 -0.4743634 0.8803293 1.05382e-4 -0.01028406 -0.9994797 0.03057312 0.6313659 0.7746194 0.03663557 -0.7119694 -0.7022106 0 -0.5529779 -0.8331959 0 -0.9833025 -0.1819784 0 0.9980482 0.06244844 0 0.9907958 0.1353654 0 0.820798 -0.5712186 0 -0.9999835 -0.005757212 0 -0.8035389 0.5952522 0 0.7228477 -0.6910075 0 0.1967977 -0.9804442 0 0.6398189 0.7685258 0 0.2914594 0.9565833 0 0.291459 0.9565833 0 -0.7348881 0.6781884 0 -0.470308 0.8825024 0 -0.001204609 -0.9999993 0 0.6307222 0.7760087 0 0.291313 0.9566259 0.001975417 -0.4699699 0.8826819 -0.001102626 -0.2914636 -0.956582 0 -0.4703516 0.8824079 0.01121354 -0.4717162 0.8807651 0.0416755 -0.4743199 0.8803526 0 -0.4703086 0.882502 0 -0.1234924 0.9923455 5.33018e-4</float_array>
          <technique_common>
            <accessor source="#structs_nature-mesh-normals-array" count="81" stride="3">
              <param name="X" type="float"/>
              <param name="Y" type="float"/>
              <param name="Z" type="float"/>
            </accessor>
          </technique_common>
        </source>
        <source id="structs_nature-mesh-map-0">
          <float_array id="structs_nature-mesh-map-0-array" count="426">0.7884936 0.875725 0.788384 0.8283619 0.8548774 0.8689122 0.8549872 0.916275 0.8548774 0.8689122 0.9213395 0.8990349 0.9214494 0.9463978 0.9213395 0.8990349 0.9877463 0.9107221 0.7884936 0.875725 0.788384 0.8283619 0.8548774 0.8689122 0.589063 0.7715937 0.5889541 0.7242298 0.6553982 0.7480118 0.8549872 0.916275 0.8548774 0.8689122 0.9213395 0.8990349 0.6555073 0.7953755 0.6553982 0.7480118 0.7218829 0.7853921 0.9214494 0.9463978 0.9213395 0.8990349 0.9877463 0.9107221 0.7219921 0.8327555 0.7218829 0.7853921 0.788384 0.8283619 0.5226767 0.7672627 0.5225679 0.7198987 0.5889541 0.7242298 0.7884936 0.875725 0.788384 0.8283619 0.8548774 0.8689122 0.589063 0.7715937 0.5889541 0.7242298 0.6553982 0.7480118 0.8549872 0.916275 0.8548774 0.8689122 0.9213395 0.8990349 0.6555073 0.7953755 0.6553982 0.7480118 0.7218829 0.7853921 0.5226767 0.7672627 0.4563038 0.7674611 0.4561951 0.720097 0.9214494 0.9463978 0.9213395 0.8990349 0.9877463 0.9107221 0.7219921 0.8327555 0.7218829 0.7853921 0.788384 0.8283619 0.5226767 0.7672627 0.5225679 0.7198987 0.5889541 0.7242298 0.7884936 0.875725 0.788384 0.8283619 0.8548774 0.8689122 0.589063 0.7715937 0.5889541 0.7242298 0.6553982 0.7480118 0.8549872 0.916275 0.8548774 0.8689122 0.9213395 0.8990349 0.6555073 0.7953755 0.6553982 0.7480118 0.7218829 0.7853921 0.5226767 0.7672627 0.4563038 0.7674611 0.4561951 0.720097 0.9214494 0.9463978 0.9213395 0.8990349 0.9877463 0.9107221 0.7219921 0.8327555 0.7218829 0.7853921 0.788384 0.8283619 0.5226767 0.7672627 0.5225679 0.7198987 0.5889541 0.7242298 0.7884936 0.875725 0.788384 0.8283619 0.8548774 0.8689122 0.589063 0.7715937 0.5889541 0.7242298 0.6553982 0.7480118 0.8549872 0.916275 0.8548774 0.8689122 0.9213395 0.8990349 0.6555073 0.7953755 0.6553982 0.7480118 0.7218829 0.7853921 0.5226767 0.7672627 0.4563038 0.7674611 0.4561951 0.720097 0.9214494 0.9463978 0.9213395 0.8990349 0.9877463 0.9107221 0.7219921 0.8327555 0.7218829 0.7853921 0.788384 0.8283619 0.5226767 0.7672627 0.5225679 0.7198987 0.5889541 0.7242298 0.5226767 0.7672627 0.4563038 0.7674611 0.5225679 0.7198987 0.8549872 0.916275 0.7884936 0.875725 0.8548774 0.8689122 0.9214494 0.9463978 0.8549872 0.916275 0.9213395 0.8990349 0.987856 0.958085 0.9214494 0.9463978 0.9877463 0.9107221 0.7884936 0.875725 0.7219921 0.8327555 0.788384 0.8283619 0.8549872 0.916275 0.7884936 0.875725 0.8548774 0.8689122 0.6555073 0.7953755 0.589063 0.7715937 0.6553982 0.7480118 0.9214494 0.9463978 0.8549872 0.916275 0.9213395 0.8990349 0.7219921 0.8327555 0.6555073 0.7953755 0.7218829 0.7853921 0.987856 0.958085 0.9214494 0.9463978 0.9877463 0.9107221 0.7884936 0.875725 0.7219921 0.8327555 0.788384 0.8283619 0.589063 0.7715937 0.5226767 0.7672627 0.5889541 0.7242298 0.8549872 0.916275 0.7884936 0.875725 0.8548774 0.8689122 0.6555073 0.7953755 0.589063 0.7715937 0.6553982 0.7480118 0.9214494 0.9463978 0.8549872 0.916275 0.9213395 0.8990349 0.7219921 0.8327555 0.6555073 0.7953755 0.7218829 0.7853921 0.5225679 0.7198987 0.5226767 0.7672627 0.4561951 0.720097 0.987856 0.958085 0.9214494 0.9463978 0.9877463 0.9107221 0.7884936 0.875725 0.7219921 0.8327555 0.788384 0.8283619 0.589063 0.7715937 0.5226767 0.7672627 0.5889541 0.7242298 0.8549872 0.916275 0.7884936 0.875725 0.8548774 0.8689122 0.6555073 0.7953755 0.589063 0.7715937 0.6553982 0.7480118 0.9214494 0.9463978 0.8549872 0.916275 0.9213395 0.8990349 0.7219921 0.8327555 0.6555073 0.7953755 0.7218829 0.7853921 0.5225679 0.7198987 0.5226767 0.7672627 0.4561951 0.720097 0.987856 0.958085 0.9214494 0.9463978 0.9877463 0.9107221 0.7884936 0.875725 0.7219921 0.8327555 0.788384 0.8283619 0.589063 0.7715937 0.5226767 0.7672627 0.5889541 0.7242298 0.8549872 0.916275 0.7884936 0.875725 0.8548774 0.8689122 0.6555073 0.7953755 0.589063 0.7715937 0.6553982 0.7480118 0.9214494 0.9463978 0.8549872 0.916275 0.9213395 0.8990349 0.7219921 0.8327555 0.6555073 0.7953755 0.7218829 0.7853921 0.5225679 0.7198987 0.5226767 0.7672627 0.4561951 0.720097 0.987856 0.958085 0.9214494 0.9463978 0.9877463 0.9107221 0.7884936 0.875725 0.7219921 0.8327555 0.788384 0.8283619 0.589063 0.7715937 0.5226767 0.7672627 0.5889541 0.7242298 0.4563038 0.7674611 0.4561951 0.720097 0.5225679 0.7198987</float_array>
          <technique_common>
            <accessor source="#structs_nature-mesh-map-0-array" count="213" stride="2">
              <param name="S" type="float"/>
              <param name="T" type="float"/>
            </accessor>
          </technique_common>
        </source>
        <source id="structs_nature-mesh-map-1">
          <float_array id="structs_nature-mesh-map-1-array" count="426">0.5200023 0.9441673 0.5277191 0.9414349 0.5273365 0.9546523 0.516713 0.958414 0.5273365 0.9546523 0.5277191 0.9729787 0.3477002 0.008263885 0.3587564 0.006082475 0.3587523 0.01862776 0.9595582 0.2912878 0.9697996 0.2865855 0.9677887 0.3010805 0.9618719 0.861553 0.9723895 0.8575044 0.9744288 0.8753726 0.9575422 0.3057723 0.9677887 0.3010805 0.9697996 0.3193224 0.9639095 0.8794175 0.9744288 0.8753726 0.9723904 0.8893727 0.05373311 0.3623335 0.06480759 0.3602439 0.06480419 0.3728446 0.005981862 0.3534076 0.01620191 0.3486593 0.01620191 0.3678789 0.6900457 0.9760003 0.7013109 0.9756802 0.7009051 0.9879958 0.4691335 0.9104215 0.4791134 0.9051733 0.4782712 0.9203394 0.2806854 0.5415112 0.2916343 0.5388311 0.2915905 0.5572657 0.9657564 0.2236217 0.9767432 0.2210854 0.9756112 0.2404105 0.468939 0.8756353 0.4791134 0.87078 0.4782882 0.8853324 0.180841 0.975583 0.1804384 0.9575722 0.1917092 0.9573992 0.9647079 0.2432844 0.9756112 0.2404105 0.9767432 0.253793 0.4681785 0.8903214 0.4782882 0.8853324 0.4791134 0.9051733 0.180841 0.975583 0.1921082 0.9752525 0.1917015 0.9878717 0.2306331 0.8733052 0.240714 0.8682593 0.2398554 0.8837549 0.7711888 0.9620835 0.7823204 0.960289 0.7810178 0.9792603 0.9611489 0.8134959 0.9721141 0.8108894 0.9709876 0.8307619 0.2304273 0.8376023 0.240714 0.83298 0.2398823 0.8478921 0.4351368 0.6779358 0.4351369 0.6966817 0.4238621 0.6964581 0.9600328 0.833408 0.9709876 0.8307619 0.9721141 0.8444833 0.2296931 0.8527181 0.2398823 0.8478921 0.240714 0.8682593 0.7699418 0.9488682 0.7811124 0.9473176 0.7823204 0.960289 0.9547599 0.1750504 0.9651704 0.1707342 0.9631215 0.1863371 0.9547951 0.1248975 0.9654324 0.1211769 0.967485 0.1408348 0.952711 0.1906533 0.9631215 0.1863371 0.9651704 0.2063084 0.9568478 0.1445554 0.967485 0.1408348 0.9654324 0.1559838 0.6136637 0.9700793 0.6132683 0.95085 0.6245351 0.9506184 0.3360915 0.2754989 0.3471836 0.2735083 0.3471836 0.287329 0.9779484 0.4767233 0.988316 0.4723055 0.9883159 0.4932121 0.6136637 0.9700793 0.6249305 0.9698476 0.6245352 0.9834552 0.6900457 0.9760003 0.6896399 0.9585916 0.7013109 0.9756802 0.516713 0.958414 0.5200023 0.9441673 0.5273365 0.9546523 0.5170968 0.9767433 0.516713 0.958414 0.5277191 0.9729787 0.3477002 0.02083098 0.3477002 0.008263885 0.3587523 0.01862776 0.2055333 0.543921 0.2055333 0.5246847 0.2129393 0.5404334 0.9575422 0.3057723 0.9595582 0.2912878 0.9677887 0.3010805 0.9639095 0.8794175 0.9618719 0.861553 0.9744288 0.8753726 0.9595629 0.324038 0.9575422 0.3057723 0.9697996 0.3193224 0.9618719 0.8934192 0.9639095 0.8794175 0.9723904 0.8893727 0.05373311 0.3749583 0.05373311 0.3623335 0.06480419 0.3728446 0.005989491 0.3726438 0.005981862 0.3534076 0.01620191 0.3678789 0.6896399 0.988316 0.6900457 0.9760003 0.7009051 0.9879958 0.4684126 0.925823 0.4691335 0.9104215 0.4782712 0.9203394 0.2806854 0.5601229 0.2806854 0.5415112 0.2915905 0.5572657 0.9647079 0.2432844 0.9657564 0.2236217 0.9756112 0.2404105 0.4681785 0.8903214 0.468939 0.8756353 0.4782882 0.8853324 0.1921082 0.9752525 0.180841 0.975583 0.1917092 0.9573992 0.9659042 0.2569158 0.9647079 0.2432844 0.9767432 0.253793 0.4691335 0.9104215 0.4681785 0.8903214 0.4791134 0.9051733 0.1804384 0.988316 0.180841 0.975583 0.1917015 0.9878717 0.2297723 0.88879 0.2306331 0.8733052 0.2398554 0.8837549 0.7699418 0.9813723 0.7711888 0.9620835 0.7810178 0.9792603 0.9600328 0.833408 0.9611489 0.8134959 0.9709876 0.8307619 0.2296931 0.8527181 0.2304273 0.8376023 0.2398823 0.8478921 0.4238621 0.6780533 0.4351368 0.6779358 0.4238621 0.6964581 0.9611591 0.847128 0.9600328 0.833408 0.9721141 0.8444833 0.2306331 0.8733052 0.2296931 0.8527181 0.240714 0.8682593 0.7711888 0.9620835 0.7699418 0.9488682 0.7823204 0.960289 0.952711 0.1906533 0.9547599 0.1750504 0.9631215 0.1863371 0.9568478 0.1445554 0.9547951 0.1248975 0.967485 0.1408348 0.9547599 0.2106247 0.952711 0.1906533 0.9651704 0.2063084 0.9547951 0.1597044 0.9568478 0.1445554 0.9654324 0.1559838 0.6249305 0.9698476 0.6136637 0.9700793 0.6245351 0.9506184 0.3360915 0.2893197 0.3360915 0.2754989 0.3471836 0.287329 0.9779484 0.4976298 0.9779484 0.4767233 0.9883159 0.4932121 0.6132683 0.9836869 0.6136637 0.9700793 0.6245352 0.9834552 0.6896399 0.9585916 0.7009053 0.9582777 0.7013109 0.9756802</float_array>
          <technique_common>
            <accessor source="#structs_nature-mesh-map-1-array" count="213" stride="2">
              <param name="S" type="float"/>
              <param name="T" type="float"/>
            </accessor>
          </technique_common>
        </source>
        <vertices id="structs_nature-mesh-vertices">
          <input semantic="POSITION" source="#structs_nature-mesh-positions"/>
        </vertices>
        <triangles material="struct_nature-material" count="71">
          <input semantic="VERTEX" source="#structs_nature-mesh-vertices" offset="0"/>
          <input semantic="NORMAL" source="#structs_nature-mesh-normals" offset="1"/>
          <input semantic="TEXCOORD" source="#structs_nature-mesh-map-0" offset="2" set="0"/>
          <input semantic="TEXCOORD" source="#structs_nature-mesh-map-1" offset="2" set="1"/>
          <p>7 0 0 3 1 1 2 2 2 6 3 3 2 2 4 1 4 5 5 5 6 1 4 7 0 6 8 20 7 9 12 8 10 11 9 11 23 10 12 15 11 13 14 12 14 19 13 15 11 9 16 10 14 17 22 15 18 14 12 19 13 16 20 18 17 21 10 14 22 9 18 23 21 19 24 13 16 25 12 8 26 24 20 27 16 21 28 15 11 29 37 22 30 29 23 31 28 24 32 40 25 33 32 26 34 31 27 35 36 28 36 28 24 37 27 29 38 39 30 39 31 27 40 30 31 41 41 32 42 42 33 43 43 34 44 35 35 45 27 29 46 26 36 47 38 37 48 30 31 49 29 23 50 41 32 51 33 38 52 32 26 53 55 39 54 47 40 55 46 41 56 58 42 57 50 43 58 49 44 59 54 45 60 46 41 61 45 46 62 57 47 63 49 44 64 48 48 65 59 49 66 60 50 67 61 51 68 53 52 69 45 46 70 44 53 71 56 54 72 48 48 73 47 40 74 59 49 75 51 55 76 50 43 77 73 56 78 65 57 79 64 58 80 76 59 81 68 60 82 67 61 83 72 62 84 64 58 85 63 63 86 75 64 87 67 61 88 66 65 89 77 66 90 78 67 91 79 68 92 71 69 93 63 63 94 62 70 95 74 71 96 66 65 97 65 57 98 77 66 99 69 72 100 68 60 101 24 20 102 25 73 103 16 21 104 6 3 105 7 0 106 2 2 107 5 5 108 6 3 109 1 4 110 4 74 111 5 5 112 0 6 113 7 0 114 8 75 115 3 1 116 19 13 117 20 7 118 11 9 119 22 15 120 23 10 121 14 12 122 18 17 123 19 13 124 10 14 125 21 19 126 22 15 127 13 16 128 17 76 129 18 17 130 9 18 131 20 7 132 21 19 133 12 8 134 23 10 135 24 20 136 15 11 137 36 28 138 37 22 139 28 24 140 39 30 141 40 25 142 31 27 143 35 35 144 36 28 145 27 29 146 38 37 147 39 30 148 30 31 149 33 38 150 41 32 151 43 34 152 34 77 153 35 35 154 26 36 155 37 22 156 38 37 157 29 23 158 40 25 159 41 32 160 32 26 161 54 45 162 55 39 163 46 41 164 57 47 165 58 42 166 49 44 167 53 52 168 54 45 169 45 46 170 56 54 171 57 47 172 48 48 173 51 55 174 59 49 175 61 51 176 52 78 177 53 52 178 44 53 179 55 39 180 56 54 181 47 40 182 58 42 183 59 49 184 50 43 185 72 62 186 73 56 187 64 58 188 75 64 189 76 59 190 67 61 191 71 69 192 72 62 193 63 63 194 74 71 195 75 64 196 66 65 197 69 72 198 77 66 199 79 68 200 70 79 201 71 69 202 62 70 203 73 56 204 74 71 205 65 57 206 76 59 207 77 66 208 68 60 209 25 73 210 0 80 211 16 21 212</p>
        </triangles>
      </mesh>
    </geometry>
  </library_geometries>
  <library_visual_scenes>
    <visual_scene id="Scene" name="Scene">
      <node id="structs_nature" name="structs_nature" type="NODE">
        <matrix sid="transform">1 0 0 0 0 1 0 0 0 0 1 0 0 0 0 1</matrix>
        <instance_geometry url="#structs_nature-mesh" name="structs_nature">
          <bind_material>
            <technique_common>
              <instance_material symbol="struct_nature-material" target="#struct_nature-material">
                <bind_vertex_input semantic="UVMap" input_semantic="TEXCOORD" input_set="0"/>
                <bind_vertex_input semantic="ao_map" input_semantic="TEXCOORD" input_set="1"/>
              </instance_material>
            </technique_common>
          </bind_material>
        </instance_geometry>
      </node>
    </visual_scene>
  </library_visual_scenes>
  <scene>
    <instance_visual_scene url="#Scene"/>
  </scene>
</COLLADA>