<?xml version="1.0" encoding="utf-8"?>
<COLLADA xmlns="http://www.collada.org/2005/11/COLLADASchema" version="1.4.1" xmlns:xsi="http://www.w3.org/2001/XMLSchema-instance">
  <asset>
    <contributor>
      <author>Blender User</author>
      <authoring_tool>Blender 4.5.7 LTS commit date:2026-02-16, commit time:13:34, hash:a9874eeece8d</authoring_tool>
    </contributor>
    <created>2026-08-27T01:20:55</created>
    <modified>2026-08-27T01:20:55</modified>
    <unit name="meter" meter="1"/>
    <up_axis>Z_UP</up_axis>
  </asset>
  <library_effects>
    <effect id="Skin-effect">
      <profile_COMMON>
        <newparam sid="cuirass_02_01_png-surface">
          <surface type="2D">
            <init_from>cuirass_02_01_png</init_from>
          </surface>
        </newparam>
        <newparam sid="cuirass_02_01_png-sampler">
          <sampler2D>
            <source>cuirass_02_01_png-surface</source>
          </sampler2D>
        </newparam>
        <technique sid="common">
          <lambert>
            <emission>
              <color sid="emission">0 0 0 1</color>
            </emission>
            <diffuse>
              <texture texture="cuirass_02_01_png-sampler" texcoord="ao_map"/>
            </diffuse>
            <reflectivity>
              <float sid="specular">0.5</float>
            </reflectivity>
            <index_of_refraction>
              <float sid="ior">1.5</float>
            </index_of_refraction>
          </lambert>
        </technique>
      </profile_COMMON>
    </effect>
  </library_effects>
  <library_images>
    <image id="cuirass_02_01_png" name="cuirass_02_01_png">
      <init_from>cuirass_02_01.png</init_from>
    </image>
  </library_images>
  <library_materials>
    <material id="Skin-material" name="Skin">
      <instance_effect url="#Skin-effect"/>
    </material>
  </library_materials>
  <library_geometries>
    <geometry id="armor-mesh" name="armor">
      <mesh>
        <source id="armor-mesh-positions">
          <float_array id="armor-mesh-positions-array" count="465">0.2981428 0.1901167 -0.2592208 0.2714526 -0.2833445 -0.2619708 0.2972191 0.1092727 -0.1289446 0.2589668 -0.3110682 0.003639221 0.366254 0.2963496 0.4573093 0.3346831 -0.3509336 0.4315412 0.3834454 -0.1083655 -0.2038877 0.3741438 -0.1193971 -0.05422782 0.4852545 0.06237566 0.4210951 0.3918235 0.2658643 -0.8926468 0.426747 -0.246701 -0.9031458 0.1388137 0.3275368 -0.8898327 0.1954293 -0.3239054 -0.9044708 0.5279098 -0.05264085 -0.8977658 0.3724294 -0.09199601 0.1073453 0.2691507 0.1198079 0.04989027 0.2925019 -0.3289368 0.2047193 0.4801141 0.199743 0.8467193 0.500177 -0.1055313 0.8310533 0.4458598 0.2680967 0.6017573 0.4498358 -0.2124694 0.5775173 0.534411 0.06495195 0.8907073 0.4027706 0.06668746 0.4937353 0.3028847 0.3019785 0.6783311 0.2751108 -0.2538661 0.6655963 0.4399198 0.2653124 0.6903482 0.4970784 -0.1930108 0.6951542 0.4963444 -0.08783072 -0.6446798 -0.2981428 0.1901167 -0.2592208 -0.2714526 -0.2833445 -0.2619708 -0.2972191 0.1092727 -0.1289446 -0.2589668 -0.3110682 0.003639221 -0.366254 0.2963496 0.4573093 -0.3346831 -0.3509336 0.4315412 -0.3834454 -0.1083655 -0.2038877 -0.3741438 -0.1193971 -0.05422782 -0.4852545 0.06237566 0.4210951 -0.3918235 0.2658643 -0.8926468 -0.426747 -0.246701 -0.9031458 -0.1388137 0.3275368 -0.8898327 -0.1954293 -0.3239054 -0.9044708 -0.5279098 -0.05264085 -0.8977658 -0.3724294 -0.09199601 0.1073453 -0.2691507 0.1198079 0.04989027 -0.2925019 -0.3289368 0.2047193 -0.4801141 0.199743 0.8467193 -0.500177 -0.1055313 0.8310533 -0.4458598 0.2680967 0.6017573 -0.4498358 -0.2124694 0.5775173 -0.534411 0.06495195 0.8907073 -0.4027706 0.06668746 0.4937353 -0.3028847 0.3019785 0.6783311 -0.2751108 -0.2538661 0.6655963 -0.4399198 0.2653124 0.6903482 -0.4970784 -0.1930108 0.6951542 0 0.2419843 -0.2770157 0 -0.3778755 -0.2770157 0 0.180244 -0.1139798 0 -0.4012589 0.0224092 0 0.3438636 0.4084783 0 -0.4396028 0.4781222 0 0.3070176 -0.4798439 0 -0.3187975 -0.4798439 0 0.2031147 0.04105019 0 -0.403689 0.3421862 0 -0.3374222 0.6480022 0 0.3531698 0.7144163 -0.385502 -0.2980338 -0.6542399 0.4387944 -0.09415358 -0.4252708 0.3324981 0.2382127 -0.4581499 0.3272561 -0.2736073 -0.4588218 -0.4387944 -0.09415358 -0.4252708 -0.3324981 0.2382127 -0.4581499 -0.3272561 -0.2736073 -0.4588218 0.5316517 -0.006214797 -1.092522 0.4401019 -0.1878538 -1.110955 0.1756333 0.3389903 -1.089421 0.406591 0.2892389 -1.083753 -0.2392715 -0.2873567 -1.123352 -0.5316517 -0.006214797 -1.092522 -0.4401019 -0.1878538 -1.110955 -0.1756333 0.3389903 -1.089421 -0.406591 0.2892389 -1.083753 0 -0.3420009 -0.9024128 0 -0.3336055 -1.118094 0.2392715 -0.2873567 -1.123352 0 0.3852084 -1.08504 0 0.3661635 -0.8861708 -0.4099689 -0.1442788 0.4263182 0.4099689 -0.1442788 0.4263182 -0.1779963 -0.3338956 -0.6838267 -0.3689786 0.2425778 -0.6552007 0.1779963 -0.3338956 -0.6838267 0.3918235 0.2658643 -0.8926468 0.426747 -0.246701 -0.9031458 0.1388137 0.327537 -0.8898327 0.1954293 -0.3239054 -0.9044708 0.5279098 -0.05264085 -0.8977658 0.3689786 0.2425778 -0.6552007 0.08025091 0.3350495 -0.6811578 0.385502 -0.2980338 -0.6542399 -0.3918235 0.2658643 -0.8926468 -0.426747 -0.246701 -0.9031458 -0.1388137 0.327537 -0.8898327 -0.1954293 -0.3239054 -0.9044708 -0.5279098 -0.05264085 -0.8977658 -0.08025091 0.3350495 -0.6811578 -0.4963444 -0.08783072 -0.6446798 0.5316517 -0.006214797 -1.092522 0.4401019 -0.1878538 -1.110955 0.1756333 0.3389903 -1.089421 0.406591 0.2892389 -1.083753 -0.2392715 -0.2873567 -1.123352 -0.5316517 -0.006214797 -1.092522 -0.4401019 -0.1878538 -1.110955 -0.1756333 0.3389903 -1.089421 -0.406591 0.2892389 -1.083753 0 -0.3420009 -0.9024128 0 -0.3336055 -1.118094 0.2392715 -0.2873567 -1.123352 0 0.3852084 -1.08504 0 0.3661635 -0.8861708 0 0.3483577 -0.6825407 0 -0.3438323 -0.6838267 0.2319403 0.225999 0.9173212 0 0.2681171 0.9440882 0.3350226 0.06552898 0.9325123 0.2340427 -0.0957697 0.8564222 0 -0.2040153 0.8219442 -0.2319403 0.225999 0.9173212 -0.3350226 0.06552898 0.9325123 -0.2340427 -0.0957697 0.8564222 0.2123485 -0.1055313 0.8310533 -0.2123485 -0.1055313 0.8310533 0.3034694 0.06495195 0.8907073 -0.3034694 0.06495195 0.8907073 0.2038308 0.199743 0.8467193 -0.2038308 0.199743 0.8467193 0.1867665 0.2653124 0.6903482 -0.1867665 0.2653124 0.6903482 0.1892883 0.2680967 0.6017573 -0.1892883 0.2680967 0.6017573 0.1709949 0.06668746 0.4937353 -0.1709949 0.06668746 0.4937353 -0.211033 -0.1930108 0.6951542 0.211033 -0.1930108 0.6951542 0.1909763 -0.2124694 0.5775173 -0.1909763 -0.2124694 0.5775173 0 0.239654 0.8467193 0 0.3217359 0.6903482 0 0.3252214 0.6017573 0 0.07309067 0.4937353 0 -0.2763672 0.5775173 0 -0.2520083 0.6951542 0 -0.1424984 0.8310533</float_array>
          <technique_common>
            <accessor source="#armor-mesh-positions-array" count="155" stride="3">
              <param name="X" type="float"/>
              <param name="Y" type="float"/>
              <param name="Z" type="float"/>
            </accessor>
          </technique_common>
        </source>
        <source id="armor-mesh-normals">
          <float_array id="armor-mesh-normals-array" count="537">0 0.9875106 0.1575532 0.5904553 0.729702 0.3448154 0 0.9474656 0.3198578 0.9926623 -0.1122773 0.04489433 0.57501 -0.8181437 -0.002132177 0.9808123 -0.1325755 0.1429375 0.6335563 -0.7684718 -0.08976453 0 -0.9833933 -0.1814875 0.1974456 0.96511 0.1719826 0 0.9740806 -0.2262012 0 0.9847015 0.1742501 0.6308068 0.7421721 -0.2264141 0 0.9665585 -0.2564467 0.9803104 -0.05980849 -0.1881871 0.6449912 -0.7482133 -0.1554455 0 -0.9977263 -0.06739735 0.004133045 0.06429779 0.9979223 0.08371442 0.8955453 0.4370245 0.3033127 -0.4008362 0.8644836 0.9965224 -0.07364952 0.03897511 0.6658058 -0.7416199 -0.08187037 0.9968365 -0.05510532 0.05727595 0.7196422 0.6562395 0.2268589 0.9771711 0.09131163 0.1918308 0.5623741 0.7923406 -0.2364994 0.958639 -0.23352 -0.1627262 0.4213408 -0.3973352 -0.8152281 0.7515321 0.2831139 -0.5958576 0.1974517 -0.9771825 -0.0782777 0.5743707 -0.8181745 -0.02624857 0.09256589 -0.9794377 -0.1792576 0.6236078 0.74564 0.2348071 0.9965025 -0.07359582 0.03958183 0.6621118 0.7457815 -0.07360678 0.6047464 -0.7962661 0.01555997 0 -0.9899721 -0.1412636 0.2377559 -0.8300511 0.5044673 0 -0.9893071 0.1458484 0.1821511 -0.921126 -0.3440175 0.5716231 0.7065953 0.4170973 0.487955 0.8091264 0.3274364 -0.1393871 0.2427972 0.9600109 0.8908767 -0.1179141 0.4386744 0.3923526 -0.6498505 0.6509638 -0.71366 -0.4084907 0.569056 0.7107565 0.6963893 -0.09933352 0.6620543 0.7458339 -0.07359355 0.2616184 0.9618062 0.08052653 0.160565 0.9465184 -0.2798603 0.9595203 -0.1143158 0.2573959 0.574356 -0.8182069 -0.02554512 0.6422957 0.7547506 0.1334456 -0.5205512 -0.8318399 0.192533 -0.09250938 -0.9794484 -0.1792288 0 -0.9999986 -0.001741766 -0.5904553 0.7297019 0.3448153 -0.7196422 0.6562395 0.226859 -0.9926623 -0.1122772 0.04489433 -0.5750098 -0.8181437 -0.002132177 -0.6335563 -0.7684718 -0.08976453 -0.1974456 0.96511 0.1719826 -0.5623741 0.7923405 -0.2364993 -0.6308069 0.7421721 -0.2264141 -0.9803104 -0.05980849 -0.1881871 -0.6449913 -0.7482132 -0.1554454 -0.5501973 -0.588768 0.5921446 0.3060654 0.1369056 0.9421151 -0.426541 0.2783313 0.860578 0.5205512 -0.8318399 0.192533 -0.9965224 -0.07364892 0.03897529 -0.6658058 -0.7416199 -0.08187037 -0.5743708 -0.8181744 -0.02624809 -0.9808123 -0.1325755 0.1429376 -0.9771711 0.09131163 0.1918308 -0.6234924 0.5851717 -0.5184895 -0.9586389 -0.23352 -0.1627262 -0.3936354 0.9159833 -0.07762694 -0.1974517 -0.9771825 -0.07827776 -0.0925557 -0.979439 -0.1792557 -0.6236078 0.74564 0.234807 -0.9965004 -0.07362252 0.03958314 -0.9595203 -0.1143158 0.2573959 -0.6047463 -0.7962662 0.01555997 -0.2377559 -0.8300511 0.5044673 0 -0.8308033 0.5565663 0.09926283 -0.9187809 0.3820844 0.1370801 0.08006489 0.9873189 0.0450077 0.4367927 0.8984357 -0.2616185 0.9618062 0.08052653 -0.6620667 0.7458228 -0.07359462 -0.1605583 0.94652 -0.2798588 -0.5743497 -0.8182114 -0.02554547 -0.9968365 -0.05510532 0.05727595 0.09248811 -0.9794507 -0.1792277 1.98402e-5 -0.9574218 -0.2886928 0.7239101 -0.6734312 -0.1498152 0.9996017 0.01438152 0.02428317 0.2381922 0.9651377 0.1085073 0.6276717 0.7653956 0.1421198 -0.7239101 -0.6734312 -0.1498152 -0.2965294 -0.9444618 -0.1416418 -0.2381923 0.9651376 0.1085073 -0.6422958 0.7547507 0.1334456 -0.9996017 0.01438152 0.02428317 0 -0.9962671 -0.08632349 0 -0.9994891 -0.03196567 0 0.9972436 0.07419872 2.47136e-5 0.9365155 -0.3506266 0 0.9948194 0.1016595 0.1604301 0.9463816 -0.2803996 0 0.967252 0.2538183 -0.1604407 0.9463797 -0.2804004 -3.30862e-5 0.936508 -0.3506462 0.2965294 -0.9444618 -0.1416418 7.72273e-6 -0.9574252 -0.2886813 0.1393865 0.2427975 0.9600109 -0.6620993 0.7457929 -0.07360398 0.8214431 -0.07749944 -0.565 0.7367896 0.02690541 0.6755866 -0.6276717 0.7653955 0.1421198 0.9965196 -0.07366257 0.03902286 -0.9968365 0.05510532 -0.05727595 -0.6658058 0.7416199 0.08187037 -0.1974517 0.9771825 0.0782777 0.09244269 -0.9793515 -0.1797918 0.5744262 -0.8181352 -0.02625739 0.6620061 0.745817 -0.0741961 0.1603899 0.9463763 -0.2804409 -0.2616183 -0.9618063 -0.08052647 -0.6422958 -0.7547506 -0.1334456 -0.9965195 -0.07366311 0.03902268 -0.5744262 -0.8181352 -0.02625799 0.6658058 0.7416199 0.08187037 -0.09245288 -0.9793502 -0.1797937 0.1974516 0.9771825 0.07827776 0.2616183 -0.9618063 -0.08052647 -0.1603965 0.9463746 -0.2804426 -0.6619938 0.745828 -0.07419496 0.9968365 0.05510532 -0.05727595 -0.9996017 -0.01438152 -0.02428317 -0.7239101 0.6734312 0.1498152 -0.2381924 -0.9651376 -0.1085069 -0.6276717 -0.7653956 -0.1421198 0.7239101 0.6734312 0.1498152 0.2965294 0.9444618 0.1416418 0.2381924 -0.9651376 -0.1085069 0.642296 -0.7547506 -0.1334456 0.9996017 -0.01438152 -0.02428317 0 0.9994891 0.03196567 0 0.9962671 0.08632349 -2.47471e-5 0.9365026 -0.350661 0 -0.9972436 -0.07419884 0 -0.9948194 -0.1016592 -0.2965294 0.9444618 0.1416418 -7.73664e-6 -0.9572732 -0.2891855 0.6276717 -0.7653955 -0.1421198 0.7308478 0.2420079 0.6381957 0.01223862 -0.986923 -0.1607276 -0.07694435 0.9764636 -0.2014907 -0.8034821 0.5935115 -0.04648447 -0.6312217 0.7253559 -0.2746235 -0.681232 -0.5614734 0.469756 0 -0.9995203 -0.03097212 -0.7285858 0.3803049 -0.5696762 0.8862593 0.1276708 -0.4452466 -0.9436792 -0.3306547 -0.0117039 -0.5823838 0.6655704 0.4667389 0.04085534 0.1177156 -0.9922066 0.5075257 -0.6110845 -0.6074484 -0.08022898 0.6119595 -0.7868093 0.4346413 0.8557674 0.2806231 -0.02460432 0.7612845 0.6479512 -0.6431945 -0.4949541 -0.5842272 -0.5984057 -0.7938041 -0.1085619 0.06428772 -0.3641381 0.9291235 -0.8246831 0.5634468 -0.04925072 -0.6542099 0.3957642 -0.6444999 -0.2350997 0.4123072 0.8801881 9.14737e-4 0.7892113 -0.614121</float_array>
          <technique_common>
            <accessor source="#armor-mesh-normals-array" count="179" stride="3">
              <param name="X" type="float"/>
              <param name="Y" type="float"/>
              <param name="Z" type="float"/>
            </accessor>
          </technique_common>
        </source>
        <source id="armor-mesh-map-0">
          <float_array id="armor-mesh-map-0-array" count="1824">0.9981554 0.3589948 0.8887451 0.3098619 0.9981553 0.3015237 0.7895681 0.3792282 0.638611 0.3007903 0.7895681 0.3206099 0.6328188 0.3915179 0.50007 0.2969638 0.638611 0.3007903 0.8716531 0.592509 0.9981554 0.5040553 0.9981553 0.6045499 0.9981554 0.5040553 0.8934755 0.4166706 0.9981554 0.4106555 0.7895681 0.438896 0.6328188 0.3915179 0.7895681 0.3792282 0.6463113 0.445915 0.50007 0.3939183 0.6328188 0.3915179 0.8406743 0.7451131 0.7839524 0.6685408 0.9029364 0.6734811 0.753715 0.2226119 0.6758226 0.1735175 0.7561668 0.1766844 0.8823004 0.3633624 0.7895681 0.3206099 0.8887451 0.3098619 0.8934755 0.4166706 0.7895681 0.3792282 0.8823003 0.3633624 0.7895681 0.5102769 0.8934755 0.4166706 0.8433012 0.5214161 0.7095655 0.5065689 0.7895681 0.5293893 0.6928834 0.5567457 0.5830767 0.1636471 0.6615625 0.2161617 0.5753389 0.2030351 0.8821846 0.2584912 0.753715 0.2226119 0.8700351 0.2178586 0.8934755 0.4166706 0.9981554 0.3589948 0.9981554 0.4106555 0.6295629 0.5028609 0.50007 0.4806909 0.6463113 0.445915 0.7095655 0.5065689 0.6463113 0.445915 0.7895681 0.438896 0.6135573 0.5850669 0.50007 0.5165184 0.6295629 0.5028609 0.8433012 0.5214161 0.7895681 0.5293893 0.7895681 0.5102769 0.6135573 0.5850669 0.6928834 0.5567457 0.6917221 0.6023179 0.8716531 0.592509 0.7839524 0.6685408 0.8102229 0.5970236 0.6473228 0.7468198 0.7225086 0.6790053 0.7373396 0.7468198 0.9029364 0.6734811 0.9981553 0.6045499 0.9981553 0.6838584 0.50007 0.6576403 0.6135573 0.5850669 0.6085158 0.6838985 0.6135573 0.5850669 0.7225086 0.6790053 0.6085158 0.6838985 0.8716531 0.592509 0.8001064 0.5663483 0.8433012 0.5214161 0.8700351 0.2178586 0.9484694 0.1647405 0.9729583 0.2056179 0.7629221 0.2685304 0.6615625 0.2161617 0.753715 0.2226119 0.8700351 0.2178586 0.7561668 0.1766844 0.862356 0.1732343 0.3472337 0.2547091 0.4248012 0.2030351 0.50007 0.2461988 0.001984715 0.3589948 0.111395 0.3098619 0.1178396 0.3633624 0.2105719 0.3792282 0.361529 0.3007903 0.3673213 0.3915179 0.3673213 0.3915179 0.50007 0.2969638 0.50007 0.3939183 0.1284869 0.592509 0.001984715 0.5040553 0.1568388 0.5214161 0.001984715 0.5040553 0.1066645 0.4166706 0.1568388 0.5214161 0.2105719 0.438896 0.3673213 0.3915179 0.3538288 0.445915 0.3538288 0.445915 0.50007 0.3939183 0.50007 0.4806909 0.2161877 0.6685408 0.1594657 0.7451131 0.09720367 0.6734811 0.638611 0.3007903 0.50007 0.2461988 0.6529064 0.2547091 0.246425 0.2226119 0.3243175 0.1735175 0.3385776 0.2161617 0.1178386 0.3633624 0.2105719 0.3206099 0.2105719 0.3792279 0.1066645 0.4166706 0.2105719 0.379228 0.2105719 0.438896 0.1066645 0.4166706 0.2105719 0.5102769 0.1568388 0.5214161 0.2105719 0.5293893 0.2905746 0.5065689 0.3072567 0.5567457 0.361529 0.3007903 0.50007 0.2461988 0.50007 0.2969638 0.3385776 0.2161617 0.4170634 0.1636471 0.4248012 0.2030351 0.1179554 0.2584912 0.246425 0.2226119 0.2372179 0.2685304 0.001984715 0.3589948 0.1066645 0.4166706 0.001984715 0.4106555 0.3705772 0.5028609 0.50007 0.4806909 0.50007 0.5165184 0.3538288 0.445915 0.2905746 0.5065689 0.2105719 0.438896 0.3865827 0.5850669 0.50007 0.5165184 0.50007 0.5783854 0.2105719 0.5293893 0.1568388 0.5214161 0.2105719 0.5102769 0.3865827 0.5850669 0.3072567 0.5567457 0.3705772 0.5028609 0.1284869 0.592509 0.2161877 0.6685408 0.09720367 0.6734811 0.3528172 0.7468198 0.2776315 0.6790053 0.3916242 0.6838985 0.09720367 0.6734811 0.001984775 0.6045499 0.1284869 0.592509 0.3865827 0.5850669 0.50007 0.6576403 0.3916242 0.6838985 0.2776315 0.6790053 0.3865827 0.5850669 0.3916242 0.6838985 0.2000337 0.5663483 0.1284869 0.592509 0.1568388 0.5214161 0.05167061 0.1647405 0.1301048 0.2178586 0.02718168 0.2056179 0.2372179 0.2685304 0.3385776 0.2161617 0.3472337 0.2547091 0.1301048 0.2178586 0.2439731 0.1766844 0.246425 0.2226119 0.6529064 0.2547091 0.5753389 0.2030351 0.6615625 0.2161617 0.8887451 0.3098619 0.7629221 0.2685304 0.8821846 0.2584912 0.638611 0.3007903 0.7629221 0.2685304 0.7895681 0.3206099 0.111395 0.3098619 0.2372179 0.2685304 0.2105719 0.3206099 0.2372179 0.2685304 0.361529 0.3007903 0.2105719 0.3206099 0.50007 0.2016096 0.50007 0.2461988 0.4248012 0.2030351 0.50007 0.2016096 0.5753389 0.2030351 0.50007 0.2461988 0.7561668 0.1766844 0.6758226 0.1262046 0.7561668 0.1262046 0.862356 0.1732343 0.9315967 0.1262046 0.9484694 0.1647405 0.862356 0.1732343 0.7561668 0.1262046 0.862356 0.1262046 0.2439731 0.1766844 0.3243175 0.1262046 0.3243175 0.1735175 0.3243175 0.1735175 0.4014886 0.1262046 0.4170634 0.1636471 0.06854337 0.1262046 0.1377841 0.1732343 0.05167061 0.1647405 0.1377841 0.1732343 0.2439731 0.1262046 0.2439731 0.1766844 0.4170634 0.1636471 0.50007 0.1262046 0.50007 0.1609975 0.50007 0.1609975 0.4248012 0.2030351 0.4170634 0.1636471 0.9729583 0.2056179 0.9981553 0.1600713 0.9981553 0.2011141 0.001984775 0.1600713 0.02718168 0.2056179 0.001984775 0.2011141 0.001984775 0.1262046 0.05167061 0.1647405 0.001984775 0.1600713 0.9484694 0.1647405 0.9981553 0.1262046 0.9981553 0.1600713 0.8821846 0.2584912 0.9729583 0.2056179 0.9981553 0.2602207 0.02718168 0.2056179 0.1179554 0.2584912 0.001984775 0.2602207 0.8821846 0.2584912 0.9981553 0.3015237 0.8887451 0.3098619 0.001984775 0.3015237 0.1179554 0.2584912 0.111395 0.3098619 0.02718168 0.2056179 0.001984775 0.2602207 0.001984775 0.2011141 0.9981553 0.2011141 0.9981553 0.2602207 0.9729583 0.2056179 0.6758226 0.1735175 0.5986515 0.1262046 0.6758226 0.1262046 0.50007 0.1262046 0.5830767 0.1636471 0.50007 0.1609975 0.50007 0.1609975 0.5753389 0.2030351 0.50007 0.2016096 0.3705772 0.5028609 0.3072567 0.5567457 0.2905746 0.5065689 0.2105719 0.5102769 0.2105719 0.438896 0.2905746 0.5065689 0.6295629 0.5028609 0.7095655 0.5065689 0.6928834 0.5567457 0.7895681 0.5102769 0.7095655 0.5065689 0.7895681 0.438896 0.9981554 0.3589948 0.8823004 0.3633624 0.8887451 0.3098619 0.7895681 0.3792282 0.6328188 0.3915179 0.638611 0.3007903 0.6328188 0.3915179 0.50007 0.3939183 0.50007 0.2969638 0.8716531 0.592509 0.8433012 0.5214161 0.9981554 0.5040553 0.9981554 0.5040553 0.8433012 0.5214161 0.8934755 0.4166706 0.7895681 0.438896 0.6463113 0.445915 0.6328188 0.3915179 0.6463113 0.445915 0.50007 0.4806909 0.50007 0.3939183 0.8406743 0.7451131 0.7627546 0.7451131 0.7839524 0.6685408 0.753715 0.2226119 0.6615625 0.2161617 0.6758226 0.1735175 0.8823004 0.3633624 0.7895681 0.3792282 0.7895681 0.3206099 0.8934755 0.4166706 0.7895681 0.438896 0.7895681 0.3792282 0.7895681 0.5102769 0.7895681 0.438896 0.8934755 0.4166706 0.7095655 0.5065689 0.7895681 0.5102769 0.7895681 0.5293893 0.5830767 0.1636471 0.6758226 0.1735175 0.6615625 0.2161617 0.8821846 0.2584912 0.7629221 0.2685304 0.753715 0.2226119 0.8934755 0.4166706 0.8823003 0.3633624 0.9981554 0.3589948 0.6295629 0.5028609 0.50007 0.5165184 0.50007 0.4806909 0.7095655 0.5065689 0.6295629 0.5028609 0.6463113 0.445915 0.6135573 0.5850669 0.50007 0.5783854 0.50007 0.5165184 0.8433012 0.5214161 0.8001064 0.5663483 0.7895681 0.5293893 0.6135573 0.5850669 0.6295629 0.5028609 0.6928834 0.5567457 0.8716531 0.592509 0.9029364 0.6734811 0.7839524 0.6685408 0.6473228 0.7468198 0.6085158 0.6838985 0.7225086 0.6790053 0.9029364 0.6734811 0.8716531 0.592509 0.9981553 0.6045499 0.50007 0.6576403 0.50007 0.5783854 0.6135573 0.5850669 0.6135573 0.5850669 0.6917221 0.6023179 0.7225086 0.6790053 0.8716531 0.592509 0.8102229 0.5970236 0.8001064 0.5663483 0.8700351 0.2178586 0.862356 0.1732343 0.9484694 0.1647405 0.7629221 0.2685304 0.6529064 0.2547091 0.6615625 0.2161617 0.8700351 0.2178586 0.753715 0.2226119 0.7561668 0.1766844 0.3472337 0.2547091 0.3385776 0.2161617 0.4248012 0.2030351 0.001984715 0.3589948 0.001984775 0.3015237 0.111395 0.3098619 0.2105719 0.3792282 0.2105719 0.3206099 0.361529 0.3007903 0.3673213 0.3915179 0.361529 0.3007903 0.50007 0.2969638 0.1284869 0.592509 0.001984775 0.6045499 0.001984715 0.5040553 0.001984715 0.5040553 0.001984715 0.4106555 0.1066645 0.4166706 0.2105719 0.438896 0.2105719 0.3792282 0.3673213 0.3915179 0.3538288 0.445915 0.3673213 0.3915179 0.50007 0.3939183 0.2161877 0.6685408 0.2373854 0.7451131 0.1594657 0.7451131 0.638611 0.3007903 0.50007 0.2969638 0.50007 0.2461988 0.246425 0.2226119 0.2439731 0.1766844 0.3243175 0.1735175 0.1178386 0.3633624 0.111395 0.3098619 0.2105719 0.3206099 0.1066645 0.4166706 0.1178387 0.3633624 0.2105719 0.379228 0.1066645 0.4166706 0.2105719 0.438896 0.2105719 0.5102769 0.2105719 0.5293893 0.2105719 0.5102769 0.2905746 0.5065689 0.361529 0.3007903 0.3472337 0.2547091 0.50007 0.2461988 0.3385776 0.2161617 0.3243175 0.1735175 0.4170634 0.1636471 0.1179554 0.2584912 0.1301048 0.2178586 0.246425 0.2226119 0.001984715 0.3589948 0.1178397 0.3633624 0.1066645 0.4166706 0.3705772 0.5028609 0.3538288 0.445915 0.50007 0.4806909 0.3538288 0.445915 0.3705772 0.5028609 0.2905746 0.5065689 0.3865827 0.5850669 0.3705772 0.5028609 0.50007 0.5165184 0.2105719 0.5293893 0.2000337 0.5663483 0.1568388 0.5214161 0.3865827 0.5850669 0.308418 0.6023179 0.3072567 0.5567457 0.1284869 0.592509 0.1899172 0.5970236 0.2161877 0.6685408 0.3528172 0.7468198 0.2628005 0.7468198 0.2776315 0.6790053 0.09720367 0.6734811 0.001984775 0.6838584 0.001984775 0.6045499 0.3865827 0.5850669 0.50007 0.5783854 0.50007 0.6576403 0.2776315 0.6790053 0.308418 0.6023179 0.3865827 0.5850669 0.2000337 0.5663483 0.1899172 0.5970236 0.1284869 0.592509 0.05167061 0.1647405 0.1377841 0.1732343 0.1301048 0.2178586 0.2372179 0.2685304 0.246425 0.2226119 0.3385776 0.2161617 0.1301048 0.2178586 0.1377841 0.1732343 0.2439731 0.1766844 0.6529064 0.2547091 0.50007 0.2461988 0.5753389 0.2030351 0.8887451 0.3098619 0.7895681 0.3206099 0.7629221 0.2685304 0.638611 0.3007903 0.6529064 0.2547091 0.7629221 0.2685304 0.111395 0.3098619 0.1179554 0.2584912 0.2372179 0.2685304 0.2372179 0.2685304 0.3472337 0.2547091 0.361529 0.3007903 0.7561668 0.1766844 0.6758226 0.1735175 0.6758226 0.1262046 0.862356 0.1732343 0.862356 0.1262046 0.9315967 0.1262046 0.862356 0.1732343 0.7561668 0.1766844 0.7561668 0.1262046 0.2439731 0.1766844 0.2439731 0.1262046 0.3243175 0.1262046 0.3243175 0.1735175 0.3243175 0.1262046 0.4014886 0.1262046 0.06854337 0.1262046 0.1377841 0.1262046 0.1377841 0.1732343 0.1377841 0.1732343 0.1377841 0.1262046 0.2439731 0.1262046 0.4170634 0.1636471 0.4014886 0.1262046 0.50007 0.1262046 0.50007 0.1609975 0.50007 0.2016096 0.4248012 0.2030351 0.9729583 0.2056179 0.9484694 0.1647405 0.9981553 0.1600713 0.001984775 0.1600713 0.05167061 0.1647405 0.02718168 0.2056179 0.001984775 0.1262046 0.06854337 0.1262046 0.05167061 0.1647405 0.9484694 0.1647405 0.9315967 0.1262046 0.9981553 0.1262046 0.8821846 0.2584912 0.8700351 0.2178586 0.9729583 0.2056179 0.02718168 0.2056179 0.1301048 0.2178586 0.1179554 0.2584912 0.8821846 0.2584912 0.9981553 0.2602207 0.9981553 0.3015237 0.001984775 0.3015237 0.001984775 0.2602207 0.1179554 0.2584912 0.6758226 0.1735175 0.5830767 0.1636471 0.5986515 0.1262046 0.50007 0.1262046 0.5986515 0.1262046 0.5830767 0.1636471 0.50007 0.1609975 0.5830767 0.1636471 0.5753389 0.2030351 0.753715 0.2226119 0.7561668 0.1766844 0.6758226 0.1735175 0.5830767 0.1636471 0.5753389 0.2030351 0.6615625 0.2161617 0.8700351 0.2178586 0.9729583 0.2056179 0.9484694 0.1647405 0.8700351 0.2178586 0.862356 0.1732343 0.7561668 0.1766844 0.246425 0.2226119 0.3385776 0.2161617 0.3243175 0.1735175 0.3385776 0.2161617 0.4248012 0.2030351 0.4170634 0.1636471 0.05167061 0.1647405 0.02718168 0.2056179 0.1301048 0.2178586 0.1301048 0.2178586 0.246425 0.2226119 0.2439731 0.1766844 0.7561668 0.1766844 0.7561668 0.1262046 0.6758226 0.1262046 0.862356 0.1732343 0.9484694 0.1647405 0.9315967 0.1262046 0.862356 0.1732343 0.862356 0.1262046 0.7561668 0.1262046 0.2439731 0.1766844 0.3243175 0.1735175 0.3243175 0.1262046 0.3243175 0.1735175 0.4170634 0.1636471 0.4014886 0.1262046 0.06854337 0.1262046 0.05167061 0.1647405 0.1377841 0.1732343 0.1377841 0.1732343 0.2439731 0.1766844 0.2439731 0.1262046 0.4170634 0.1636471 0.50007 0.1609975 0.50007 0.1262046 0.50007 0.1609975 0.4170634 0.1636471 0.4248012 0.2030351 0.9729583 0.2056179 0.9981553 0.2011141 0.9981553 0.1600713 0.001984775 0.1600713 0.001984775 0.2011141 0.02718168 0.2056179 0.001984775 0.1262046 0.001984775 0.1600713 0.05167061 0.1647405 0.9484694 0.1647405 0.9981553 0.1600713 0.9981553 0.1262046 0.6758226 0.1735175 0.6758226 0.1262046 0.5986515 0.1262046 0.50007 0.1262046 0.50007 0.1609975 0.5830767 0.1636471 0.50007 0.1609975 0.50007 0.2016096 0.5753389 0.2030351 0.753715 0.2226119 0.6758226 0.1735175 0.6615625 0.2161617 0.5830767 0.1636471 0.6615625 0.2161617 0.6758226 0.1735175 0.8700351 0.2178586 0.9484694 0.1647405 0.862356 0.1732343 0.8700351 0.2178586 0.7561668 0.1766844 0.753715 0.2226119 0.246425 0.2226119 0.3243175 0.1735175 0.2439731 0.1766844 0.3385776 0.2161617 0.4170634 0.1636471 0.3243175 0.1735175 0.05167061 0.1647405 0.1301048 0.2178586 0.1377841 0.1732343 0.1301048 0.2178586 0.2439731 0.1766844 0.1377841 0.1732343 0.7561668 0.1766844 0.6758226 0.1262046 0.6758226 0.1735175 0.862356 0.1732343 0.9315967 0.1262046 0.862356 0.1262046 0.862356 0.1732343 0.7561668 0.1262046 0.7561668 0.1766844 0.2439731 0.1766844 0.3243175 0.1262046 0.2439731 0.1262046 0.3243175 0.1735175 0.4014886 0.1262046 0.3243175 0.1262046 0.06854337 0.1262046 0.1377841 0.1732343 0.1377841 0.1262046 0.1377841 0.1732343 0.2439731 0.1262046 0.1377841 0.1262046 0.4170634 0.1636471 0.50007 0.1262046 0.4014886 0.1262046 0.50007 0.1609975 0.4248012 0.2030351 0.50007 0.2016096 0.9729583 0.2056179 0.9981553 0.1600713 0.9484694 0.1647405 0.001984775 0.1600713 0.02718168 0.2056179 0.05167061 0.1647405 0.001984775 0.1262046 0.05167061 0.1647405 0.06854337 0.1262046 0.9484694 0.1647405 0.9981553 0.1262046 0.9315967 0.1262046 0.6758226 0.1735175 0.5986515 0.1262046 0.5830767 0.1636471 0.50007 0.1262046 0.5830767 0.1636471 0.5986515 0.1262046 0.50007 0.1609975 0.5753389 0.2030351 0.5830767 0.1636471 0.7187241 0.3427406 0.7778709 0.3727783 0.7116723 0.3866431 0.7397912 0.3455117 0.8006227 0.2578074 0.7914423 0.3455117 0.7186103 0.2019021 0.7816156 0.1555641 0.8024083 0.2110431 0.7604395 0.2034938 0.8135934 0.2726611 0.7598496 0.277813 0.7143796 0.2490545 0.8024083 0.2110431 0.7976585 0.2581389 0.7046704 0.2993811 0.7598496 0.277813 0.7596682 0.3006678 0.724347 0.2852689 0.7976585 0.2581389 0.799711 0.2934899 0.7169014 0.2934899 0.7878192 0.3716185 0.7203403 0.3789793 0.7300252 0.2512696 0.8049402 0.1985736 0.8035705 0.266673 0.7300252 0.2512696 0.7965466 0.2917232 0.7239812 0.276525 0.7186928 0.3261538 0.7965466 0.2917232 0.7978884 0.3427405 0.7387416 0.3727784 0.7978884 0.3427405 0.8049402 0.3866431 0.7349968 0.1555641 0.7980021 0.2019021 0.7142041 0.2110431 0.7142041 0.2110431 0.8022329 0.2490545 0.718954 0.2581389 0.718954 0.2581389 0.7922654 0.2852689 0.7169014 0.2934899 0.7592582 0.3523357 0.7046704 0.2993811 0.7596682 0.3006678 0.7200659 0.2917232 0.7979196 0.3261538 0.7187241 0.3427406 0.7576046 0.3289955 0.7651616 0.2773522 0.7804937 0.2778496 0.7200659 0.2917232 0.7865872 0.2512696 0.7926314 0.276525 0.7459459 0.2287665 0.7651616 0.2773522 0.7362537 0.2256358 0.7116723 0.1985735 0.7865872 0.2512696 0.713042 0.266673 0.7459459 0.3278773 0.7651616 0.2792916 0.7804937 0.2787943 0.7287933 0.3716185 0.799711 0.2934899 0.7962722 0.3789793 0.7651616 0.2792916 0.7576045 0.2276483 0.7804937 0.2787943 0.6921411 0.2500026 0.748906 0.2188212 0.7466819 0.2497333 0.6869257 0.2135606 0.7528002 0.1646934 0.748906 0.2188212 0.811001 0.2224872 0.7528002 0.1646934 0.8215281 0.1761763 0.8006227 0.2578074 0.748906 0.2188212 0.811001 0.2224872 0.7592582 0.3523357 0.8146795 0.3002542 0.8239105 0.350691 0.8146795 0.3002542 0.7598496 0.277813 0.8135934 0.2726611 0.7061944 0.2718087 0.7604395 0.2034938 0.7598496 0.277813 0.6921411 0.2500026 0.7397912 0.3455117 0.688672 0.3381178 0.7542197 0.1449636 0.6831364 0.1662197 0.6734077 0.161054 0.7542197 0.1449636 0.8215281 0.1761763 0.7528002 0.1646934 0.7590082 0.3838257 0.6946401 0.3496651 0.7592582 0.3523357 0.7590082 0.3838257 0.8239105 0.350691 0.831636 0.3742824 0.7187241 0.3427406 0.7979196 0.3261538 0.7778709 0.3727783 0.7397912 0.3455117 0.7466819 0.2497333 0.8006227 0.2578074 0.7186103 0.2019021 0.7143796 0.1482297 0.7816156 0.1555641 0.7604395 0.2034938 0.8114735 0.204304 0.8135934 0.2726611 0.7143796 0.2490545 0.7186103 0.2019021 0.8024083 0.2110431 0.7046704 0.2993811 0.7061944 0.2718087 0.7598496 0.277813 0.724347 0.2852689 0.7143796 0.2490545 0.7976585 0.2581389 0.7169014 0.2934899 0.7922654 0.2852689 0.7878192 0.3716185 0.7300252 0.2512696 0.7385025 0.1846588 0.8049402 0.1985736 0.7300252 0.2512696 0.8035705 0.266673 0.7965466 0.2917232 0.7186928 0.3261538 0.7239812 0.276525 0.7965466 0.2917232 0.7387416 0.3727784 0.7186928 0.3261538 0.7978884 0.3427405 0.7349968 0.1555641 0.8022329 0.1482297 0.7980021 0.2019021 0.7142041 0.2110431 0.7980021 0.2019021 0.8022329 0.2490545 0.718954 0.2581389 0.8022329 0.2490545 0.7922654 0.2852689 0.7592582 0.3523357 0.6946401 0.3496651 0.7046704 0.2993811 0.7200659 0.2917232 0.7926314 0.276525 0.7979196 0.3261538 0.7576046 0.3289955 0.7362537 0.3190671 0.7651616 0.2773522 0.7200659 0.2917232 0.713042 0.266673 0.7865872 0.2512696 0.7459459 0.2287665 0.7804937 0.2778496 0.7651616 0.2773522 0.7116723 0.1985735 0.7781099 0.1846588 0.7865872 0.2512696 0.7459459 0.3278773 0.7362537 0.331008 0.7651616 0.2792916 0.7287933 0.3716185 0.724347 0.2852689 0.799711 0.2934899 0.7651616 0.2792916 0.7362537 0.2375767 0.7576045 0.2276483 0.6921411 0.2500026 0.6869257 0.2135606 0.748906 0.2188212 0.6869257 0.2135606 0.6831364 0.1662197 0.7528002 0.1646934 0.811001 0.2224872 0.748906 0.2188212 0.7528002 0.1646934 0.8006227 0.2578074 0.7466819 0.2497333 0.748906 0.2188212 0.7592582 0.3523357 0.7596682 0.3006678 0.8146795 0.3002542 0.8146795 0.3002542 0.7596682 0.3006678 0.7598496 0.277813 0.7061944 0.2718087 0.709399 0.2034938 0.7604395 0.2034938 0.6921411 0.2500026 0.7466819 0.2497333 0.7397912 0.3455117 0.7542197 0.1449636 0.7528002 0.1646934 0.6831364 0.1662197 0.7542197 0.1449636 0.831896 0.1724565 0.8215281 0.1761763 0.7590082 0.3838257 0.686541 0.3731307 0.6946401 0.3496651 0.7590082 0.3838257 0.7592582 0.3523357 0.8239105 0.350691</float_array>
          <technique_common>
            <accessor source="#armor-mesh-map-0-array" count="912" stride="2">
              <param name="S" type="float"/>
              <param name="T" type="float"/>
            </accessor>
          </technique_common>
        </source>
        <source id="armor-mesh-map-1">
          <float_array id="armor-mesh-map-1-array" count="1824">0.945756 0.9269729 0.9583715 0.9328494 0.9455593 0.9336314 0.8463981 0.4333425 0.8536589 0.4428927 0.8458838 0.4393505 0.6480799 0.7738061 0.6590255 0.785746 0.6475733 0.7850798 0.9391703 0.8215931 0.9269183 0.8337391 0.9260794 0.8207899 0.9269183 0.8337391 0.9401884 0.8488823 0.9284958 0.8497589 0.8452609 0.4267905 0.8549032 0.4321761 0.8463981 0.4333425 0.6466403 0.7652704 0.6590051 0.7730347 0.6480799 0.7738061 0.1368755 0.5719105 0.1435025 0.5659972 0.1435025 0.5763247 0.8445915 0.4560326 0.851522 0.4672688 0.8429691 0.4660202 0.8369622 0.4374814 0.8458838 0.4393505 0.8335217 0.4428536 0.8366287 0.4305204 0.8463981 0.4333425 0.8369622 0.4374814 0.8383833 0.412787 0.8366287 0.4305204 0.8288747 0.4128965 0.8473848 0.4132888 0.8384826 0.4107939 0.8501564 0.4065943 0.6507728 0.8123815 0.6427202 0.8017455 0.6515039 0.8030125 0.8313494 0.4506086 0.8445915 0.4560326 0.831022 0.4582264 0.9401884 0.8488823 0.9290007 0.8563863 0.9284958 0.8497589 0.64483 0.7556425 0.6590014 0.759453 0.6466403 0.7652704 0.8473848 0.4132888 0.8555703 0.4235611 0.8452609 0.4267905 0.6474366 0.7456733 0.6589718 0.7536895 0.64483 0.7556425 0.005240023 0.6827945 0.0058977 0.6729228 0.00925821 0.6733685 0.6474366 0.7456733 0.6400501 0.7494025 0.6380589 0.7444003 0.9391703 0.8215931 0.946654 0.8143242 0.9450786 0.8208088 0.416066 0.5694598 0.4104126 0.5627976 0.4166203 0.5611152 0.9358897 0.8119904 0.9260794 0.8207899 0.9258545 0.8114013 0.6591593 0.7390182 0.6474366 0.7456733 0.6493067 0.7375227 0.6474366 0.7456733 0.6379968 0.738603 0.6493067 0.7375227 0.9391703 0.8215931 0.9455479 0.824521 0.9424437 0.8307548 0.9612973 0.9493415 0.9513026 0.9591156 0.9487155 0.9503058 0.8450741 0.447748 0.8538597 0.4575522 0.8445915 0.4560326 0.831022 0.4582264 0.8429691 0.4660202 0.8299343 0.4676684 0.6730082 0.7934382 0.6666222 0.8030125 0.6590741 0.7943441 0.9651705 0.4634577 0.9526613 0.4699432 0.952927 0.4647393 0.8411775 0.7099321 0.8339166 0.7194824 0.8326723 0.7087658 0.6700755 0.7738061 0.6590255 0.785746 0.6590051 0.7730347 0.1227276 0.9141124 0.1343884 0.9262578 0.1193019 0.9232541 0.1343884 0.9262578 0.1226416 0.9414739 0.1193019 0.9232541 0.8423146 0.7033802 0.8326723 0.7087658 0.8320052 0.7001507 0.6714842 0.7652704 0.6590051 0.7730347 0.6590014 0.759453 0.06480759 0.5739202 0.05818057 0.5677775 0.06480759 0.563201 0.6475733 0.7850798 0.6590741 0.7943441 0.6452124 0.7934382 0.842984 0.7326222 0.8360535 0.7438585 0.8337158 0.7341418 0.8506132 0.714071 0.8416917 0.7159402 0.8411775 0.7099321 0.8509468 0.7071101 0.8411775 0.7099321 0.8423146 0.7033802 0.8509468 0.7071101 0.8491922 0.6893766 0.8587008 0.6894862 0.849093 0.6873835 0.8401907 0.6898784 0.8374191 0.6831839 0.6706295 0.7850798 0.6590741 0.7943441 0.6590255 0.785746 0.6754632 0.8017455 0.6673718 0.8123815 0.6666222 0.8030125 0.8562262 0.7271983 0.842984 0.7326222 0.8425014 0.7243376 0.1331812 0.9489685 0.1226416 0.9414739 0.1336379 0.9423376 0.6732566 0.7556425 0.6590014 0.759453 0.6589718 0.7536895 0.8320052 0.7001507 0.8401907 0.6898784 0.8423146 0.7033802 0.6708035 0.7456733 0.6589718 0.7536895 0.659053 0.7464446 0.7264066 0.1359043 0.726771 0.1458171 0.7226634 0.1361468 0.6708035 0.7456733 0.6782575 0.7494025 0.6732566 0.7556425 0.1227276 0.9141124 0.1162391 0.9068908 0.1268485 0.9045805 0.8326856 0.009962379 0.8270372 0.01738852 0.8270372 0.006034672 0.1268485 0.9045805 0.1354267 0.9133231 0.1227276 0.9141124 0.6708035 0.7456733 0.6591593 0.7390182 0.6691854 0.7375227 0.6804799 0.738603 0.6708035 0.7456733 0.6691854 0.7375227 0.1165613 0.9170355 0.1227276 0.9141124 0.1193019 0.9232541 0.9593751 0.4958858 0.9498005 0.48658 0.9616305 0.4869582 0.8425014 0.7243376 0.8337158 0.7341418 0.8345355 0.7268696 0.8565535 0.7348161 0.8446064 0.7426099 0.842984 0.7326222 0.6452124 0.7934382 0.6515039 0.8030125 0.6427202 0.8017455 0.8335217 0.4428536 0.8450741 0.447748 0.8313494 0.4506086 0.8536589 0.4428927 0.8450741 0.447748 0.8458838 0.4393505 0.8540539 0.7194432 0.8425014 0.7243376 0.8416917 0.7159402 0.8425014 0.7243376 0.8339166 0.7194824 0.8416917 0.7159402 0.6590551 0.8030154 0.6590741 0.7943441 0.6666222 0.8030125 0.6590551 0.8030154 0.6515039 0.8030125 0.6590741 0.7943441 0.8429691 0.4660202 0.8489632 0.4756416 0.8409696 0.4739629 0.9622564 0.9592774 0.9528874 0.967485 0.9513026 0.9591156 0.8299343 0.4676684 0.8409696 0.4739629 0.8288747 0.4753139 0.8446064 0.7426099 0.8386123 0.7522312 0.8360535 0.7438585 0.6772574 0.812303 0.6692642 0.8216679 0.6673718 0.8123815 0.9579497 0.5043295 0.9489492 0.4965618 0.9593751 0.4958858 0.8576412 0.744258 0.8466059 0.7505525 0.8446064 0.7426099 0.6673718 0.8123815 0.6590656 0.8214578 0.6590577 0.8122992 0.6590577 0.8122992 0.6666222 0.8030125 0.6673718 0.8123815 0.9487155 0.9503058 0.9452718 0.9589189 0.9452682 0.9503747 0.965073 0.4954072 0.9616305 0.4869582 0.964966 0.4868637 0.9651705 0.5037447 0.9593751 0.4958858 0.965073 0.4954072 0.9513026 0.9591156 0.9452682 0.9672569 0.9452718 0.9589189 0.959698 0.941052 0.9487155 0.9503058 0.945364 0.9419603 0.9616305 0.4869582 0.9511837 0.4782171 0.9649599 0.4784488 0.959698 0.941052 0.9455593 0.9336314 0.9583715 0.9328494 0.9650543 0.4701181 0.9511837 0.4782171 0.9526613 0.4699432 0.9616305 0.4869582 0.9649599 0.4784488 0.964966 0.4868637 0.9452682 0.9503747 0.945364 0.9419603 0.9487155 0.9503058 0.6410112 0.812303 0.6489415 0.8216679 0.6404925 0.8211128 0.6590656 0.8214578 0.6507728 0.8123815 0.6590577 0.8122992 0.6590577 0.8122992 0.6515039 0.8030125 0.6590551 0.8030154 0.8311892 0.6903802 0.8374191 0.6831839 0.8401907 0.6898784 0.8491922 0.6893766 0.8423146 0.7033802 0.8401907 0.6898784 0.8563863 0.4137907 0.8473848 0.4132888 0.8501564 0.4065943 0.8383833 0.412787 0.8473848 0.4132888 0.8452609 0.4267905 0.945756 0.9269729 0.9586222 0.9276504 0.9583715 0.9328494 0.8463981 0.4333425 0.8549032 0.4321761 0.8536589 0.4428927 0.6480799 0.7738061 0.6590051 0.7730347 0.6590255 0.785746 0.9391703 0.8215931 0.9424437 0.8307548 0.9269183 0.8337391 0.9269183 0.8337391 0.9424437 0.8307548 0.9401884 0.8488823 0.8452609 0.4267905 0.8555703 0.4235611 0.8549032 0.4321761 0.6466403 0.7652704 0.6590014 0.759453 0.6590051 0.7730347 0.1368755 0.5719105 0.1375266 0.5635728 0.1435025 0.5659972 0.8445915 0.4560326 0.8538597 0.4575522 0.851522 0.4672688 0.8369622 0.4374814 0.8463981 0.4333425 0.8458838 0.4393505 0.8366287 0.4305204 0.8452609 0.4267905 0.8463981 0.4333425 0.8383833 0.412787 0.8452609 0.4267905 0.8366287 0.4305204 0.005240023 0.6652059 0.00925821 0.6733685 0.0058977 0.6729228 0.6507728 0.8123815 0.6410112 0.812303 0.6427202 0.8017455 0.8313494 0.4506086 0.8450741 0.447748 0.8445915 0.4560326 0.9401884 0.8488823 0.9418847 0.8563863 0.9290007 0.8563863 0.64483 0.7556425 0.6589718 0.7536895 0.6590014 0.759453 0.8473848 0.4132888 0.8563863 0.4137907 0.8555703 0.4235611 0.6474366 0.7456733 0.659053 0.7464446 0.6589718 0.7536895 0.8540717 0.4999444 0.84758 0.4975535 0.8540717 0.4901091 0.6474366 0.7456733 0.64483 0.7556425 0.6400501 0.7494025 0.9391703 0.8215931 0.9358897 0.8119904 0.946654 0.8143242 0.416066 0.5694598 0.4104126 0.5740103 0.4104126 0.5627976 0.9358897 0.8119904 0.9391703 0.8215931 0.9260794 0.8207899 0.6591593 0.7390182 0.659053 0.7464446 0.6474366 0.7456733 0.6474366 0.7456733 0.6380589 0.7444003 0.6379968 0.738603 0.9391703 0.8215931 0.9450786 0.8208088 0.9455479 0.824521 0.9612973 0.9493415 0.9622564 0.9592774 0.9513026 0.9591156 0.8450741 0.447748 0.85304 0.45028 0.8538597 0.4575522 0.831022 0.4582264 0.8445915 0.4560326 0.8429691 0.4660202 0.6730082 0.7934382 0.6754632 0.8017455 0.6666222 0.8030125 0.9651705 0.4634577 0.9650543 0.4701181 0.9526613 0.4699432 0.8411775 0.7099321 0.8416917 0.7159402 0.8339166 0.7194824 0.6700755 0.7738061 0.6706295 0.7850798 0.6590255 0.785746 0.1227276 0.9141124 0.1354267 0.9133231 0.1343884 0.9262578 0.1343884 0.9262578 0.1336379 0.9423376 0.1226416 0.9414739 0.8423146 0.7033802 0.8411775 0.7099321 0.8326723 0.7087658 0.6714842 0.7652704 0.6700755 0.7738061 0.6590051 0.7730347 0.06480759 0.5739202 0.05882966 0.5763248 0.05818057 0.5677775 0.6475733 0.7850798 0.6590255 0.785746 0.6590741 0.7943441 0.842984 0.7326222 0.8446064 0.7426099 0.8360535 0.7438585 0.8506132 0.714071 0.8540539 0.7194432 0.8416917 0.7159402 0.8509468 0.7071101 0.8506132 0.714071 0.8411775 0.7099321 0.8509468 0.7071101 0.8423146 0.7033802 0.8491922 0.6893766 0.7264066 0.1359043 0.7226634 0.1361468 0.726771 0.1281422 0.6706295 0.7850798 0.6730082 0.7934382 0.6590741 0.7943441 0.6754632 0.8017455 0.6772574 0.812303 0.6673718 0.8123815 0.8562262 0.7271983 0.8565535 0.7348161 0.842984 0.7326222 0.1331812 0.9489685 0.1208708 0.9489685 0.1226416 0.9414739 0.6732566 0.7556425 0.6714842 0.7652704 0.6590014 0.759453 0.8320052 0.7001507 0.8311892 0.6903802 0.8401907 0.6898784 0.6708035 0.7456733 0.6732566 0.7556425 0.6589718 0.7536895 0.01036828 0.1921373 0.01388734 0.2013665 0.006969273 0.2013665 0.6708035 0.7456733 0.6802787 0.7444003 0.6782575 0.7494025 0.1227276 0.9141124 0.1171334 0.9133316 0.1162391 0.9068908 0.8326856 0.009962379 0.8332407 0.01851642 0.8270372 0.01738852 0.1268485 0.9045805 0.1365588 0.9040003 0.1354267 0.9133231 0.6708035 0.7456733 0.659053 0.7464446 0.6591593 0.7390182 0.6804799 0.738603 0.6802787 0.7444003 0.6708035 0.7456733 0.1165613 0.9170355 0.1171334 0.9133316 0.1227276 0.9141124 0.9593751 0.4958858 0.9489492 0.4965618 0.9498005 0.48658 0.8425014 0.7243376 0.842984 0.7326222 0.8337158 0.7341418 0.8565535 0.7348161 0.8576412 0.744258 0.8446064 0.7426099 0.6452124 0.7934382 0.6590741 0.7943441 0.6515039 0.8030125 0.8335217 0.4428536 0.8458838 0.4393505 0.8450741 0.447748 0.8536589 0.4428927 0.85304 0.45028 0.8450741 0.447748 0.8540539 0.7194432 0.8562262 0.7271983 0.8425014 0.7243376 0.8425014 0.7243376 0.8345355 0.7268696 0.8339166 0.7194824 0.8429691 0.4660202 0.851522 0.4672688 0.8489632 0.4756416 0.9622564 0.9592774 0.9628559 0.9672591 0.9528874 0.967485 0.8299343 0.4676684 0.8429691 0.4660202 0.8409696 0.4739629 0.8446064 0.7426099 0.8466059 0.7505525 0.8386123 0.7522312 0.6772574 0.812303 0.677873 0.8211128 0.6692642 0.8216679 0.9579497 0.5043295 0.9483973 0.5045735 0.9489492 0.4965618 0.8576412 0.744258 0.8587008 0.7519035 0.8466059 0.7505525 0.6673718 0.8123815 0.6692642 0.8216679 0.6590656 0.8214578 0.6590577 0.8122992 0.6590551 0.8030154 0.6666222 0.8030125 0.9487155 0.9503058 0.9513026 0.9591156 0.9452718 0.9589189 0.965073 0.4954072 0.9593751 0.4958858 0.9616305 0.4869582 0.9651705 0.5037447 0.9579497 0.5043295 0.9593751 0.4958858 0.9513026 0.9591156 0.9528874 0.967485 0.9452682 0.9672569 0.959698 0.941052 0.9612973 0.9493415 0.9487155 0.9503058 0.9616305 0.4869582 0.9498005 0.48658 0.9511837 0.4782171 0.959698 0.941052 0.945364 0.9419603 0.9455593 0.9336314 0.9650543 0.4701181 0.9649599 0.4784488 0.9511837 0.4782171 0.6410112 0.812303 0.6507728 0.8123815 0.6489415 0.8216679 0.6590656 0.8214578 0.6489415 0.8216679 0.6507728 0.8123815 0.6590577 0.8122992 0.6507728 0.8123815 0.6515039 0.8030125 0.3744637 0.2902067 0.3852813 0.2899283 0.3833339 0.2976475 0.01634562 0.9492366 0.0070526 0.9498479 0.005660891 0.9412131 0.744439 0.2432909 0.7568205 0.2434809 0.7549697 0.2525021 0.3751859 0.2757874 0.3852072 0.2759044 0.3852813 0.2899283 0.509545 0.4568548 0.5115172 0.4652261 0.5006748 0.4642957 0.005660831 0.9738053 0.0070526 0.9648966 0.01634562 0.9657592 0.7623467 0.5117285 0.7605127 0.5027065 0.7727459 0.5025154 0.5088228 0.4424356 0.509545 0.4568548 0.4987274 0.4565764 0.3852813 0.2899283 0.3934748 0.2888078 0.3922315 0.2961031 0.7442128 0.2534118 0.7549697 0.2525021 0.754027 0.2610657 0.3852072 0.2759044 0.3932561 0.2757874 0.3934748 0.2888078 0.4987274 0.4565764 0.5006748 0.4642957 0.4917772 0.4627513 0.01598733 0.9758561 0.01634562 0.9657592 0.02546012 0.9678472 0.7633032 0.5202943 0.7623467 0.5117285 0.7730039 0.5126394 0.4988015 0.4425525 0.4987274 0.4565764 0.490534 0.455456 0.01634562 0.9657592 0.0163294 0.9574224 0.02541875 0.9575396 0.0163294 0.9574224 0.01634562 0.9657592 0.0070526 0.9648966 0.7568205 0.2434809 0.7602345 0.2432909 0.7608687 0.2519116 0.75651 0.5111379 0.7571202 0.5025154 0.7605127 0.5027065 0.7559154 0.5195583 0.75651 0.5111379 0.7623467 0.5117285 0.7549697 0.2525021 0.7608687 0.2519116 0.7614894 0.2603302 0.01598739 0.9397768 0.02454626 0.939535 0.02546012 0.9476181 0.02541875 0.9575396 0.0163294 0.9574224 0.01634562 0.9492366 0.0163294 0.9574224 0.007091522 0.9573312 0.0070526 0.9498479 0.3744637 0.2902067 0.3833339 0.2976475 0.3724915 0.2985779 0.01634562 0.9492366 0.005660891 0.9412131 0.01598739 0.9397768 0.744439 0.2432909 0.7549697 0.2525021 0.7442128 0.2534118 0.3751859 0.2757874 0.3852813 0.2899283 0.3744637 0.2902067 0.509545 0.4568548 0.5006748 0.4642957 0.4987274 0.4565764 0.005660831 0.9738053 0.01634562 0.9657592 0.01598733 0.9758561 0.7623467 0.5117285 0.7727459 0.5025154 0.7730039 0.5126394 0.5088228 0.4424356 0.4987274 0.4565764 0.4988015 0.4425525 0.3852813 0.2899283 0.3922315 0.2961031 0.3833339 0.2976475 0.7442128 0.2534118 0.754027 0.2610657 0.7441878 0.261545 0.3852072 0.2759044 0.3934748 0.2888078 0.3852813 0.2899283 0.4987274 0.4565764 0.4917772 0.4627513 0.490534 0.455456 0.01598733 0.9758561 0.02546012 0.9678472 0.02454626 0.9767433 0.7633032 0.5202943 0.7730039 0.5126394 0.7730622 0.5207754 0.4988015 0.4425525 0.490534 0.455456 0.4907526 0.4424356 0.01634562 0.9657592 0.02541875 0.9575396 0.02546012 0.9678472 0.0163294 0.9574224 0.0070526 0.9648966 0.007091522 0.9573312 0.7568205 0.2434809 0.7608687 0.2519116 0.7549697 0.2525021 0.75651 0.5111379 0.7605127 0.5027065 0.7623467 0.5117285 0.7559154 0.5195583 0.7623467 0.5117285 0.7633032 0.5202943 0.7549697 0.2525021 0.7614894 0.2603302 0.754027 0.2610657 0.01598739 0.9397768 0.02546012 0.9476181 0.01634562 0.9492366 0.02541875 0.9575396 0.01634562 0.9492366 0.02546012 0.9476181 0.0163294 0.9574224 0.0070526 0.9498479 0.01634562 0.9492366 0.4744842 0.446547 0.4684617 0.4540501 0.4684617 0.4442408 0.3332963 0.01459401 0.3203742 0.006962835 0.3327764 0.007363438 0.3711749 0.05026733 0.3772729 0.05862259 0.3711749 0.06249302 0.3359512 0.06414294 0.342547 0.05570125 0.3448691 0.06368309 0.462489 0.5481096 0.4563987 0.5363829 0.462489 0.5360178 0.08874762 0.5744391 0.08500194 0.5665562 0.08876377 0.5665529 0.4675406 0.5460771 0.462489 0.5360178 0.4675406 0.5351345 0.3223472 0.5477143 0.3321506 0.5594537 0.3223472 0.5601229 0.8818463 0.5913295 0.8749902 0.5827004 0.8818463 0.580452 0.3576295 0.6109388 0.3613916 0.6002922 0.3613916 0.6110432 0.3680146 0.6102649 0.3613916 0.6002922 0.3680146 0.5985317 0.2532079 0.4068109 0.2592304 0.414314 0.2532079 0.4166203 0.05554932 0.3142286 0.04945135 0.3225839 0.04945135 0.3103582 0.1138442 0.5734517 0.1199344 0.5611059 0.1199344 0.5731978 0.1199344 0.5731978 0.1249861 0.5630676 0.1249861 0.5740103 0.09538209 0.5664861 0.08874762 0.5744391 0.08876377 0.5665529 0.8752235 0.6695683 0.8818464 0.6594884 0.8818464 0.6712217 0.2683431 0.2011553 0.2696812 0.2083101 0.2683431 0.2083092 0.8752235 0.6695683 0.8714613 0.6589271 0.8752235 0.6588173 0.1110987 0.2404004 0.1096708 0.2471255 0.1103852 0.2397084 0.6435346 0.8457228 0.6503906 0.8362506 0.6503906 0.847128 0.2556251 0.2106887 0.2569159 0.2172585 0.2556251 0.2175684 0.2586854 0.5571359 0.2684887 0.5453994 0.2684887 0.5578083 0.1722537 0.2546013 0.1735918 0.2474464 0.1735918 0.2546004 0.7751266 0.1075358 0.7703059 0.09925442 0.7753767 0.09919875 0.770075 0.1084191 0.7641295 0.09965497 0.7703059 0.09925442 0.770075 0.09057736 0.7641295 0.09965497 0.7639847 0.09083122 0.7751266 0.09138971 0.7703059 0.09925442 0.770075 0.09057736 0.09538209 0.5664861 0.08874762 0.5585759 0.09537065 0.5577977 0.08874762 0.5585759 0.08500194 0.5665562 0.08498555 0.5584716 0.342547 0.07175123 0.3359512 0.06414294 0.3448691 0.06368309 0.3209549 0.02314555 0.3332963 0.01459401 0.3332963 0.02185297 0.1904476 0.5318518 0.1943386 0.5407573 0.1944228 0.5416064 0.1904476 0.5318518 0.1943386 0.522752 0.1928359 0.5317826 0.09952598 0.5665084 0.09537065 0.5751103 0.09538209 0.5664861 0.09952598 0.5665084 0.09537065 0.5577977 0.09837698 0.5566247 0.4744842 0.446547 0.4744842 0.4582824 0.4684617 0.4540501 0.3332963 0.01459401 0.3180705 0.0151956 0.3203742 0.006962835 0.3711749 0.05026733 0.3772729 0.04881322 0.3772729 0.05862259 0.3359512 0.06414294 0.3356909 0.05689835 0.342547 0.05570125 0.462489 0.5481096 0.4563987 0.5485501 0.4563987 0.5363829 0.08874762 0.5744391 0.08498555 0.574549 0.08500194 0.5665562 0.4675406 0.5460771 0.462489 0.5481096 0.462489 0.5360178 0.3223472 0.5477143 0.3332962 0.5469669 0.3321506 0.5594537 0.8818463 0.5913295 0.8749902 0.5925267 0.8749902 0.5827004 0.3576295 0.6109388 0.3576295 0.6000427 0.3613916 0.6002922 0.3680146 0.6102649 0.3613916 0.6110432 0.3613916 0.6002922 0.2532079 0.4068109 0.2592304 0.4025787 0.2592304 0.414314 0.05554932 0.3142286 0.05554932 0.324038 0.04945135 0.3225839 0.1138442 0.5734517 0.1138442 0.5612845 0.1199344 0.5611059 0.1199344 0.5731978 0.1199344 0.5611059 0.1249861 0.5630676 0.09538209 0.5664861 0.09537065 0.5751103 0.08874762 0.5744391 0.8752235 0.6695683 0.8752235 0.6588173 0.8818464 0.6594884 0.2683431 0.2011553 0.2708032 0.2023264 0.2696812 0.2083101 0.8752235 0.6695683 0.8714613 0.6698232 0.8714613 0.6589271 0.1110987 0.2404004 0.1110987 0.2476576 0.1096708 0.2471255 0.6435346 0.8457228 0.6435346 0.8358965 0.6503906 0.8362506 0.2556251 0.2106887 0.25627 0.2101299 0.2569159 0.2172585 0.2586854 0.5571359 0.2575399 0.5446484 0.2684887 0.5453994 0.1722537 0.2546013 0.1711316 0.2486175 0.1735918 0.2474464 0.7751266 0.1075358 0.770075 0.1084191 0.7703059 0.09925442 0.770075 0.1084191 0.7639847 0.1087842 0.7641295 0.09965497 0.770075 0.09057736 0.7703059 0.09925442 0.7641295 0.09965497 0.7751266 0.09138971 0.7753767 0.09919875 0.7703059 0.09925442 0.09538209 0.5664861 0.08876377 0.5665529 0.08874762 0.5585759 0.08874762 0.5585759 0.08876377 0.5665529 0.08500194 0.5665562 0.342547 0.07175123 0.3356909 0.07139724 0.3359512 0.06414294 0.3209549 0.02314555 0.3180705 0.0151956 0.3332963 0.01459401 0.1904476 0.5318518 0.1928359 0.5317826 0.1943386 0.5407573 0.1904476 0.5318518 0.1944228 0.5217616 0.1943386 0.522752 0.09952598 0.5665084 0.09837698 0.5763248 0.09537065 0.5751103 0.09952598 0.5665084 0.09538209 0.5664861 0.09537065 0.5577977</float_array>
          <technique_common>
            <accessor source="#armor-mesh-map-1-array" count="912" stride="2">
              <param name="S" type="float"/>
              <param name="T" type="float"/>
            </accessor>
          </technique_common>
        </source>
        <vertices id="armor-mesh-vertices">
          <input semantic="POSITION" source="#armor-mesh-positions"/>
        </vertices>
        <triangles material="Skin-material" count="304">
          <input semantic="VERTEX" source="#armor-mesh-vertices" offset="0"/>
          <input semantic="NORMAL" source="#armor-mesh-normals" offset="1"/>
          <input semantic="TEXCOORD" source="#armor-mesh-map-0" offset="2" set="0"/>
          <input semantic="TEXCOORD" source="#armor-mesh-map-1" offset="2" set="1"/>
          <p>57 0 0 0 1 1 55 2 2 7 3 3 1 4 4 6 5 5 3 6 6 56 7 7 1 4 8 23 8 9 59 9 10 66 10 11 59 9 12 15 11 13 63 12 14 14 13 15 3 6 16 7 3 17 16 14 18 58 15 19 3 6 20 126 16 21 17 17 22 124 18 23 27 19 24 10 20 25 13 21 26 2 22 27 6 5 28 0 1 29 15 11 30 7 3 31 2 22 32 8 23 33 15 11 34 4 24 35 89 25 36 22 26 37 20 27 38 12 28 39 100 29 40 92 30 41 69 31 42 27 32 43 98 33 44 15 11 45 57 0 46 63 12 47 5 34 48 64 35 49 16 14 50 89 25 51 16 14 52 14 13 53 24 36 54 60 37 55 5 34 56 4 24 57 22 26 58 8 23 59 24 36 60 20 27 61 26 38 62 23 8 63 17 17 64 25 39 65 126 16 66 18 40 67 21 41 68 124 18 69 66 10 70 125 42 71 128 43 72 24 36 73 127 44 74 24 36 75 18 40 76 127 44 77 23 8 78 19 45 79 4 24 80 98 46 81 11 47 82 99 48 83 68 49 84 100 50 85 27 32 86 98 46 87 13 21 88 9 51 89 73 52 90 90 53 91 62 54 92 57 0 93 28 55 94 30 56 95 35 57 96 29 58 97 31 59 98 31 59 99 56 7 100 58 15 101 51 60 102 59 9 103 32 61 104 59 9 105 43 62 106 32 61 107 42 63 108 31 59 109 44 64 110 44 64 111 58 15 112 64 35 113 45 65 114 130 66 115 129 67 116 1 4 117 62 54 118 70 68 119 107 69 120 38 70 121 67 71 122 30 56 123 34 72 124 35 57 125 43 62 126 35 57 127 42 63 128 43 62 129 36 73 130 32 61 131 50 74 132 88 75 133 48 76 134 29 58 135 62 54 136 56 7 137 67 71 138 40 77 139 90 78 140 72 79 141 107 80 142 71 81 143 57 0 144 43 62 145 63 12 146 33 82 147 64 35 148 60 37 149 44 64 150 88 75 151 42 63 152 52 83 153 60 37 154 65 84 155 50 74 156 32 61 157 36 73 158 52 83 159 48 76 160 33 82 161 51 60 162 45 65 163 129 67 164 130 66 165 46 85 166 131 86 167 129 67 168 66 10 169 51 60 170 52 83 171 128 43 172 131 86 173 46 85 174 52 83 175 131 86 176 47 87 177 51 60 178 32 61 179 39 88 180 91 89 181 106 90 182 71 81 183 67 91 184 73 52 185 91 89 186 41 92 187 107 69 188 70 68 189 92 93 190 100 50 191 0 1 192 68 49 193 69 31 194 1 4 195 68 49 196 6 5 197 28 55 198 71 81 199 34 72 200 71 81 201 29 58 202 34 72 203 123 94 204 62 54 205 90 53 206 123 94 207 92 93 208 62 54 209 13 21 210 75 95 211 74 96 212 9 51 213 76 97 214 11 47 215 9 51 216 74 96 217 77 98 218 41 92 219 80 99 220 38 70 221 38 70 222 78 100 223 40 77 224 81 101 225 37 102 226 39 88 227 37 102 228 79 103 229 41 92 230 40 77 231 84 104 232 83 105 233 83 105 234 90 78 235 40 77 236 99 48 237 87 106 238 122 107 239 87 106 240 106 90 241 122 107 242 86 108 243 39 88 244 87 106 245 11 47 246 86 108 247 87 106 248 69 31 249 99 109 250 61 110 251 106 111 252 72 79 253 61 110 254 69 31 255 55 2 256 0 1 257 55 2 258 72 79 259 28 55 260 106 111 261 61 110 262 122 112 263 122 112 264 61 110 265 99 109 266 10 20 267 85 113 268 75 95 269 84 104 270 12 28 271 83 105 272 83 105 273 92 30 274 123 114 275 33 82 276 48 76 277 88 75 278 36 73 279 42 63 280 88 75 281 5 34 282 89 25 283 20 27 284 8 23 285 89 25 286 14 13 287 57 0 288 2 22 289 0 1 290 7 3 291 3 6 292 1 4 293 3 6 294 58 15 295 56 7 296 23 8 297 4 24 298 59 9 299 59 9 300 4 24 301 15 11 302 14 13 303 16 14 304 3 6 305 16 14 306 64 35 307 58 15 308 126 16 309 21 41 310 17 17 311 27 19 312 100 29 313 10 20 314 2 22 315 7 3 316 6 5 317 15 11 318 14 13 319 7 3 320 8 23 321 14 13 322 15 11 323 89 25 324 8 23 325 22 26 326 12 28 327 10 20 328 100 29 329 69 31 330 68 49 331 27 32 332 15 11 333 2 22 334 57 0 335 5 34 336 60 37 337 64 35 338 89 25 339 5 34 340 16 14 341 24 36 342 65 84 343 60 37 344 4 24 345 19 45 346 22 26 347 24 36 348 5 34 349 20 27 350 23 8 351 124 18 352 17 17 353 126 16 354 127 44 355 18 40 356 124 18 357 23 8 358 66 10 359 128 43 360 65 84 361 24 36 362 24 36 363 26 38 364 18 40 365 23 8 366 25 39 367 19 45 368 98 46 369 9 51 370 11 47 371 68 49 372 70 68 373 100 50 374 98 46 375 27 19 376 13 21 377 73 52 378 67 91 379 90 53 380 57 0 381 55 2 382 28 55 383 35 57 384 34 72 385 29 58 386 31 59 387 29 58 388 56 7 389 51 60 390 66 10 391 59 9 392 59 9 393 63 12 394 43 62 395 42 63 396 35 57 397 31 59 398 44 64 399 31 59 400 58 15 401 45 65 402 49 115 403 130 66 404 1 4 405 56 7 406 62 54 407 107 69 408 41 92 409 38 70 410 30 56 411 28 55 412 34 72 413 43 62 414 30 56 415 35 57 416 43 62 417 42 63 418 36 73 419 50 74 420 36 73 421 88 75 422 29 58 423 73 52 424 62 54 425 67 71 426 38 70 427 40 77 428 72 79 429 91 116 430 107 80 431 57 0 432 30 56 433 43 62 434 33 82 435 44 64 436 64 35 437 44 64 438 33 82 439 88 75 440 52 83 441 33 82 442 60 37 443 50 74 444 47 87 445 32 61 446 52 83 447 54 117 448 48 76 449 51 60 450 53 118 451 45 65 452 130 66 453 49 115 454 46 85 455 129 67 456 125 42 457 66 10 458 52 83 459 65 84 460 128 43 461 46 85 462 54 117 463 52 83 464 47 87 465 53 118 466 51 60 467 39 88 468 37 102 469 91 89 470 71 81 471 107 80 472 67 91 473 91 89 474 37 102 475 41 92 476 70 68 477 62 54 478 92 93 479 0 1 480 6 5 481 68 49 482 1 4 483 70 68 484 68 49 485 28 55 486 72 79 487 71 81 488 71 81 489 73 52 490 29 58 491 13 21 492 10 20 493 75 95 494 9 51 495 77 98 496 76 97 497 9 51 498 13 21 499 74 96 500 41 92 501 79 103 502 80 99 503 38 70 504 80 99 505 78 100 506 81 101 507 82 119 508 37 102 509 37 102 510 82 119 511 79 103 512 40 77 513 78 100 514 84 104 515 83 105 516 123 114 517 90 78 518 99 48 519 11 47 520 87 106 521 87 106 522 39 88 523 106 90 524 86 108 525 81 101 526 39 88 527 11 47 528 76 97 529 86 108 530 69 31 531 98 33 532 99 109 533 106 111 534 91 116 535 72 79 536 69 31 537 61 110 538 55 2 539 55 2 540 61 110 541 72 79 542 10 20 543 12 28 544 85 113 545 84 104 546 85 113 547 12 28 548 83 105 549 12 28 550 92 30 551 27 120 552 97 121 553 94 122 554 96 123 555 92 124 556 100 125 557 98 126 558 99 127 559 95 128 560 98 126 561 93 129 562 97 121 563 107 130 564 67 131 565 102 132 566 67 131 567 90 133 568 104 134 569 103 135 570 106 136 571 91 137 572 91 137 573 107 130 574 105 138 575 97 121 576 108 139 577 109 140 578 93 129 579 95 128 580 110 141 581 93 129 582 111 142 583 108 139 584 105 138 585 102 132 586 114 143 587 102 132 588 104 134 589 112 144 590 115 145 591 103 135 592 101 146 593 101 146 594 105 138 595 113 147 596 104 134 597 117 148 598 118 149 599 117 148 600 104 134 601 90 133 602 99 127 603 122 150 604 121 151 605 121 151 606 122 150 607 106 136 608 120 152 609 121 151 610 103 135 611 95 128 612 121 151 613 120 152 614 94 122 615 109 140 616 119 153 617 118 149 618 117 148 619 96 123 620 117 148 621 123 154 622 92 124 623 27 120 624 94 122 625 100 125 626 96 123 627 100 125 628 94 122 629 98 126 630 95 128 631 93 129 632 98 126 633 97 121 634 27 120 635 107 130 636 102 132 637 105 138 638 67 131 639 104 134 640 102 132 641 103 135 642 91 137 643 101 146 644 91 137 645 105 138 646 101 146 647 97 121 648 109 140 649 94 122 650 93 129 651 110 141 652 111 142 653 93 129 654 108 139 655 97 121 656 105 138 657 114 143 658 113 147 659 102 132 660 112 144 661 114 143 662 115 145 663 101 146 664 116 155 665 101 146 666 113 147 667 116 155 668 104 134 669 118 149 670 112 144 671 117 148 672 90 133 673 123 154 674 99 127 675 121 151 676 95 128 677 121 151 678 106 136 679 103 135 680 120 152 681 103 135 682 115 145 683 95 128 684 120 152 685 110 141 686 94 122 687 119 153 688 96 123 689 118 149 690 96 123 691 119 153 692 117 148 693 92 124 694 96 123 695 45 65 696 135 156 697 49 115 698 151 157 699 146 158 700 142 159 701 46 85 702 135 156 703 133 160 704 151 157 705 140 161 706 150 162 707 54 117 708 133 160 709 144 163 710 139 164 711 150 162 712 149 165 713 48 76 714 144 163 715 147 166 716 146 158 717 22 26 718 142 159 719 140 161 720 22 26 721 19 45 722 140 161 723 25 39 724 138 167 725 136 168 726 25 39 727 17 17 728 134 169 729 17 17 730 21 41 731 134 169 732 18 40 733 132 170 734 132 170 735 26 38 736 145 171 737 145 171 738 20 27 739 146 158 740 148 172 741 139 164 742 149 165 743 53 118 744 137 173 745 45 65 746 124 18 747 134 169 748 126 16 749 53 118 750 141 174 751 139 164 752 127 44 753 134 169 754 132 170 755 50 74 756 141 174 757 47 87 758 131 86 759 135 156 760 130 66 761 50 74 762 147 166 763 143 175 764 135 156 765 129 67 766 130 66 767 147 166 768 153 176 769 152 177 770 144 163 771 154 178 772 153 176 773 145 171 774 154 178 775 132 170 776 146 158 777 153 176 778 145 171 779 148 172 780 138 167 781 136 168 782 138 167 783 150 162 784 140 161 785 141 174 786 151 157 787 150 162 788 147 166 789 151 157 790 143 175 791 128 43 792 133 160 793 131 86 794 128 43 795 132 170 796 154 178 797 125 42 798 137 173 799 148 172 800 125 42 801 136 168 802 124 18 803 45 65 804 137 173 805 135 156 806 151 157 807 152 177 808 146 158 809 46 85 810 49 115 811 135 156 812 151 157 813 142 159 814 140 161 815 54 117 816 46 85 817 133 160 818 139 164 819 141 174 820 150 162 821 48 76 822 54 117 823 144 163 824 146 158 825 20 27 826 22 26 827 140 161 828 142 159 829 22 26 830 140 161 831 19 45 832 25 39 833 136 168 834 138 167 835 25 39 836 134 169 837 136 168 838 17 17 839 134 169 840 21 41 841 18 40 842 132 170 843 18 40 844 26 38 845 145 171 846 26 38 847 20 27 848 148 172 849 137 173 850 139 164 851 53 118 852 139 164 853 137 173 854 124 18 855 136 168 856 134 169 857 53 118 858 47 87 859 141 174 860 127 44 861 126 16 862 134 169 863 50 74 864 143 175 865 141 174 866 131 86 867 133 160 868 135 156 869 50 74 870 48 76 871 147 166 872 135 156 873 137 173 874 129 67 875 147 166 876 144 163 877 153 176 878 144 163 879 133 160 880 154 178 881 145 171 882 153 176 883 154 178 884 146 158 885 152 177 886 153 176 887 148 172 888 149 165 889 138 167 890 138 167 891 149 165 892 150 162 893 141 174 894 143 175 895 151 157 896 147 166 897 152 177 898 151 157 899 128 43 900 154 178 901 133 160 902 128 43 903 127 44 904 132 170 905 125 42 906 129 67 907 137 173 908 125 42 909 148 172 910 136 168 911</p>
        </triangles>
      </mesh>
    </geometry>
  </library_geometries>
  <library_visual_scenes>
    <visual_scene id="Scene" name="Scene">
      <node id="tropaion_armor" name="tropaion_armor" type="NODE">
        <matrix sid="transform">1 0 0 0 0 0.999366 -0.03560188 0 0 0.03560188 0.999366 0 0 0 0 1</matrix>
        <instance_geometry url="#armor-mesh" name="tropaion_armor">
          <bind_material>
            <technique_common>
              <instance_material symbol="Skin-material" target="#Skin-material">
                <bind_vertex_input semantic="UVMap" input_semantic="TEXCOORD" input_set="0"/>
                <bind_vertex_input semantic="ao_map" input_semantic="TEXCOORD" input_set="1"/>
              </instance_material>
            </technique_common>
          </bind_material>
        </instance_geometry>
      </node>
    </visual_scene>
  </library_visual_scenes>
  <scene>
    <instance_visual_scene url="#Scene"/>
  </scene>
</COLLADA>