<?xml version="1.0" encoding="utf-8"?>
<COLLADA xmlns="http://www.collada.org/2005/11/COLLADASchema" version="1.4.1" xmlns:xsi="http://www.w3.org/2001/XMLSchema-instance">
  <asset>
    <contributor>
      <author>Blender User</author>
      <authoring_tool>Blender 4.5.7 LTS commit date:2026-02-16, commit time:13:34, hash:a9874eeece8d</authoring_tool>
    </contributor>
    <created>2026-08-23T23:55:38</created>
    <modified>2026-08-23T23:55:38</modified>
    <unit name="meter" meter="1"/>
    <up_axis>Z_UP</up_axis>
  </asset>
  <library_effects>
    <effect id="hele_struct_b-effect">
      <profile_COMMON>
        <newparam sid="hele_struct_b_png-surface">
          <surface type="2D">
            <init_from>hele_struct_b_png</init_from>
          </surface>
        </newparam>
        <newparam sid="hele_struct_b_png-sampler">
          <sampler2D>
            <source>hele_struct_b_png-surface</source>
          </sampler2D>
        </newparam>
        <technique sid="common">
          <lambert>
            <emission>
              <color sid="emission">0 0 0 1</color>
            </emission>
            <diffuse>
              <texture texture="hele_struct_b_png-sampler" texcoord="ao_map"/>
            </diffuse>
            <index_of_refraction>
              <float sid="ior">1.45</float>
            </index_of_refraction>
          </lambert>
        </technique>
      </profile_COMMON>
    </effect>
  </library_effects>
  <library_images>
    <image id="hele_struct_b_png" name="hele_struct_b_png">
      <init_from>hele_struct_b.png</init_from>
    </image>
  </library_images>
  <library_materials>
    <material id="hele_struct_b-material" name="hele_struct_b">
      <instance_effect url="#hele_struct_b-effect"/>
    </material>
  </library_materials>
  <library_geometries>
    <geometry id="hele_struct_b-mesh" name="hele_struct_b">
      <mesh>
        <source id="hele_struct_b-mesh-positions">
          <float_array id="hele_struct_b-mesh-positions-array" count="192">2.51457e-7 3.6 0.08911353 1.37766 3.325966 0.08911353 2.545584 2.545584 0.08911353 3.325966 1.37766 0.08911353 3.6 2.01166e-7 0.08911353 3.325966 -1.37766 0.08911353 2.545584 -2.545584 0.08911353 1.37766 -3.325966 0.08911353 2.51457e-7 -3.6 0.08911353 -1.37766 -3.325966 0.08911353 -2.545584 -2.545584 0.08911353 -3.325966 -1.37766 0.08911353 -3.6 2.01166e-7 0.08911353 -3.325966 1.37766 0.08911353 -2.545584 2.545584 0.08911353 -1.37766 3.325966 0.08911353 2.80461e-7 3.968062 -2.653179 1.518512 3.666012 -2.653179 2.805844 2.805844 -2.653179 3.666012 1.518512 -2.653179 3.968062 2.27972e-7 -2.653179 3.666012 -1.518512 -2.653179 2.805844 -2.805844 -2.653179 1.518512 -3.666012 -2.653179 2.80461e-7 -3.968062 -2.653179 -1.518512 -3.666012 -2.653179 -2.805844 -2.805844 -2.653179 -3.666012 -1.518512 -2.653179 -3.968062 2.27972e-7 -2.653179 -3.666012 1.518512 -2.653179 -2.805844 2.805844 -2.653179 -1.518512 3.666012 -2.653179 2.83629e-7 3.968062 -0.04623991 2.71669e-7 3.830057 0.08911353 1.4657 3.538511 0.08911353 1.518512 3.666012 -0.04623991 2.708259 2.708259 0.08911353 2.805844 2.805844 -0.04623991 3.538511 1.4657 0.08911353 3.666012 1.518512 -0.04623991 3.830057 2.17921e-7 0.08911353 3.968062 2.27972e-7 -0.04623991 3.538511 -1.4657 0.08911353 3.666012 -1.518512 -0.04623991 2.708259 -2.708259 0.08911353 2.805844 -2.805844 -0.04623991 1.4657 -3.538511 0.08911353 1.518512 -3.666012 -0.04623991 2.71669e-7 -3.830057 0.08911353 2.83629e-7 -3.968062 -0.04623991 -1.4657 -3.538511 0.08911353 -1.518512 -3.666012 -0.04623991 -2.708259 -2.708259 0.08911353 -2.805844 -2.805844 -0.04623991 -3.538511 -1.4657 0.08911353 -3.666012 -1.518512 -0.04623991 -3.830057 2.17921e-7 0.08911353 -3.968062 2.27972e-7 -0.04623991 -3.538511 1.4657 0.08911353 -3.666012 1.518512 -0.04623991 -2.708259 2.708259 0.08911353 -2.805844 2.805844 -0.04623991 -1.4657 3.538511 0.08911353 -1.518512 3.666012 -0.04623991</float_array>
          <technique_common>
            <accessor source="#hele_struct_b-mesh-positions-array" count="64" stride="3">
              <param name="X" type="float"/>
              <param name="Y" type="float"/>
              <param name="Z" type="float"/>
            </accessor>
          </technique_common>
        </source>
        <source id="hele_struct_b-mesh-normals">
          <float_array id="hele_struct_b-mesh-normals-array" count="180">0 0.4172313 0.9088004 0.3553789 0.8579543 0.370972 2.81335e-7 0.9286416 0.3709784 0.1596633 0.3854624 0.9088049 0.6566522 0.6566518 0.3709669 0.3854622 0.1596633 0.908805 0.2950282 0.2950282 0.9087997 0.4172315 0 0.9088003 0.8579545 0.3553783 0.3709722 0.8579542 -0.355379 0.3709722 0.9286416 -4.08345e-7 0.3709782 0.3854624 -0.1596633 0.908805 0.6566517 -0.6566522 0.3709668 0.1596633 -0.3854624 0.9088049 0.2950282 -0.2950282 0.9087997 0 -0.4172313 0.9088004 0.3553783 -0.8579546 0.370972 -0.3553789 -0.8579542 0.3709724 -3.98785e-7 -0.9286416 0.3709784 -0.1596632 -0.3854619 0.9088052 -0.6566522 -0.6566518 0.3709669 -0.3854623 -0.1596633 0.908805 -0.2950282 -0.2950282 0.9087997 -0.4172315 0 0.9088003 -0.8579546 -0.3553783 0.3709722 -0.8579543 0.355379 0.3709722 -0.9286417 4.49316e-7 0.3709782 -0.3854623 0.1596633 0.908805 -0.6566517 0.6566522 0.3709668 -0.1596632 0.3854619 0.9088052 -0.2950282 0.2950282 0.9087997 -0.3553783 0.8579544 0.3709724 0 0 1 0 0 1 0 0 1 0 0 1 0 0 1 0 0 1 0 0 1 0 0 1 0 0 1 0 0 1 0 0 1 0 0 1 -0.7071072 0.7071064 0 -0.9238799 0.3826828 0 -1 -7.35091e-7 0 -0.9238793 -0.3826841 0 -0.7071064 -0.7071073 0 -0.3826828 -0.9238799 0 6.38369e-7 -1 0 0.3826839 -0.9238793 0 0.7071072 -0.7071064 0 0.9238799 -0.3826828 0 1 7.83452e-7 0 0.9238793 0.3826841 0 0.7071064 0.7071073 0 0.3826828 0.9238799 0 -0.3826839 0.9238794 0 -5.65827e-7 1 0</float_array>
          <technique_common>
            <accessor source="#hele_struct_b-mesh-normals-array" count="60" stride="3">
              <param name="X" type="float"/>
              <param name="Y" type="float"/>
              <param name="Z" type="float"/>
            </accessor>
          </technique_common>
        </source>
        <source id="hele_struct_b-mesh-map-0">
          <float_array id="hele_struct_b-mesh-map-0-array" count="576">0.4385515 0.382048 0.341471 0.3559846 0.4385515 0.3559846 0.341471 0.382048 0.2443905 0.3559846 0.341471 0.3559846 0.14731 0.382048 0.2443905 0.3559846 0.2443905 0.382048 0.05022954 0.382048 0.14731 0.3559846 0.14731 0.382048 0.05002373 0.3814983 0.1477644 0.3556506 0.05002373 0.3556506 0.1477644 0.3814983 0.2455051 0.3556506 0.1477644 0.3556506 0.3432458 0.3814983 0.2455051 0.3556506 0.2455051 0.3814983 0.4409865 0.3814983 0.3432458 0.3556507 0.3432458 0.3814983 0.4262622 0.3830062 0.3323056 0.356567 0.4262622 0.356567 0.3323056 0.3830062 0.2383489 0.356567 0.3323056 0.356567 0.1443922 0.3830062 0.2383489 0.356567 0.2383489 0.3830062 0.0504356 0.3830062 0.1443922 0.356567 0.1443922 0.3830062 0.05017608 0.3819321 0.146517 0.3559142 0.05017608 0.3559142 0.146517 0.3819321 0.242858 0.3559142 0.146517 0.3559142 0.339199 0.3819321 0.242858 0.3559142 0.242858 0.3819321 0.43554 0.3819321 0.339199 0.3559142 0.339199 0.3819321 0.339199 0.4128969 0.43554 0.3819321 0.339199 0.3819321 0.341471 0.413067 0.4385515 0.382048 0.4385515 0.413067 0.341471 0.413067 0.2443905 0.382048 0.341471 0.382048 0.14731 0.413067 0.2443905 0.382048 0.2443905 0.413067 0.14731 0.413067 0.05022954 0.382048 0.14731 0.382048 0.1477644 0.4122607 0.05002373 0.3814983 0.05002373 0.4122606 0.1477644 0.4122607 0.2455051 0.3814983 0.1477644 0.3814983 0.3432458 0.4122607 0.2455051 0.3814983 0.2455051 0.4122607 0.3432458 0.4122607 0.4409865 0.3814983 0.3432458 0.3814983 0.3323056 0.4144725 0.4262622 0.3830062 0.4262622 0.4144725 0.3323056 0.4144725 0.2383489 0.3830062 0.3323056 0.3830062 0.1443922 0.4144725 0.2383489 0.3830062 0.2383489 0.4144725 0.1443922 0.4144725 0.0504356 0.3830062 0.1443922 0.3830062 0.146517 0.4128969 0.05017608 0.3819321 0.05017608 0.4128969 0.146517 0.4128969 0.242858 0.3819321 0.146517 0.3819321 0.339199 0.4128969 0.242858 0.3819321 0.242858 0.4128969 0.339199 0.3559142 0.242858 0.005029439 0.242858 0.3559142 0.242858 0.3559142 0.146517 0.005029439 0.146517 0.3559142 0.146517 0.3559142 0.05017608 0.00502938 0.05017608 0.3559142 0.0504356 0.356567 0.1443922 0 0.1443922 0.356567 0.1443922 0.356567 0.2383489 0 0.2383489 0.356567 0.2383489 0.356567 0.3323056 0 0.3323056 0.356567 0.3323056 0.356567 0.4262622 0 0.4262622 0.356567 0.4409865 0.3556507 0.3432458 0.007061004 0.3432458 0.3556507 0.3432458 0.3556507 0.2455051 0.007061004 0.2455051 0.3556506 0.2455051 0.3556506 0.1477644 0.007061004 0.1477644 0.3556506 0.1477644 0.3556506 0.05002379 0.007060945 0.05002373 0.3556506 0.05022954 0.3559847 0.14731 0.004486739 0.14731 0.3559846 0.14731 0.3559846 0.2443905 0.004486739 0.2443905 0.3559846 0.2443905 0.3559846 0.341471 0.004486739 0.341471 0.3559846 0.43554 0.3559142 0.339199 0.005029439 0.339199 0.3559142 0.341471 0.3559846 0.4385515 0.00448668 0.4385515 0.3559846 0.4385515 0.382048 0.341471 0.382048 0.341471 0.3559846 0.341471 0.382048 0.2443905 0.382048 0.2443905 0.3559846 0.14731 0.382048 0.14731 0.3559846 0.2443905 0.3559846 0.05022954 0.382048 0.05022954 0.3559847 0.14731 0.3559846 0.05002373 0.3814983 0.1477644 0.3814983 0.1477644 0.3556506 0.1477644 0.3814983 0.2455051 0.3814983 0.2455051 0.3556506 0.3432458 0.3814983 0.3432458 0.3556507 0.2455051 0.3556506 0.4409865 0.3814983 0.4409865 0.3556507 0.3432458 0.3556507 0.4262622 0.3830062 0.3323056 0.3830062 0.3323056 0.356567 0.3323056 0.3830062 0.2383489 0.3830062 0.2383489 0.356567 0.1443922 0.3830062 0.1443922 0.356567 0.2383489 0.356567 0.0504356 0.3830062 0.0504356 0.356567 0.1443922 0.356567 0.05017608 0.3819321 0.146517 0.3819321 0.146517 0.3559142 0.146517 0.3819321 0.242858 0.3819321 0.242858 0.3559142 0.339199 0.3819321 0.339199 0.3559142 0.242858 0.3559142 0.43554 0.3819321 0.43554 0.3559142 0.339199 0.3559142 0.339199 0.4128969 0.43554 0.4128969 0.43554 0.3819321 0.341471 0.413067 0.341471 0.382048 0.4385515 0.382048 0.341471 0.413067 0.2443905 0.413067 0.2443905 0.382048 0.14731 0.413067 0.14731 0.382048 0.2443905 0.382048 0.14731 0.413067 0.05022954 0.413067 0.05022954 0.382048 0.1477644 0.4122607 0.1477644 0.3814983 0.05002373 0.3814983 0.1477644 0.4122607 0.2455051 0.4122607 0.2455051 0.3814983 0.3432458 0.4122607 0.3432458 0.3814983 0.2455051 0.3814983 0.3432458 0.4122607 0.4409865 0.4122607 0.4409865 0.3814983 0.3323056 0.4144725 0.3323056 0.3830062 0.4262622 0.3830062 0.3323056 0.4144725 0.2383489 0.4144725 0.2383489 0.3830062 0.1443922 0.4144725 0.1443922 0.3830062 0.2383489 0.3830062 0.1443922 0.4144725 0.0504356 0.4144724 0.0504356 0.3830062 0.146517 0.4128969 0.146517 0.3819321 0.05017608 0.3819321 0.146517 0.4128969 0.242858 0.4128969 0.242858 0.3819321 0.339199 0.4128969 0.339199 0.3819321 0.242858 0.3819321 0.339199 0.3559142 0.339199 0.005029439 0.242858 0.005029439 0.242858 0.3559142 0.242858 0.005029439 0.146517 0.005029439 0.146517 0.3559142 0.146517 0.005029439 0.05017608 0.00502938 0.0504356 0.356567 0.0504356 1.19209e-7 0.1443922 0 0.1443922 0.356567 0.1443922 0 0.2383489 0 0.2383489 0.356567 0.2383489 0 0.3323056 0 0.3323056 0.356567 0.3323056 0 0.4262622 0 0.4409865 0.3556507 0.4409865 0.007061004 0.3432458 0.007061004 0.3432458 0.3556507 0.3432458 0.007061004 0.2455051 0.007061004 0.2455051 0.3556506 0.2455051 0.007061004 0.1477644 0.007061004 0.1477644 0.3556506 0.1477644 0.007061004 0.05002379 0.007060945 0.05022954 0.3559847 0.05022954 0.004486739 0.14731 0.004486739 0.14731 0.3559846 0.14731 0.004486739 0.2443905 0.004486739 0.2443905 0.3559846 0.2443905 0.004486739 0.341471 0.004486739 0.43554 0.3559142 0.43554 0.005029499 0.339199 0.005029439 0.341471 0.3559846 0.341471 0.004486739 0.4385515 0.00448668</float_array>
          <technique_common>
            <accessor source="#hele_struct_b-mesh-map-0-array" count="288" stride="2">
              <param name="S" type="float"/>
              <param name="T" type="float"/>
            </accessor>
          </technique_common>
        </source>
        <source id="hele_struct_b-mesh-map-1">
          <float_array id="hele_struct_b-mesh-map-1-array" count="576">0.1220752 0.2574961 0.1658272 0.2031461 0.126533 0.2619539 0.1600028 0.2007334 0.1796255 0.1337774 0.1658272 0.2031461 0.1600028 0.06682133 0.1796255 0.1337774 0.1733212 0.1337774 0.1220752 0.01005876 0.1658272 0.06440871 0.1600028 0.06682133 0.1570024 0.2574961 0.2007544 0.203146 0.1614602 0.2619539 0.19493 0.2007334 0.2145527 0.1337774 0.2007544 0.203146 0.19493 0.06682133 0.2145527 0.1337774 0.2082483 0.1337774 0.1570024 0.0100587 0.2007544 0.06440871 0.19493 0.06682133 0.06242305 0.0100587 0.01867097 0.06440871 0.05796515 0.00560081 0.02449542 0.06682127 0.004872739 0.1337774 0.01867097 0.06440871 0.02449548 0.2007334 0.004872739 0.1337774 0.01117706 0.1337774 0.06242305 0.2574961 0.01867097 0.203146 0.02449548 0.2007334 0.09485542 0.0100587 0.05110341 0.06440871 0.09039759 0.00560081 0.05692785 0.06682127 0.03730517 0.1337773 0.05110341 0.06440871 0.05692785 0.2007334 0.03730517 0.1337773 0.04360949 0.1337773 0.09485548 0.257496 0.05110341 0.203146 0.05692785 0.2007334 0.06663733 0.1967116 0.09485548 0.257496 0.05692785 0.2007334 0.1502933 0.1967117 0.1220752 0.2574961 0.1146439 0.2500647 0.1502933 0.1967117 0.1733212 0.1337774 0.1600028 0.2007334 0.1502933 0.07084316 0.1733212 0.1337774 0.1628117 0.1337774 0.1502933 0.07084316 0.1220752 0.01005876 0.1600028 0.06682133 0.1852205 0.1967116 0.1570024 0.2574961 0.1495711 0.2500647 0.1852205 0.1967116 0.2082483 0.1337774 0.19493 0.2007334 0.1852205 0.0708431 0.2082483 0.1337774 0.1977389 0.1337774 0.1852205 0.0708431 0.1570024 0.0100587 0.19493 0.06682133 0.03420495 0.0708431 0.06242305 0.0100587 0.06985437 0.01748996 0.03420495 0.0708431 0.01117706 0.1337774 0.02449542 0.06682127 0.03420495 0.1967116 0.01117706 0.1337774 0.02168655 0.1337774 0.03420495 0.1967116 0.06242305 0.2574961 0.02449548 0.2007334 0.06663739 0.0708431 0.09485542 0.0100587 0.1022868 0.01748996 0.06663739 0.0708431 0.04360949 0.1337773 0.05692785 0.06682127 0.06663733 0.1967116 0.04360949 0.1337773 0.05411899 0.1337773 0.3898489 0.07099682 0.508939 0.1417245 0.3898488 0.1417245 0.3898488 0.1417245 0.508939 0.2070683 0.3898488 0.2070683 0.758419 0.3174996 0.708407 0.4365898 0.708407 0.3174996 0.3898488 0.2189583 0.508939 0.2843022 0.3898488 0.2843022 0.3898488 0.2843022 0.508939 0.3550298 0.3898488 0.3550298 0.3898488 0.3550298 0.508939 0.4203737 0.3898488 0.4203737 0.820789 0.3174996 0.770777 0.4365898 0.770777 0.3174996 0.1690623 0.5114338 0.2344061 0.3923436 0.2344061 0.5114338 0.2344061 0.5114338 0.3051338 0.3923436 0.3051338 0.5114338 0.3051338 0.5114338 0.3704777 0.3923436 0.3704776 0.5114338 0.3280661 0.7041936 0.278054 0.8232837 0.278054 0.7041936 0.3798729 0.5513506 0.4452167 0.4322605 0.4452167 0.5513506 0.4452167 0.5513506 0.5159444 0.4322605 0.5159444 0.5513506 0.5159444 0.5513506 0.5812882 0.4322605 0.5812882 0.5513506 0.3898489 0.005652964 0.508939 0.07099682 0.3898489 0.07099682 0.8182942 0.01188671 0.7682821 0.1309769 0.7682821 0.01188671 0.1220752 0.2574961 0.1600028 0.2007334 0.1658272 0.2031461 0.1600028 0.2007334 0.1733212 0.1337774 0.1796255 0.1337774 0.1600028 0.06682133 0.1658272 0.06440871 0.1796255 0.1337774 0.1220752 0.01005876 0.126533 0.005600869 0.1658272 0.06440871 0.1570024 0.2574961 0.19493 0.2007334 0.2007544 0.203146 0.19493 0.2007334 0.2082483 0.1337774 0.2145527 0.1337774 0.19493 0.06682133 0.2007544 0.06440871 0.2145527 0.1337774 0.1570024 0.0100587 0.1614603 0.005600869 0.2007544 0.06440871 0.06242305 0.0100587 0.02449542 0.06682127 0.01867097 0.06440871 0.02449542 0.06682127 0.01117706 0.1337774 0.004872739 0.1337774 0.02449548 0.2007334 0.01867097 0.203146 0.004872739 0.1337774 0.06242305 0.2574961 0.05796521 0.2619539 0.01867097 0.203146 0.09485542 0.0100587 0.05692785 0.06682127 0.05110341 0.06440871 0.05692785 0.06682127 0.04360949 0.1337773 0.03730517 0.1337773 0.05692785 0.2007334 0.05110341 0.203146 0.03730517 0.1337773 0.09485548 0.257496 0.09039759 0.2619539 0.05110341 0.203146 0.06663733 0.1967116 0.1022868 0.2500647 0.09485548 0.257496 0.1502933 0.1967117 0.1600028 0.2007334 0.1220752 0.2574961 0.1502933 0.1967117 0.1628117 0.1337774 0.1733212 0.1337774 0.1502933 0.07084316 0.1600028 0.06682133 0.1733212 0.1337774 0.1502933 0.07084316 0.1146439 0.01749002 0.1220752 0.01005876 0.1852205 0.1967116 0.19493 0.2007334 0.1570024 0.2574961 0.1852205 0.1967116 0.1977389 0.1337774 0.2082483 0.1337774 0.1852205 0.0708431 0.19493 0.06682133 0.2082483 0.1337774 0.1852205 0.0708431 0.1495711 0.01749002 0.1570024 0.0100587 0.03420495 0.0708431 0.02449542 0.06682127 0.06242305 0.0100587 0.03420495 0.0708431 0.02168655 0.1337774 0.01117706 0.1337774 0.03420495 0.1967116 0.02449548 0.2007334 0.01117706 0.1337774 0.03420495 0.1967116 0.06985437 0.2500647 0.06242305 0.2574961 0.06663739 0.0708431 0.05692785 0.06682127 0.09485542 0.0100587 0.06663739 0.0708431 0.05411899 0.1337773 0.04360949 0.1337773 0.06663733 0.1967116 0.05692785 0.2007334 0.04360949 0.1337773 0.3898489 0.07099682 0.508939 0.07099682 0.508939 0.1417245 0.3898488 0.1417245 0.508939 0.1417245 0.508939 0.2070683 0.758419 0.3174996 0.758419 0.4365898 0.708407 0.4365898 0.3898488 0.2189583 0.508939 0.2189583 0.508939 0.2843022 0.3898488 0.2843022 0.508939 0.2843022 0.508939 0.3550298 0.3898488 0.3550298 0.508939 0.3550298 0.508939 0.4203737 0.820789 0.3174996 0.820789 0.4365898 0.770777 0.4365898 0.1690623 0.5114338 0.1690623 0.3923436 0.2344061 0.3923436 0.2344061 0.5114338 0.2344061 0.3923436 0.3051338 0.3923436 0.3051338 0.5114338 0.3051338 0.3923436 0.3704777 0.3923436 0.3280661 0.7041936 0.3280661 0.8232837 0.278054 0.8232837 0.3798729 0.5513506 0.3798729 0.4322605 0.4452167 0.4322605 0.4452167 0.5513506 0.4452167 0.4322605 0.5159444 0.4322605 0.5159444 0.5513506 0.5159444 0.4322605 0.5812882 0.4322605 0.3898489 0.005652964 0.508939 0.005653023 0.508939 0.07099682 0.8182942 0.01188671 0.8182942 0.1309769 0.7682821 0.1309769</float_array>
          <technique_common>
            <accessor source="#hele_struct_b-mesh-map-1-array" count="288" stride="2">
              <param name="S" type="float"/>
              <param name="T" type="float"/>
            </accessor>
          </technique_common>
        </source>
        <vertices id="hele_struct_b-mesh-vertices">
          <input semantic="POSITION" source="#hele_struct_b-mesh-positions"/>
        </vertices>
        <triangles material="hele_struct_b-material" count="96">
          <input semantic="VERTEX" source="#hele_struct_b-mesh-vertices" offset="0"/>
          <input semantic="NORMAL" source="#hele_struct_b-mesh-normals" offset="1"/>
          <input semantic="TEXCOORD" source="#hele_struct_b-mesh-map-0" offset="2" set="0"/>
          <input semantic="TEXCOORD" source="#hele_struct_b-mesh-map-1" offset="2" set="1"/>
          <p>33 0 0 35 1 1 32 2 2 34 3 3 37 4 4 35 1 5 38 5 6 37 4 7 36 6 8 40 7 9 39 8 10 38 5 11 40 7 12 43 9 13 41 10 14 42 11 15 45 12 16 43 9 17 46 13 18 45 12 19 44 14 20 48 15 21 47 16 22 46 13 23 48 15 24 51 17 25 49 18 26 50 19 27 53 20 28 51 17 29 54 21 30 53 20 31 52 22 32 56 23 33 55 24 34 54 21 35 56 23 36 59 25 37 57 26 38 58 27 39 61 28 40 59 25 41 62 29 42 61 28 43 60 30 44 33 0 45 63 31 46 62 29 47 15 32 48 33 0 49 62 29 50 1 33 51 33 0 52 0 34 53 1 33 54 36 6 55 34 3 56 3 35 57 36 6 58 2 36 59 3 35 60 40 7 61 38 5 62 5 37 63 40 7 64 4 38 65 5 37 66 44 14 67 42 11 68 7 33 69 44 14 70 6 36 71 7 33 72 48 15 73 46 13 74 9 39 75 48 15 76 8 34 77 9 39 78 52 22 79 50 19 80 11 40 81 52 22 82 10 41 83 11 40 84 56 23 85 54 21 86 13 42 87 56 23 88 12 43 89 13 42 90 60 30 91 58 27 92 15 32 93 60 30 94 14 41 95 63 31 96 30 44 97 61 28 98 61 28 99 29 45 100 59 25 101 59 25 102 28 46 103 57 26 104 57 26 105 27 47 106 55 24 107 55 24 108 26 48 109 53 20 110 53 20 111 25 49 112 51 17 113 51 17 114 24 50 115 49 18 116 49 18 117 23 51 118 47 16 119 47 16 120 22 52 121 45 12 122 45 12 123 21 53 124 43 9 125 43 9 126 20 54 127 41 10 128 41 10 129 19 55 130 39 8 131 39 8 132 18 56 133 37 4 134 37 4 135 17 57 136 35 1 137 32 2 138 31 58 139 63 31 140 35 1 141 16 59 142 32 2 143 33 0 144 34 3 145 35 1 146 34 3 147 36 6 148 37 4 149 38 5 150 39 8 151 37 4 152 40 7 153 41 10 154 39 8 155 40 7 156 42 11 157 43 9 158 42 11 159 44 14 160 45 12 161 46 13 162 47 16 163 45 12 164 48 15 165 49 18 166 47 16 167 48 15 168 50 19 169 51 17 170 50 19 171 52 22 172 53 20 173 54 21 174 55 24 175 53 20 176 56 23 177 57 26 178 55 24 179 56 23 180 58 27 181 59 25 182 58 27 183 60 30 184 61 28 185 62 29 186 63 31 187 61 28 188 33 0 189 32 2 190 63 31 191 15 32 192 0 34 193 33 0 194 1 33 195 34 3 196 33 0 197 1 33 198 2 36 199 36 6 200 3 35 201 38 5 202 36 6 203 3 35 204 4 38 205 40 7 206 5 37 207 42 11 208 40 7 209 5 37 210 6 36 211 44 14 212 7 33 213 46 13 214 44 14 215 7 33 216 8 34 217 48 15 218 9 39 219 50 19 220 48 15 221 9 39 222 10 41 223 52 22 224 11 40 225 54 21 226 52 22 227 11 40 228 12 43 229 56 23 230 13 42 231 58 27 232 56 23 233 13 42 234 14 41 235 60 30 236 15 32 237 62 29 238 60 30 239 63 31 240 31 58 241 30 44 242 61 28 243 30 44 244 29 45 245 59 25 246 29 45 247 28 46 248 57 26 249 28 46 250 27 47 251 55 24 252 27 47 253 26 48 254 53 20 255 26 48 256 25 49 257 51 17 258 25 49 259 24 50 260 49 18 261 24 50 262 23 51 263 47 16 264 23 51 265 22 52 266 45 12 267 22 52 268 21 53 269 43 9 270 21 53 271 20 54 272 41 10 273 20 54 274 19 55 275 39 8 276 19 55 277 18 56 278 37 4 279 18 56 280 17 57 281 32 2 282 16 59 283 31 58 284 35 1 285 17 57 286 16 59 287</p>
        </triangles>
      </mesh>
    </geometry>
  </library_geometries>
  <library_visual_scenes>
    <visual_scene id="Scene" name="Scene">
      <node id="hele_struct_b" name="hele_struct_b" type="NODE">
        <matrix sid="transform">1 0 0 0 0 1 0 0 0 0 1 0 0 0 0 1</matrix>
        <instance_geometry url="#hele_struct_b-mesh" name="hele_struct_b">
          <bind_material>
            <technique_common>
              <instance_material symbol="hele_struct_b-material" target="#hele_struct_b-material">
                <bind_vertex_input semantic="UVMap" input_semantic="TEXCOORD" input_set="0"/>
                <bind_vertex_input semantic="ao_map" input_semantic="TEXCOORD" input_set="1"/>
              </instance_material>
            </technique_common>
          </bind_material>
        </instance_geometry>
      </node>
    </visual_scene>
  </library_visual_scenes>
  <scene>
    <instance_visual_scene url="#Scene"/>
  </scene>
</COLLADA>