<?xml version="1.0" encoding="utf-8"?>
<COLLADA xmlns="http://www.collada.org/2005/11/COLLADASchema" version="1.4.1" xmlns:xsi="http://www.w3.org/2001/XMLSchema-instance">
  <asset>
    <contributor>
      <author>Blender User</author>
      <authoring_tool>Blender 4.5.7 LTS commit date:2026-02-16, commit time:13:34, hash:a9874eeece8d</authoring_tool>
    </contributor>
    <created>2026-09-15T18:27:50</created>
    <modified>2026-09-15T18:27:50</modified>
    <unit name="meter" meter="1"/>
    <up_axis>Z_UP</up_axis>
  </asset>
  <library_effects>
    <effect id="Bronze-effect">
      <profile_COMMON>
        <newparam sid="bronze_01_png-surface">
          <surface type="2D">
            <init_from>bronze_01_png</init_from>
          </surface>
        </newparam>
        <newparam sid="bronze_01_png-sampler">
          <sampler2D>
            <source>bronze_01_png-surface</source>
          </sampler2D>
        </newparam>
        <technique sid="common">
          <lambert>
            <emission>
              <color sid="emission">0 0 0 1</color>
            </emission>
            <diffuse>
              <texture texture="bronze_01_png-sampler" texcoord="ao_map"/>
            </diffuse>
            <reflectivity>
              <float sid="specular">0.5</float>
            </reflectivity>
            <index_of_refraction>
              <float sid="ior">1.45</float>
            </index_of_refraction>
          </lambert>
        </technique>
      </profile_COMMON>
    </effect>
  </library_effects>
  <library_images>
    <image id="bronze_01_png" name="bronze_01_png">
      <init_from>bronze_01.png</init_from>
    </image>
  </library_images>
  <library_materials>
    <material id="Bronze-material" name="Bronze">
      <instance_effect url="#Bronze-effect"/>
    </material>
  </library_materials>
  <library_geometries>
    <geometry id="post-mesh" name="post">
      <mesh>
        <source id="post-mesh-positions">
          <float_array id="post-mesh-positions-array" count="228">0 0.1000171 3.993311 0 0.1000171 0.08588445 0.08661735 0.05000853 3.993311 0.08661735 0.05000853 0.08588445 0.08661735 -0.05000853 3.993311 0.08661735 -0.05000853 0.08588445 0 -0.1000171 3.993311 0 -0.1000171 0.08588445 -0.08661735 -0.05000853 3.993311 -0.08661735 -0.05000853 0.08588445 -0.08661735 0.05000853 3.993311 -0.08661735 0.05000853 0.08588445 0.8218606 0.07897293 2.80097 -0.8218606 0.07897293 2.800971 0.8218606 0.03948646 2.732578 -0.8218606 0.03948646 2.732578 0.8218606 -0.03948646 2.732578 -0.8218606 -0.03948646 2.732578 0.8218606 -0.07897293 2.80097 -0.8218606 -0.07897293 2.800971 0.8218606 -0.03948646 2.869363 -0.8218606 -0.03948646 2.869363 0.8218606 0.03948646 2.869363 -0.8218606 0.03948646 2.869363 0.3325621 0.03825294 1.917096 -0.3325623 0.03825294 3.34346 0.302538 0.01912647 1.903095 -0.3625868 0.01912647 3.329459 0.302538 -0.01912647 1.903095 -0.3625868 -0.01912647 3.329459 0.3325621 -0.03825294 1.917096 -0.3325623 -0.03825294 3.34346 0.3625863 -0.01912647 1.931096 -0.3025382 -0.01912647 3.357461 0.3625863 0.01912647 1.931096 -0.3025382 0.01912647 3.357461 -0.3325628 0.03825294 1.917096 0.3325625 0.03825294 3.34346 -0.362587 0.01912647 1.931096 0.3025379 0.01912647 3.357461 -0.362587 -0.01912647 1.931096 0.3025379 -0.01912647 3.357461 -0.3325628 -0.03825294 1.917096 0.3325625 -0.03825294 3.34346 -0.3025388 -0.01912647 1.903095 0.3625867 -0.01912647 3.32946 -0.3025388 0.01912647 1.903095 0.3625867 0.01912647 3.32946 -0.5105111 -0.65074 -0.01237034 -0.5105111 -0.65074 0.08588445 -0.65074 -0.5105111 -0.01237034 -0.65074 -0.5105111 0.08588445 0.65074 0.5105111 -0.01237034 0.65074 0.5105111 0.08588445 0.5105111 0.65074 -0.01237034 0.5105111 0.65074 0.08588445 0.65074 -0.5105112 -0.009335756 0.65074 -0.5105112 0.06668823 0.5105112 -0.65074 -0.009335756 0.5105112 -0.65074 0.06668823 -0.5105112 0.65074 -0.009335756 -0.5105112 0.65074 0.06668823 -0.65074 0.5105112 -0.009335756 -0.65074 0.5105112 0.06668823 0 0.1000171 2.690835 0 0.1000171 1.38836 0.08661735 0.05000853 1.38836 0.08661735 0.05000853 2.690835 0.08661735 -0.05000853 1.38836 0.08661735 -0.05000853 2.690835 0 -0.1000171 1.38836 0 -0.1000171 2.690835 -0.08661735 -0.05000853 1.38836 -0.08661735 -0.05000853 2.690835 -0.08661735 0.05000853 1.38836 -0.08661735 0.05000853 2.690835</float_array>
          <technique_common>
            <accessor source="#post-mesh-positions-array" count="76" stride="3">
              <param name="X" type="float"/>
              <param name="Y" type="float"/>
              <param name="Z" type="float"/>
            </accessor>
          </technique_common>
        </source>
        <source id="post-mesh-normals">
          <float_array id="post-mesh-normals-array" count="225">0.8660254 0.5 0 0 1 0 0 1 0 0.8660254 -0.5 0 0.8660278 0.4999961 0 0 -1 0 0.8660233 -0.5000039 0 -0.8660254 -0.5 0 -4.51298e-6 -1 0 -0.8660254 0.5 0 -0.8660278 -0.4999961 0 0.6099913 0.3962067 -0.686244 -0.609991 0.7924084 -1.5971e-6 0.6099945 0.7924058 2.77594e-6 0.6099846 -0.3962025 -0.6862524 -0.6099843 0.3962042 -0.6862517 0.6099912 -0.7924082 -5.23778e-6 -0.6099911 -0.3962085 -0.6862433 0.6099942 -0.3962067 0.6862415 -0.6099942 -0.792406 6.40575e-6 -0.609992 -0.3961991 0.6862478 -0.6099945 0.3962051 0.6862422 0.6099917 0.3962006 0.6862472 0.2577925 0.7924077 -0.5528409 -0.879743 0.3962053 0.2628185 -0.2577939 0.792407 0.5528413 -0.3641515 -0.3962 -0.8428637 -0.3641527 0.396202 -0.8428623 0.2577896 -0.792409 -0.5528405 -0.8797423 -0.3962078 0.2628175 0.8797424 -0.3962089 -0.2628154 -0.2577909 -0.7924126 0.5528347 0.3641515 -0.3962024 0.8428627 0.3641446 0.3962028 0.8428655 0.8797432 0.3962045 -0.2628193 -0.8797423 0.3962054 -0.2628209 0.2577913 0.7924094 0.5528392 -0.2577947 0.792402 -0.5528481 -0.8797454 -0.3962063 -0.2628096 -0.364158 0.3961996 0.8428611 0.2577912 -0.7924149 0.5528312 -0.3641515 -0.3962048 0.8428614 0.3641562 -0.3962014 -0.8428611 -0.2577937 -0.792405 -0.5528442 0.8797426 -0.3962026 0.2628245 0.8797404 0.3962028 0.2628312 0.364158 0.3962023 -0.8428598 1.33639e-5 -0.8164921 0.5773566 -1 1.62602e-5 0 8.80066e-6 -1 0 -0.8164973 7.10904e-6 0.5773493 -8.80066e-6 1 0 -1.3342e-5 0.8164921 0.5773566 1 -1.62602e-5 0 0.8164973 -7.10904e-6 0.5773493 0.8164895 2.10757e-5 0.5773603 -2.59736e-5 -1 0 1 8.37136e-6 0 -6.88611e-6 -0.8164973 0.5773494 -1 -8.37136e-6 0 -0.8164895 -2.10648e-5 0.5773603 2.59736e-5 1 0 6.91252e-6 0.8164973 0.5773494 -4.51983e-6 1 0 -0.8660243 0.500002 0 -0.8660277 0.4999961 0 -0.8660254 -0.5 0 -0.8660231 -0.5000039 0 0 -1 0 4.51983e-6 -1 0 0.8660254 -0.5 0 0.8660277 -0.4999961 0 0.8660254 0.5000001 0 0.8660231 0.5000039 0 2.2565e-6 1 0</float_array>
          <technique_common>
            <accessor source="#post-mesh-normals-array" count="75" stride="3">
              <param name="X" type="float"/>
              <param name="Y" type="float"/>
              <param name="Z" type="float"/>
            </accessor>
          </technique_common>
        </source>
        <source id="post-mesh-map-0">
          <float_array id="post-mesh-map-0-array" count="696">0.4283238 0.1728725 0.4033765 0.8226294 0.4033765 0.1728725 0.4532713 0.1728725 0.4283239 0.8226294 0.4283238 0.1728725 0.4782187 0.1728725 0.4532715 0.8226294 0.4532713 0.1728725 0.5031663 0.1728725 0.4782187 0.8226294 0.4782187 0.1728725 0.5281134 0.1728725 0.5031663 0.8226294 0.5031663 0.1728725 0.5281134 0.1728725 0.553061 0.8226294 0.5281137 0.8226294 0.4191239 0.9077467 0.4388222 0.08775514 0.4388222 0.9077467 0.5176153 0.9077467 0.5373138 0.08775514 0.5373138 0.9077467 0.4979171 0.9077467 0.5176153 0.08775514 0.5176153 0.9077467 0.4782188 0.9077467 0.4979169 0.08775514 0.4979171 0.9077467 0.488068 0.5318692 0.4683696 0.5318692 0.4585204 0.4977509 0.4585204 0.9077467 0.4782186 0.08775514 0.4782188 0.9077467 0.4388222 0.9077467 0.4585204 0.08775514 0.4585204 0.9077467 0.4880681 0.5318693 0.4683697 0.5318693 0.4683697 0.4636324 0.459136 0.8903108 0.4495943 0.1051908 0.459136 0.1051908 0.4973019 0.8903108 0.5068438 0.1051911 0.5068438 0.8903108 0.4877606 0.8903108 0.4973021 0.1051908 0.4973019 0.8903108 0.478219 0.8903108 0.4877607 0.1051908 0.4877606 0.8903108 0.4829896 0.5142774 0.473448 0.5142774 0.4686771 0.4977509 0.4686773 0.8903108 0.478219 0.1051905 0.478219 0.8903108 0.4686773 0.8903108 0.459136 0.1051908 0.4686773 0.1051905 0.473448 0.5142773 0.4686772 0.4977511 0.473448 0.4812247 0.4877604 0.890311 0.4973019 0.1051906 0.4973017 0.8903112 0.4782189 0.8903112 0.4877604 0.1051906 0.4877604 0.890311 0.4782189 0.8903112 0.468677 0.1051906 0.4782186 0.1051906 0.4591358 0.890311 0.468677 0.1051906 0.4686771 0.8903112 0.4686771 0.4977509 0.473448 0.4812244 0.4829895 0.4812242 0.4495941 0.890311 0.4591358 0.1051908 0.4591358 0.890311 0.5068435 0.890311 0.4973019 0.1051906 0.5068435 0.1051906 0.4829896 0.5142772 0.473448 0.5142772 0.473448 0.4812244 0.5029519 0.08812034 0.4534861 0.03910481 0.5029519 0.03910481 0.4534861 0.08812034 0.4289783 0.9073819 0.4289783 0.08812034 0.4534861 0.9073819 0.5029519 0.9563975 0.4534861 0.9563975 0.5029519 0.9073819 0.5274598 0.08812034 0.5274598 0.9073819 0.4534861 0.08812034 0.5029519 0.9073819 0.4534861 0.9073819 0.4534861 0.9073817 0.5029516 0.9453069 0.4534861 0.9453069 0.5029516 0.9073817 0.5219145 0.08811998 0.5219145 0.9073817 0.5029515 0.08811998 0.4534861 0.05019456 0.5029515 0.05019426 0.4534861 0.08811998 0.4345234 0.9073817 0.4345232 0.08811998 0.5029516 0.9073817 0.4534861 0.08811998 0.5029515 0.08811998 0.5530613 0.1728728 0.5281136 0.8226295 0.5281136 0.1728728 0.5281136 0.1728728 0.5530613 0.8226293 0.5281136 0.8226295 0.5281136 0.1728728 0.5031663 0.8226295 0.5031663 0.1728728 0.5281136 0.1728728 0.5031663 0.8226295 0.5031663 0.1728728 0.5031663 0.1728728 0.4782189 0.8226295 0.4782189 0.1728728 0.5031663 0.1728728 0.4782189 0.8226295 0.4782189 0.1728728 0.4782189 0.1728728 0.4532715 0.8226295 0.4532715 0.1728728 0.4782189 0.1728728 0.4532715 0.8226295 0.4532715 0.1728728 0.4532715 0.1728728 0.4283242 0.8226295 0.4283241 0.1728728 0.4532715 0.1728728 0.4283242 0.8226295 0.4283241 0.1728728 0.4283241 0.1728728 0.4033765 0.8226295 0.4033765 0.1728728 0.4283241 0.1728728 0.4033765 0.8226295 0.4033765 0.1728728 0.4283238 0.1728725 0.4283239 0.8226294 0.4033765 0.8226294 0.4532713 0.1728725 0.4532715 0.8226294 0.4283239 0.8226294 0.4782187 0.1728725 0.4782187 0.8226294 0.4532715 0.8226294 0.5031663 0.1728725 0.5031663 0.8226294 0.4782187 0.8226294 0.5281134 0.1728725 0.5281137 0.8226294 0.5031663 0.8226294 0.5281134 0.1728725 0.553061 0.1728725 0.553061 0.8226294 0.4191239 0.9077467 0.4191237 0.08775514 0.4388222 0.08775514 0.5176153 0.9077467 0.5176153 0.08775514 0.5373138 0.08775514 0.4979171 0.9077467 0.4979169 0.08775514 0.5176153 0.08775514 0.4782188 0.9077467 0.4782186 0.08775514 0.4979169 0.08775514 0.4585204 0.4977509 0.4683696 0.4636324 0.488068 0.5318692 0.4683696 0.4636324 0.488068 0.4636324 0.488068 0.5318692 0.488068 0.4636324 0.4979173 0.4977509 0.488068 0.5318692 0.4585204 0.9077467 0.4585204 0.08775514 0.4782186 0.08775514 0.4388222 0.9077467 0.4388222 0.08775514 0.4585204 0.08775514 0.4683697 0.5318693 0.4585205 0.4977509 0.4683697 0.4636324 0.4683697 0.4636324 0.4880681 0.4636324 0.4979172 0.4977509 0.4979172 0.4977509 0.4880681 0.5318693 0.4683697 0.4636324 0.459136 0.8903108 0.4495944 0.8903108 0.4495943 0.1051908 0.4973019 0.8903108 0.4973021 0.1051908 0.5068438 0.1051911 0.4877606 0.8903108 0.4877607 0.1051908 0.4973021 0.1051908 0.478219 0.8903108 0.478219 0.1051905 0.4877607 0.1051908 0.4686771 0.4977509 0.473448 0.4812242 0.4829896 0.4812242 0.4829896 0.4812242 0.4877603 0.4977508 0.4686771 0.4977509 0.4877603 0.4977508 0.4829896 0.5142774 0.4686771 0.4977509 0.4686773 0.8903108 0.4686773 0.1051905 0.478219 0.1051905 0.4686773 0.8903108 0.459136 0.8903108 0.459136 0.1051908 0.473448 0.4812247 0.4829896 0.4812247 0.4877603 0.4977511 0.4877603 0.4977511 0.4829896 0.5142774 0.473448 0.4812247 0.4829896 0.5142774 0.473448 0.5142773 0.473448 0.4812247 0.4877604 0.890311 0.4877604 0.1051906 0.4973019 0.1051906 0.4782189 0.8903112 0.4782186 0.1051906 0.4877604 0.1051906 0.4782189 0.8903112 0.4686771 0.8903112 0.468677 0.1051906 0.4591358 0.890311 0.4591358 0.1051908 0.468677 0.1051906 0.4829895 0.4812242 0.4877605 0.4977508 0.4829899 0.5142773 0.4829899 0.5142773 0.473448 0.5142773 0.4829895 0.4812242 0.473448 0.5142773 0.4686771 0.4977509 0.4829895 0.4812242 0.4495941 0.890311 0.4495941 0.1051906 0.4591358 0.1051908 0.5068435 0.890311 0.4973017 0.8903112 0.4973019 0.1051906 0.473448 0.5142772 0.4686772 0.4977506 0.473448 0.4812244 0.473448 0.4812244 0.4829896 0.4812244 0.4877603 0.4977506 0.4877603 0.4977506 0.4829896 0.5142772 0.473448 0.4812244 0.5029519 0.08812034 0.4534861 0.08812034 0.4534861 0.03910481 0.4534861 0.08812034 0.4534861 0.9073819 0.4289783 0.9073819 0.4534861 0.9073819 0.5029519 0.9073819 0.5029519 0.9563975 0.5029519 0.9073819 0.5029519 0.08812034 0.5274598 0.08812034 0.4534861 0.08812034 0.5029519 0.08812034 0.5029519 0.9073819 0.4534861 0.9073817 0.5029516 0.9073817 0.5029516 0.9453069 0.5029516 0.9073817 0.5029515 0.08811998 0.5219145 0.08811998 0.5029515 0.08811998 0.4534861 0.08811998 0.4534861 0.05019456 0.4534861 0.08811998 0.4534861 0.9073817 0.4345234 0.9073817 0.5029516 0.9073817 0.4534861 0.9073817 0.4534861 0.08811998 0.5530613 0.1728728 0.5530613 0.8226295 0.5281136 0.8226295 0.5281136 0.1728728 0.5530613 0.1728728 0.5530613 0.8226293 0.5281136 0.1728728 0.5281136 0.8226295 0.5031663 0.8226295 0.5281136 0.1728728 0.5281136 0.8226295 0.5031663 0.8226295 0.5031663 0.1728728 0.5031663 0.8226295 0.4782189 0.8226295 0.5031663 0.1728728 0.5031663 0.8226295 0.4782189 0.8226295 0.4782189 0.1728728 0.4782189 0.8226295 0.4532715 0.8226295 0.4782189 0.1728728 0.4782189 0.8226295 0.4532715 0.8226295 0.4532715 0.1728728 0.4532715 0.8226295 0.4283242 0.8226295 0.4532715 0.1728728 0.4532715 0.8226295 0.4283242 0.8226295 0.4283241 0.1728728 0.4283242 0.8226295 0.4033765 0.8226295 0.4283241 0.1728728 0.4283242 0.8226295 0.4033765 0.8226295</float_array>
          <technique_common>
            <accessor source="#post-mesh-map-0-array" count="348" stride="2">
              <param name="S" type="float"/>
              <param name="T" type="float"/>
            </accessor>
          </technique_common>
        </source>
        <source id="post-mesh-map-1">
          <float_array id="post-mesh-map-1-array" count="696">0.9101923 0.6425156 0.9080681 0.697839 0.9080681 0.6425156 0.9144406 0.6425156 0.9101923 0.697839 0.9101923 0.6425156 0.9165647 0.6425156 0.9144406 0.697839 0.9144406 0.6425156 0.9211557 0.158773 0.9169158 0.2140965 0.9169158 0.158773 0.9235084 0.158773 0.9211557 0.2140965 0.9211557 0.158773 0.9192686 0.06966263 0.9235084 0.1249861 0.9192686 0.1249861 0.87606 0.006673276 0.8731549 0.06387883 0.8731549 0.005744397 0.1482491 0.1550753 0.1516035 0.08525723 0.1516035 0.1550753 0.8696831 0.8216679 0.8725882 0.7626046 0.8725881 0.820739 0.8667781 0.820739 0.8696831 0.7635335 0.8696831 0.8216679 0.261073 0.3159134 0.2629307 0.3159134 0.2638595 0.3188184 0.5740103 0.4440136 0.5706558 0.5138317 0.5706558 0.4440136 0.8731549 0.005744397 0.8702499 0.06480759 0.8702499 0.006673276 0.282376 0.006541132 0.282376 0.009895563 0.276566 0.009895563 0.7144125 0.6075641 0.712788 0.5425789 0.7144125 0.5425718 0.0720697 0.2198829 0.07290852 0.1545649 0.07290852 0.2195572 0.07044517 0.2198758 0.0720697 0.1548906 0.0720697 0.2198829 0.06965947 0.2195429 0.07044517 0.1548834 0.07044517 0.2198758 0.2592304 0.2776242 0.2592304 0.279249 0.2579551 0.2800614 0.5480826 0.8725882 0.5497074 0.8120024 0.5497074 0.8725882 0.7151982 0.6072313 0.7144125 0.5425718 0.7151982 0.5422388 0.3713685 0.006008565 0.3726437 0.006820976 0.3726437 0.008445799 0.8562905 0.0702539 0.8579151 0.005268752 0.857915 0.07026106 0.5986316 0.3919775 0.5994704 0.3273108 0.5994704 0.3923031 0.5986316 0.3919775 0.5970071 0.3269923 0.5986316 0.3269851 0.5962214 0.3923175 0.5970071 0.3269923 0.5970071 0.3919847 0.324038 0.05542665 0.324038 0.05705147 0.3227627 0.05786389 0.8674915 0.4848998 0.8691163 0.424314 0.8691163 0.4848998 0.8587007 0.07059395 0.8579151 0.005268752 0.8587008 0.005601584 0.2939488 0.3262299 0.2939488 0.3278548 0.2913982 0.3278548 0.08795315 0.2046812 0.08377975 0.2129393 0.08377975 0.2046812 0.5786394 0.6352391 0.5744659 0.7036255 0.5744659 0.6352391 0.2893197 0.2231849 0.2851462 0.2291412 0.2851462 0.2231849 0.9235084 0.4552487 0.919335 0.5045735 0.919335 0.4552487 0.8340753 0.764642 0.8424989 0.8343979 0.8340753 0.8343979 0.3008925 0.005616486 0.2976633 0.01157277 0.2976633 0.005616486 0.8563863 0.7625398 0.8531572 0.8309261 0.8531572 0.7625398 0.2606304 0.04629117 0.2638595 0.03803306 0.2638595 0.04629117 0.8841609 0.4575632 0.8809317 0.5068881 0.8809317 0.4575632 0.7530659 0.4186157 0.7614894 0.4883716 0.7530659 0.4883716 0.0370329 0.8704995 0.0327931 0.925823 0.0327931 0.8704995 0.9192686 0.2964892 0.9235084 0.3518127 0.9192686 0.3518127 0.1689627 0.06294488 0.16661 0.1182683 0.16661 0.06294488 0.1689627 0.1182683 0.16661 0.1735918 0.16661 0.1182683 0.16661 0.06294488 0.1623702 0.1182683 0.1623702 0.06294488 0.16661 0.1182683 0.1623702 0.1735918 0.1623702 0.1182683 0.9154075 0.8172647 0.9132834 0.8725881 0.9132834 0.8172647 0.9177221 0.5557197 0.915598 0.6110432 0.915598 0.5557197 0.9132834 0.8172647 0.9090351 0.8725881 0.9090351 0.8172647 0.915598 0.5557197 0.9113497 0.6110432 0.9113497 0.5557197 0.9090351 0.8172647 0.906911 0.8725881 0.906911 0.8172647 0.9113497 0.5557197 0.9092255 0.6110432 0.9092255 0.5557197 0.9101923 0.6425156 0.9101923 0.697839 0.9080681 0.697839 0.9144406 0.6425156 0.9144406 0.697839 0.9101923 0.697839 0.9165647 0.6425156 0.9165647 0.697839 0.9144406 0.697839 0.9211557 0.158773 0.9211557 0.2140965 0.9169158 0.2140965 0.9235084 0.158773 0.9235084 0.2140965 0.9211557 0.2140965 0.9192686 0.06966263 0.9235084 0.06966263 0.9235084 0.1249861 0.87606 0.006673276 0.87606 0.06480759 0.8731549 0.06387883 0.1482491 0.1550753 0.1482491 0.08525723 0.1516035 0.08525723 0.8696831 0.8216679 0.8696831 0.7635335 0.8725882 0.7626046 0.8667781 0.820739 0.8667781 0.7626046 0.8696831 0.7635335 0.2638595 0.3188184 0.2629307 0.3217235 0.261073 0.3159134 0.2629307 0.3217235 0.261073 0.3217235 0.261073 0.3159134 0.261073 0.3217235 0.2601442 0.3188184 0.261073 0.3159134 0.5740103 0.4440136 0.5740103 0.5138317 0.5706558 0.5138317 0.8731549 0.005744397 0.8731549 0.06387883 0.8702499 0.06480759 0.282376 0.009895563 0.279471 0.01157277 0.276566 0.009895563 0.276566 0.009895563 0.276566 0.006541132 0.279471 0.004863917 0.279471 0.004863917 0.282376 0.006541132 0.276566 0.009895563 0.7144125 0.6075641 0.712788 0.6075713 0.712788 0.5425789 0.0720697 0.2198829 0.0720697 0.1548906 0.07290852 0.1545649 0.07044517 0.2198758 0.07044517 0.1548834 0.0720697 0.1548906 0.06965947 0.2195429 0.06965947 0.1545506 0.07044517 0.1548834 0.2579551 0.2800614 0.2566798 0.279249 0.2566798 0.2776242 0.2566798 0.2776242 0.2579551 0.2768118 0.2579551 0.2800614 0.2579551 0.2768118 0.2592304 0.2776242 0.2579551 0.2800614 0.5480826 0.8725882 0.5480826 0.8120024 0.5497074 0.8120024 0.7151982 0.6072313 0.7144125 0.6075641 0.7144125 0.5425718 0.3726437 0.008445799 0.3713685 0.00925821 0.3700932 0.008445799 0.3700932 0.008445799 0.3700931 0.006820976 0.3726437 0.008445799 0.3700931 0.006820976 0.3713685 0.006008565 0.3726437 0.008445799 0.8562905 0.0702539 0.8562905 0.00526154 0.8579151 0.005268752 0.5986316 0.3919775 0.5986316 0.3269851 0.5994704 0.3273108 0.5986316 0.3919775 0.5970071 0.3919847 0.5970071 0.3269923 0.5962214 0.3923175 0.5962213 0.3273252 0.5970071 0.3269923 0.3227627 0.05786389 0.3214874 0.05705147 0.3214874 0.05542665 0.3214874 0.05542665 0.3227627 0.05461424 0.3227627 0.05786389 0.3227627 0.05461424 0.324038 0.05542665 0.3227627 0.05786389 0.8674915 0.4848998 0.8674915 0.424314 0.8691163 0.424314 0.8587007 0.07059395 0.857915 0.07026106 0.8579151 0.005268752 0.2939488 0.3278548 0.2926735 0.3286671 0.2913982 0.3278548 0.2913982 0.3278548 0.2913982 0.3262299 0.2926735 0.3254175 0.2926735 0.3254175 0.2939488 0.3262299 0.2913982 0.3278548 0.08795315 0.2046812 0.08795315 0.2129393 0.08377975 0.2129393 0.5786394 0.6352391 0.5786394 0.7036255 0.5744659 0.7036255 0.2893197 0.2231849 0.2893197 0.2291412 0.2851462 0.2291412 0.9235084 0.4552487 0.9235084 0.5045735 0.919335 0.5045735 0.8340753 0.764642 0.8424989 0.764642 0.8424989 0.8343979 0.3008925 0.005616486 0.3008925 0.01157277 0.2976633 0.01157277 0.8563863 0.7625398 0.8563863 0.8309261 0.8531572 0.8309261 0.2606304 0.04629117 0.2606304 0.03803306 0.2638595 0.03803306 0.8841609 0.4575632 0.8841609 0.5068881 0.8809317 0.5068881 0.7530659 0.4186157 0.7614894 0.4186157 0.7614894 0.4883716 0.0370329 0.8704995 0.0370329 0.925823 0.0327931 0.925823 0.9192686 0.2964892 0.9235084 0.2964892 0.9235084 0.3518127 0.1689627 0.06294488 0.1689627 0.1182683 0.16661 0.1182683 0.1689627 0.1182683 0.1689627 0.1735918 0.16661 0.1735918 0.16661 0.06294488 0.16661 0.1182683 0.1623702 0.1182683 0.16661 0.1182683 0.16661 0.1735918 0.1623702 0.1735918 0.9154075 0.8172647 0.9154075 0.8725881 0.9132834 0.8725881 0.9177221 0.5557197 0.9177221 0.6110432 0.915598 0.6110432 0.9132834 0.8172647 0.9132834 0.8725881 0.9090351 0.8725881 0.915598 0.5557197 0.915598 0.6110432 0.9113497 0.6110432 0.9090351 0.8172647 0.9090351 0.8725881 0.906911 0.8725881 0.9113497 0.5557197 0.9113497 0.6110432 0.9092255 0.6110432</float_array>
          <technique_common>
            <accessor source="#post-mesh-map-1-array" count="348" stride="2">
              <param name="S" type="float"/>
              <param name="T" type="float"/>
            </accessor>
          </technique_common>
        </source>
        <vertices id="post-mesh-vertices">
          <input semantic="POSITION" source="#post-mesh-positions"/>
        </vertices>
        <triangles material="Bronze-material" count="116">
          <input semantic="VERTEX" source="#post-mesh-vertices" offset="0"/>
          <input semantic="NORMAL" source="#post-mesh-normals" offset="1"/>
          <input semantic="TEXCOORD" source="#post-mesh-map-0" offset="2" set="0"/>
          <input semantic="TEXCOORD" source="#post-mesh-map-1" offset="2" set="1"/>
          <p>66 0 0 1 1 1 65 2 2 68 3 3 3 4 4 66 0 5 70 5 6 5 6 7 68 3 8 72 7 9 7 8 10 70 5 11 74 9 12 9 10 13 72 7 14 74 9 15 1 1 16 11 9 17 14 11 18 13 12 19 12 13 20 16 14 21 15 15 22 14 11 23 18 16 24 17 17 25 16 14 26 20 18 27 19 19 28 18 16 29 21 20 30 23 21 31 13 12 32 22 22 33 21 20 34 20 18 35 12 13 36 23 21 37 22 22 38 16 14 39 14 11 40 22 22 41 24 23 42 27 24 43 25 25 44 28 26 45 27 24 46 26 27 47 30 28 48 29 29 49 28 26 50 32 30 51 31 31 52 30 28 53 33 32 54 35 33 55 25 25 56 34 34 57 33 32 58 32 30 59 34 34 60 25 25 61 35 33 62 30 28 63 28 26 64 26 27 65 38 35 66 37 36 67 36 37 68 40 38 69 39 39 70 38 35 71 40 38 72 43 40 73 41 41 74 44 42 75 43 40 76 42 43 77 45 44 78 47 45 79 37 36 80 46 46 81 45 44 82 44 42 83 46 46 84 37 36 85 47 45 86 40 38 87 38 35 88 46 46 89 49 47 90 50 48 91 48 49 92 51 50 93 54 51 94 50 48 95 55 52 96 52 53 97 54 51 98 53 54 99 48 49 100 52 53 101 51 50 102 53 54 103 55 52 104 57 55 105 58 56 106 56 57 107 59 58 108 62 59 109 58 56 110 63 60 111 60 61 112 62 59 113 61 62 114 56 57 115 60 61 116 59 58 117 61 62 118 63 60 119 0 63 120 75 64 121 10 65 122 75 64 123 65 2 124 74 9 125 10 65 126 73 66 127 8 67 128 75 64 129 72 7 130 73 66 131 8 67 132 71 68 133 6 69 134 73 66 135 70 5 136 71 68 137 6 69 138 69 70 139 4 71 140 71 68 141 68 3 142 69 70 143 4 71 144 67 72 145 2 73 146 69 70 147 66 0 148 67 72 149 2 73 150 64 74 151 0 63 152 67 72 153 65 2 154 64 74 155 66 0 156 3 4 157 1 1 158 68 3 159 5 6 160 3 4 161 70 5 162 7 8 163 5 6 164 72 7 165 9 10 166 7 8 167 74 9 168 11 9 169 9 10 170 74 9 171 65 2 172 1 1 173 14 11 174 15 15 175 13 12 176 16 14 177 17 17 178 15 15 179 18 16 180 19 19 181 17 17 182 20 18 183 21 20 184 19 19 185 13 12 186 15 15 187 21 20 188 15 15 189 17 17 190 21 20 191 17 17 192 19 19 193 21 20 194 22 22 195 23 21 196 21 20 197 12 13 198 13 12 199 23 21 200 14 11 201 12 13 202 22 22 203 22 22 204 20 18 205 18 16 206 18 16 207 16 14 208 22 22 209 24 23 210 26 27 211 27 24 212 28 26 213 29 29 214 27 24 215 30 28 216 31 31 217 29 29 218 32 30 219 33 32 220 31 31 221 25 25 222 27 24 223 29 29 224 29 29 225 31 31 226 25 25 227 31 31 228 33 32 229 25 25 230 34 34 231 35 33 232 33 32 233 34 34 234 24 23 235 25 25 236 26 27 237 24 23 238 34 34 239 34 34 240 32 30 241 26 27 242 32 30 243 30 28 244 26 27 245 38 35 246 39 39 247 37 36 248 40 38 249 41 41 250 39 39 251 40 38 252 42 43 253 43 40 254 44 42 255 45 44 256 43 40 257 37 36 258 39 39 259 41 41 260 41 41 261 43 40 262 37 36 263 43 40 264 45 44 265 37 36 266 46 46 267 47 45 268 45 44 269 46 46 270 36 37 271 37 36 272 38 35 273 36 37 274 46 46 275 46 46 276 44 42 277 42 43 278 42 43 279 40 38 280 46 46 281 49 47 282 51 50 283 50 48 284 51 50 285 55 52 286 54 51 287 55 52 288 53 54 289 52 53 290 53 54 291 49 47 292 48 49 293 51 50 294 49 47 295 53 54 296 57 55 297 59 58 298 58 56 299 59 58 300 63 60 301 62 59 302 63 60 303 61 62 304 60 61 305 61 62 306 57 55 307 56 57 308 59 58 309 57 55 310 61 62 311 0 63 312 64 74 313 75 64 314 75 64 315 64 74 316 65 2 317 10 65 318 75 64 319 73 66 320 75 64 321 74 9 322 72 7 323 8 67 324 73 66 325 71 68 326 73 66 327 72 7 328 70 5 329 6 69 330 71 68 331 69 70 332 71 68 333 70 5 334 68 3 335 4 71 336 69 70 337 67 72 338 69 70 339 68 3 340 66 0 341 2 73 342 67 72 343 64 74 344 67 72 345 66 0 346 65 2 347</p>
        </triangles>
      </mesh>
    </geometry>
  </library_geometries>
  <library_visual_scenes>
    <visual_scene id="Scene" name="Scene">
      <node id="post" name="post" type="NODE">
        <matrix sid="transform">1 0 0 0 0 1 0 0 0 0 1 0.009226799 0 0 0 1</matrix>
        <instance_geometry url="#post-mesh" name="post">
          <bind_material>
            <technique_common>
              <instance_material symbol="Bronze-material" target="#Bronze-material">
                <bind_vertex_input semantic="UVMap" input_semantic="TEXCOORD" input_set="0"/>
                <bind_vertex_input semantic="ao_map" input_semantic="TEXCOORD" input_set="1"/>
              </instance_material>
            </technique_common>
          </bind_material>
        </instance_geometry>
        <node id="prop_armor" name="prop_armor" type="NODE">
          <matrix sid="transform">1 0 0 0 0 0.999366 -0.03560188 0.02073231 0 0.03560188 0.999366 2.210789 0 0 0 1</matrix>
        </node>
        <node id="prop_helmet" name="prop_helmet" type="NODE">
          <matrix sid="transform">0.9963045 -0.0839002 0.01839118 0 0.08506259 0.993486 -0.07582761 0 -0.01190943 0.07711179 0.9969513 3.423475 0 0 0 1</matrix>
        </node>
        <node id="prop_sheath" name="prop_sheath" type="NODE">
          <matrix sid="transform">0.950466 0.3093245 -0.03054141 0.417516 -0.2373549 0.6588406 -0.7138569 -0.06773722 -0.2006915 0.6857459 0.6996252 2.175401 0 0 0 1</matrix>
        </node>
        <node id="prop_shield" name="prop_shield" type="NODE">
          <matrix sid="transform">0.6871536 0.7261156 0.02400225 -0.5706552 -0.7265061 0.6866383 0.02677034 -0.4972082 0.002957493 -0.03583312 0.9993534 1.104209 0 0 0 1</matrix>
        </node>
        <node id="prop_spear" name="prop_spear" type="NODE">
          <matrix sid="transform">0.1183126 0.130651 0.9843436 0.6370537 0.02346285 0.9906616 -0.1343097 -0.1708123 -0.9926991 0.03898604 0.1141423 2.801567 0 0 0 1</matrix>
        </node>
        <node id="prop_apron" name="prop_apron" type="NODE">
          <matrix sid="transform">0.7799241 0.6251601 0.02988807 -0.6180534 -0.6258742 0.7790343 0.0372446 -0.5896607 0 -0.04775413 0.9988591 0.7395394 0 0 0 1</matrix>
        </node>
      </node>
    </visual_scene>
  </library_visual_scenes>
  <scene>
    <instance_visual_scene url="#Scene"/>
  </scene>
</COLLADA>