<?xml version="1.0" encoding="utf-8"?>
<COLLADA xmlns="http://www.collada.org/2005/11/COLLADASchema" version="1.4.1" xmlns:xsi="http://www.w3.org/2001/XMLSchema-instance">
  <asset>
    <contributor>
      <author>Blender User</author>
      <authoring_tool>Blender 4.5.7 LTS commit date:2026-02-16, commit time:13:34, hash:a9874eeece8d</authoring_tool>
    </contributor>
    <created>2026-08-23T23:55:45</created>
    <modified>2026-08-23T23:55:45</modified>
    <unit name="meter" meter="1"/>
    <up_axis>Z_UP</up_axis>
  </asset>
  <library_effects>
    <effect id="hele_tile_c-effect">
      <profile_COMMON>
        <newparam sid="hele_tile_c_dds-surface">
          <surface type="2D">
            <init_from>hele_tile_c_dds</init_from>
          </surface>
        </newparam>
        <newparam sid="hele_tile_c_dds-sampler">
          <sampler2D>
            <source>hele_tile_c_dds-surface</source>
          </sampler2D>
        </newparam>
        <technique sid="common">
          <lambert>
            <emission>
              <color sid="emission">0 0 0 1</color>
            </emission>
            <diffuse>
              <texture texture="hele_tile_c_dds-sampler" texcoord="ao_map"/>
            </diffuse>
            <index_of_refraction>
              <float sid="ior">1.45</float>
            </index_of_refraction>
          </lambert>
        </technique>
      </profile_COMMON>
    </effect>
  </library_effects>
  <library_images>
    <image id="hele_tile_c_dds" name="hele_tile_c_dds">
      <init_from>hele_tile_c.dds</init_from>
    </image>
  </library_images>
  <library_materials>
    <material id="hele_tile_c-material" name="hele_tile_c">
      <instance_effect url="#hele_tile_c-effect"/>
    </material>
  </library_materials>
  <library_geometries>
    <geometry id="hele_tile_c-mesh" name="hele_tile_c">
      <mesh>
        <source id="hele_tile_c-mesh-positions">
          <float_array id="hele_tile_c-mesh-positions-array" count="240">2.51457e-7 3.6 0.08911353 0 3.6 0.4160985 1.37766 3.325966 0.08911353 1.37766 3.325966 0.4160985 2.545584 2.545584 0.08911353 2.545584 2.545584 0.4160985 3.325966 1.37766 0.08911353 3.325966 1.37766 0.4160985 3.6 2.01166e-7 0.08911353 3.6 0 0.4160985 3.325966 -1.37766 0.08911353 3.325966 -1.37766 0.4160985 2.545584 -2.545584 0.08911353 2.545584 -2.545584 0.4160985 1.37766 -3.325966 0.08911353 1.37766 -3.325966 0.4160985 2.51457e-7 -3.6 0.08911353 0 -3.6 0.4160985 -1.37766 -3.325966 0.08911353 -1.37766 -3.325966 0.4160985 -2.545584 -2.545584 0.08911353 -2.545584 -2.545584 0.4160985 -3.325966 -1.37766 0.08911353 -3.325966 -1.37766 0.4160985 -3.6 2.01166e-7 0.08911353 -3.6 0 0.4160985 -3.325966 1.37766 0.08911353 -3.325966 1.37766 0.4160985 -2.545584 2.545584 0.08911353 -2.545584 2.545584 0.4160985 -1.37766 3.325966 0.08911353 -1.37766 3.325966 0.4160985 1.309811 3.162163 0.4160985 0 3.422701 0.4160985 2.420215 2.420215 0.4160985 3.162163 1.309811 0.4160985 3.422701 0 0.4160985 3.162163 -1.309811 0.4160985 2.420215 -2.420215 0.4160985 1.309811 -3.162163 0.4160985 0 -3.422701 0.4160985 -1.309811 -3.162163 0.4160985 -2.420215 -2.420215 0.4160985 -3.162163 -1.309811 0.4160985 -3.422701 0 0.4160985 -3.162163 1.309811 0.4160985 -2.420215 2.420215 0.4160985 -1.309811 3.162163 0.4160985 1.309811 3.162163 0.9391655 0 3.422701 0.9391655 2.420215 2.420215 0.9391655 3.162163 1.309811 0.9391655 3.422701 0 0.9391655 3.162163 -1.309811 0.9391655 2.420215 -2.420215 0.9391655 1.309811 -3.162163 0.9391655 0 -3.422701 0.9391655 -1.309811 -3.162163 0.9391655 -2.420215 -2.420215 0.9391655 -3.162163 -1.309811 0.9391655 -3.422701 0 0.9391655 -3.162163 1.309811 0.9391655 -2.420215 2.420215 0.9391655 -1.309811 3.162163 0.9391655 1.123939 2.713428 0.9391655 0 2.936994 0.9391655 2.076768 2.076768 0.9391655 2.713428 1.123939 0.9391655 2.936994 0 0.9391655 2.713428 -1.123939 0.9391655 2.076768 -2.076768 0.9391655 1.123939 -2.713428 0.9391655 0 -2.936994 0.9391655 -1.123939 -2.713428 0.9391655 -2.076768 -2.076768 0.9391655 -2.713428 -1.123939 0.9391655 -2.936994 0 0.9391655 -2.713428 1.123939 0.9391655 -2.076768 2.076768 0.9391655 -1.123939 2.713428 0.9391655</float_array>
          <technique_common>
            <accessor source="#hele_tile_c-mesh-positions-array" count="80" stride="3">
              <param name="X" type="float"/>
              <param name="Y" type="float"/>
              <param name="Z" type="float"/>
            </accessor>
          </technique_common>
        </source>
        <source id="hele_tile_c-mesh-normals">
          <float_array id="hele_tile_c-mesh-normals-array" count="384">0.1950904 0.9807853 0 0.5555703 0.8314695 0 0.8314695 0.5555703 0 0.9807853 0.1950904 0 0.9807853 -0.1950903 -1.29773e-7 0.8314695 -0.5555703 0 0.5555703 -0.8314695 0 0.1950904 -0.9807853 0 -0.1950903 -0.9807853 -1.29773e-7 -0.5555703 -0.8314695 0 -0.8314695 -0.5555703 0 -0.9807853 -0.1950903 -1.20022e-7 -0.9807853 0.1950904 0 -0.8314695 0.5555703 0 0 0 1 -0.5555703 0.8314695 0 -0.1950903 0.9807853 -1.50028e-7 -0.5555702 -0.8314697 0 0 0 1 0 0 1 0 0 1 0 0 1 0 0 1 0 0 1 0 0 1 0 0 1 0 0 1 0 0 1 0 0 1 0 0 1 0 0 1 0 0 1 0 0 1 0 0 1 0.8314697 0.5555702 0 -0.8314697 -0.5555702 0 0.9807853 0.1950905 0 -0.9807853 -0.1950905 0 0.9807853 -0.1950905 0 -0.9807853 0.1950905 0 0.8314697 -0.5555702 0 -0.8314697 0.5555702 0 0.5555702 -0.8314697 0 -0.5555702 0.8314697 0 0.1950905 -0.9807853 0 0.1950905 0.9807853 0 -0.1950905 0.9807853 0 -0.1950905 -0.9807853 0 0.5555702 0.8314697 0 0 0 1 0 0 1 0 0 1 0 0 1 0 0 1 0 0 1 0 0 1 0 0 1 0 0 1 0 0 1 0 0 1 0 0 1 0 0 1 0 0 1 0 0 1 0.1950904 0.9807853 1.50028e-7 0.5555703 0.8314695 0 0.8314695 0.5555703 0 0.9807853 0.1950904 1.20022e-7 0.9807853 -0.1950904 0 0.8314695 -0.5555703 0 0.5555703 -0.8314695 0 0.1950904 -0.9807853 1.50028e-7 -0.1950904 -0.9807853 0 -0.5555703 -0.8314695 0 -0.8314695 -0.5555703 0 -0.9807853 -0.1950904 0 -0.9807853 0.1950904 1.20022e-7 -0.8314695 0.5555703 0 0 0 1 -0.5555703 0.8314695 0 -0.1950904 0.9807853 0 -0.5555702 -0.8314697 0 0 0 1 0 0 1 0 0 1 0 0 1 0 0 1 0 0 1 0 0 1 0 0 1 0 0 1 0 0 1 0 0 1 0 0 1 0 0 1 0 0 1 0 0 1 0 0 1 0.8314697 0.5555702 0 -0.8314697 -0.5555702 0 0.9807853 0.1950905 0 -0.9807853 -0.1950905 0 0.9807853 -0.1950905 0 -0.9807853 0.1950905 0 0.8314697 -0.5555702 0 -0.8314697 0.5555702 0 0.5555702 -0.8314697 0 -0.5555702 0.8314697 0 0.1950905 -0.9807853 0 0.1950905 0.9807853 0 -0.1950905 0.9807853 0 -0.1950905 -0.9807853 0 0.5555702 0.8314697 0 0 0 1 0 0 1 0 0 1 0 0 1 0 0 1 0 0 1 0 0 1 0 0 1 0 0 1 0 0 1 0 0 1 0 0 1 0 0 1 0 0 1 0 0 1</float_array>
          <technique_common>
            <accessor source="#hele_tile_c-mesh-normals-array" count="128" stride="3">
              <param name="X" type="float"/>
              <param name="Y" type="float"/>
              <param name="Z" type="float"/>
            </accessor>
          </technique_common>
        </source>
        <source id="hele_tile_c-mesh-map-0">
          <float_array id="hele_tile_c-mesh-map-0-array" count="768">0.9411419 0.4098519 0.7288866 0.5188397 0.7288866 0.4098519 0.7288866 0.5188397 0.5166312 0.4098521 0.7288866 0.4098519 0.5166312 0.5188397 0.3043758 0.4098521 0.5166312 0.4098521 0.3043758 0.5188397 0.0921204 0.4098521 0.3043758 0.4098521 0.906561 0.5197386 0.711596 0.4114352 0.906561 0.4114352 0.711596 0.5197386 0.5166312 0.4114354 0.711596 0.4114352 0.5166312 0.5197387 0.3216663 0.4114354 0.5166312 0.4114354 0.3216663 0.5197387 0.1267013 0.4114354 0.3216663 0.4114354 0.9488707 0.5207307 0.7327509 0.4131824 0.9488707 0.4131824 0.7327509 0.5207307 0.5166312 0.4131824 0.7327509 0.4131824 0.5166312 0.5207307 0.3005114 0.4131826 0.5166312 0.4131824 0.3005114 0.4131826 0.08439159 0.5207307 0.08439159 0.4131824 0.9479848 0.4011759 0.732308 0.5139136 0.732308 0.4011759 0.732308 0.5139136 0.5166312 0.401176 0.732308 0.4011759 0.5166312 0.5207307 0.3005114 0.579046 0.3005114 0.5207308 0.5166312 0.5139136 0.3009544 0.401176 0.5166312 0.401176 0.3009544 0.401176 0.08527749 0.5139137 0.08527749 0.401176 0.7327509 0.579046 0.5166312 0.7510873 0.5166312 0.5790461 0.3009544 0.5139137 0.08527749 0.5750429 0.08527749 0.5139137 0.3043758 0.5188397 0.0921204 0.5779354 0.0921204 0.5188397 0.9488707 0.5207307 0.7327509 0.579046 0.7327509 0.5207307 0.732308 0.5139136 0.5166312 0.5750429 0.5166312 0.5139136 0.7288866 0.5188397 0.5166312 0.5779356 0.5166312 0.5188397 0.5166312 0.5197387 0.3216663 0.5784634 0.3216663 0.5197387 0.3005114 0.5207308 0.08439159 0.5790459 0.08439159 0.5207307 0.906561 0.5197386 0.711596 0.5784634 0.711596 0.5197386 0.7327509 0.5207307 0.5166312 0.5790461 0.5166312 0.5207307 0.5166312 0.5139136 0.3009544 0.5750429 0.3009544 0.5139137 0.5166312 0.5188397 0.3043758 0.5779355 0.3043758 0.5188397 0.3216663 0.5197387 0.1267013 0.5784634 0.1267013 0.5197387 0.9479848 0.5139136 0.732308 0.5750426 0.732308 0.5139136 0.9411419 0.5188397 0.7288866 0.5779355 0.7288866 0.5188397 0.711596 0.5197386 0.5166312 0.5784634 0.5166312 0.5197387 0.5166312 0.7553853 0.3009544 0.9228472 0.3009544 0.7553853 0.5166312 0.5779356 0.3043758 0.7522796 0.3043758 0.5779355 0.5166312 0.5790461 0.3005114 0.7510873 0.3005114 0.579046 0.3043758 0.5779355 0.0921204 0.7522796 0.0921204 0.5779354 0.3005114 0.579046 0.08439159 0.7510873 0.08439159 0.5790459 0.906561 0.5784633 0.711596 0.7517126 0.711596 0.5784634 0.9479848 0.5750424 0.732308 0.7553852 0.732308 0.5750426 0.711596 0.5784634 0.5166312 0.7517127 0.5166312 0.5784634 0.732308 0.5750426 0.5166312 0.7553853 0.5166312 0.5750429 0.5166312 0.5784634 0.3216663 0.7517127 0.3216663 0.5784634 0.5166312 0.5750429 0.3009544 0.7553853 0.3009544 0.5750429 0.3216663 0.5784634 0.1267013 0.7517127 0.1267013 0.5784634 0.9411419 0.5779354 0.7288866 0.7522795 0.7288866 0.5779355 0.3009544 0.5750429 0.08527749 0.7553853 0.08527749 0.5750429 0.9488707 0.5790459 0.7327509 0.7510873 0.7327509 0.579046 0.7288866 0.5779355 0.5166312 0.7522796 0.5166312 0.5779356 0.3216663 0.7517127 0.1267013 0.9125878 0.1267013 0.7517127 0.7288866 0.7522795 0.9411419 0.914171 0.7288866 0.914171 0.3009544 0.7553853 0.08527737 0.922847 0.08527749 0.7553853 0.7327509 0.7510873 0.9488707 0.9108405 0.7327509 0.9108405 0.7288866 0.7522795 0.5166312 0.9141711 0.5166312 0.7522796 0.7327509 0.7510873 0.5166312 0.9108406 0.5166312 0.7510873 0.3043758 0.7522796 0.5166312 0.9141711 0.3043758 0.9141712 0.3005114 0.7510873 0.5166312 0.9108406 0.3005114 0.9108406 0.3043758 0.7522796 0.0921204 0.9141712 0.0921204 0.7522796 0.3005114 0.7510873 0.08439159 0.9108406 0.08439159 0.7510873 0.711596 0.7517126 0.906561 0.9125877 0.711596 0.9125877 0.732308 0.7553852 0.9479848 0.922847 0.732308 0.922847 0.711596 0.7517126 0.5166312 0.9125878 0.5166312 0.7517127 0.732308 0.7553852 0.5166312 0.922847 0.5166312 0.7553853 0.3216663 0.7517127 0.5166312 0.9125878 0.3216663 0.9125878 0.9411419 0.4098519 0.9411419 0.5188397 0.7288866 0.5188397 0.7288866 0.5188397 0.5166312 0.5188397 0.5166312 0.4098521 0.5166312 0.5188397 0.3043758 0.5188397 0.3043758 0.4098521 0.3043758 0.5188397 0.0921204 0.5188397 0.0921204 0.4098521 0.906561 0.5197386 0.711596 0.5197386 0.711596 0.4114352 0.711596 0.5197386 0.5166312 0.5197387 0.5166312 0.4114354 0.5166312 0.5197387 0.3216663 0.5197387 0.3216663 0.4114354 0.3216663 0.5197387 0.1267013 0.5197387 0.1267013 0.4114354 0.9488707 0.5207307 0.7327509 0.5207307 0.7327509 0.4131824 0.7327509 0.5207307 0.5166312 0.5207307 0.5166312 0.4131824 0.5166312 0.5207307 0.3005114 0.5207308 0.3005114 0.4131826 0.3005114 0.4131826 0.3005114 0.5207308 0.08439159 0.5207307 0.9479848 0.4011759 0.9479848 0.5139136 0.732308 0.5139136 0.732308 0.5139136 0.5166312 0.5139136 0.5166312 0.401176 0.5166312 0.5207307 0.5166312 0.5790461 0.3005114 0.579046 0.5166312 0.5139136 0.3009544 0.5139137 0.3009544 0.401176 0.3009544 0.401176 0.3009544 0.5139137 0.08527749 0.5139137 0.7327509 0.579046 0.7327509 0.7510873 0.5166312 0.7510873 0.3009544 0.5139137 0.3009544 0.5750429 0.08527749 0.5750429 0.3043758 0.5188397 0.3043758 0.5779355 0.0921204 0.5779354 0.9488707 0.5207307 0.9488707 0.5790459 0.7327509 0.579046 0.732308 0.5139136 0.732308 0.5750426 0.5166312 0.5750429 0.7288866 0.5188397 0.7288866 0.5779355 0.5166312 0.5779356 0.5166312 0.5197387 0.5166312 0.5784634 0.3216663 0.5784634 0.3005114 0.5207308 0.3005114 0.579046 0.08439159 0.5790459 0.906561 0.5197386 0.906561 0.5784633 0.711596 0.5784634 0.7327509 0.5207307 0.7327509 0.579046 0.5166312 0.5790461 0.5166312 0.5139136 0.5166312 0.5750429 0.3009544 0.5750429 0.5166312 0.5188397 0.5166312 0.5779356 0.3043758 0.5779355 0.3216663 0.5197387 0.3216663 0.5784634 0.1267013 0.5784634 0.9479848 0.5139136 0.9479848 0.5750424 0.732308 0.5750426 0.9411419 0.5188397 0.9411419 0.5779354 0.7288866 0.5779355 0.711596 0.5197386 0.711596 0.5784634 0.5166312 0.5784634 0.5166312 0.7553853 0.5166312 0.922847 0.3009544 0.9228472 0.5166312 0.5779356 0.5166312 0.7522796 0.3043758 0.7522796 0.5166312 0.5790461 0.5166312 0.7510873 0.3005114 0.7510873 0.3043758 0.5779355 0.3043758 0.7522796 0.0921204 0.7522796 0.3005114 0.579046 0.3005114 0.7510873 0.08439159 0.7510873 0.906561 0.5784633 0.906561 0.7517125 0.711596 0.7517126 0.9479848 0.5750424 0.9479848 0.7553853 0.732308 0.7553852 0.711596 0.5784634 0.711596 0.7517126 0.5166312 0.7517127 0.732308 0.5750426 0.732308 0.7553852 0.5166312 0.7553853 0.5166312 0.5784634 0.5166312 0.7517127 0.3216663 0.7517127 0.5166312 0.5750429 0.5166312 0.7553853 0.3009544 0.7553853 0.3216663 0.5784634 0.3216663 0.7517127 0.1267013 0.7517127 0.9411419 0.5779354 0.9411419 0.7522794 0.7288866 0.7522795 0.3009544 0.5750429 0.3009544 0.7553853 0.08527749 0.7553853 0.9488707 0.5790459 0.9488707 0.7510871 0.7327509 0.7510873 0.7288866 0.5779355 0.7288866 0.7522795 0.5166312 0.7522796 0.3216663 0.7517127 0.3216663 0.9125878 0.1267013 0.9125878 0.7288866 0.7522795 0.9411419 0.7522794 0.9411419 0.914171 0.3009544 0.7553853 0.3009544 0.9228472 0.08527737 0.922847 0.7327509 0.7510873 0.9488707 0.7510871 0.9488707 0.9108405 0.7288866 0.7522795 0.7288866 0.914171 0.5166312 0.9141711 0.7327509 0.7510873 0.7327509 0.9108405 0.5166312 0.9108406 0.3043758 0.7522796 0.5166312 0.7522796 0.5166312 0.9141711 0.3005114 0.7510873 0.5166312 0.7510873 0.5166312 0.9108406 0.3043758 0.7522796 0.3043758 0.9141712 0.0921204 0.9141712 0.3005114 0.7510873 0.3005114 0.9108406 0.08439159 0.9108406 0.711596 0.7517126 0.906561 0.7517125 0.906561 0.9125877 0.732308 0.7553852 0.9479848 0.7553853 0.9479848 0.922847 0.711596 0.7517126 0.711596 0.9125877 0.5166312 0.9125878 0.732308 0.7553852 0.732308 0.922847 0.5166312 0.922847 0.3216663 0.7517127 0.5166312 0.7517127 0.5166312 0.9125878</float_array>
          <technique_common>
            <accessor source="#hele_tile_c-mesh-map-0-array" count="384" stride="2">
              <param name="S" type="float"/>
              <param name="T" type="float"/>
            </accessor>
          </technique_common>
        </source>
        <source id="hele_tile_c-mesh-map-1">
          <float_array id="hele_tile_c-mesh-map-1-array" count="768">0.4802488 0.5638562 0.4160816 0.5787935 0.4160816 0.5638562 0.4160816 0.5787935 0.3567988 0.5638562 0.4160816 0.5638562 0.3567988 0.5787935 0.3114257 0.5638562 0.3567988 0.5638562 0.8906748 0.8232837 0.9056121 0.7640009 0.9056121 0.8232837 0.5825356 0.6037414 0.5183684 0.5888041 0.5825356 0.5888041 0.5183684 0.6037414 0.4590856 0.5888041 0.5183684 0.5888041 0.4590856 0.6037414 0.4137125 0.5888041 0.4590856 0.5888041 0.8906747 0.9068595 0.9056121 0.8475767 0.9056121 0.9068595 0.591299 0.5139286 0.6062363 0.4497614 0.6062363 0.5139286 0.591299 0.4497614 0.6062363 0.3904786 0.6062363 0.4497614 0.591299 0.3904786 0.6062363 0.3451055 0.6062363 0.3904786 0.9106018 0.4790014 0.8956645 0.4197186 0.9106018 0.4197186 0.384199 0.591299 0.3200318 0.6062363 0.3200318 0.591299 0.3200318 0.6062363 0.2607491 0.591299 0.3200318 0.591299 0.121966 0.3056129 0.1818007 0.2856116 0.1849002 0.2930945 0.2607491 0.6062363 0.2153759 0.591299 0.2607491 0.591299 0.8345103 0.9193335 0.8195731 0.8600507 0.8345103 0.8600507 0.1347191 0.72236 0.1108244 0.6659969 0.1347191 0.6659969 0.2843627 0.06402128 0.2429862 0.01639533 0.2487133 0.01066821 0.2581673 0.06526863 0.2167907 0.01764267 0.2225179 0.0119155 0.005678594 0.2574452 0.06213116 0.2856116 0.05903166 0.2930945 0.2843627 0.1898898 0.2887818 0.1269556 0.2968811 0.1269555 0.2581673 0.1911371 0.2625863 0.1282029 0.2706857 0.1282029 0.2444903 0.1294503 0.224489 0.06961554 0.2319719 0.06651604 0.1849002 0.2930945 0.2325262 0.2517179 0.2382533 0.2574451 0.1963225 0.2457377 0.224489 0.189285 0.2319719 0.1923846 0.05903166 0.2930945 0.121966 0.2975136 0.121966 0.3056129 0.2968811 0.1269555 0.2768799 0.06712079 0.2843627 0.06402128 0.2706857 0.1282029 0.2506844 0.06836813 0.2581673 0.06526863 0.2319719 0.06651604 0.1905954 0.01889002 0.1963225 0.01316291 0.2487133 0.2432429 0.2768799 0.1867904 0.2843627 0.1898898 0.2225179 0.2444903 0.2506844 0.1880376 0.2581673 0.1911371 0.2319719 0.1923846 0.2363909 0.1294503 0.2444903 0.1294503 0.1214561 0.3492719 0.1727998 0.3168709 0.1812908 0.33737 0.2382533 0.8157994 0.2143586 0.7726609 0.2382533 0.7726609 0.8357577 0.5999992 0.811863 0.5568608 0.8357577 0.5568608 0.2382533 0.7726609 0.2143586 0.7162978 0.2382533 0.7162978 0.8357577 0.5568608 0.811863 0.5004976 0.8357577 0.5004976 0.3617458 0.820789 0.3378511 0.759782 0.3617458 0.759782 0.8008306 0.5638247 0.7769358 0.5028176 0.8008306 0.5028176 0.3617458 0.759782 0.3378511 0.7034189 0.3617458 0.7034189 0.8008306 0.5028176 0.7769358 0.4464545 0.8008306 0.4464545 0.8008305 0.6748432 0.7769358 0.6317047 0.8008306 0.6317047 0.1995838 0.8182942 0.1756891 0.7751557 0.1995839 0.7751557 0.8008306 0.6317047 0.7769358 0.5753416 0.8008306 0.5753416 0.8182942 0.2619538 0.7943995 0.2009468 0.8182942 0.2009468 0.1995839 0.7751557 0.1756892 0.7187926 0.1995839 0.7187926 0.1347191 0.783367 0.1108244 0.72236 0.1347191 0.72236 0.8182942 0.2009468 0.7943995 0.1445837 0.8182942 0.1445837 0.328379 0.328484 0.3779621 0.3635202 0.3622727 0.3792095 0.3286382 0.1862804 0.2790552 0.2213165 0.3081391 0.1777894 0.1812908 0.33737 0.216327 0.287787 0.2320163 0.3034763 0.06411617 0.3797817 0.02908003 0.3301986 0.07260715 0.3592826 0.3286382 0.1862804 0.3183521 0.1264457 0.3405401 0.1264457 0.06411617 0.3797817 0.1239509 0.3694955 0.1239509 0.3916835 0.3286382 0.06661087 0.3183521 0.1264457 0.3081391 0.07510191 0.1837857 0.3797817 0.1239509 0.3694955 0.1752946 0.3592826 0.3286382 0.06661087 0.2790552 0.03157472 0.2947446 0.01588541 0.1837857 0.3797817 0.2188218 0.3301986 0.2345111 0.345888 0.328379 0.2088145 0.3779621 0.1737784 0.3488782 0.2173055 0.0616213 0.33737 0.02658516 0.287787 0.07011234 0.3168709 0.328379 0.2088145 0.3386653 0.2686493 0.3164772 0.2686493 0.0616213 0.33737 0.1214561 0.3270838 0.1214561 0.3492719 0.328379 0.328484 0.3386653 0.2686493 0.3488782 0.319993 0.4802488 0.5638562 0.4802488 0.5787935 0.4160816 0.5787935 0.4160816 0.5787935 0.3567988 0.5787935 0.3567988 0.5638562 0.3567988 0.5787935 0.3114257 0.5787935 0.3114257 0.5638562 0.8906748 0.8232837 0.8906748 0.7640009 0.9056121 0.7640009 0.5825356 0.6037414 0.5183684 0.6037414 0.5183684 0.5888041 0.5183684 0.6037414 0.4590856 0.6037414 0.4590856 0.5888041 0.4590856 0.6037414 0.4137125 0.6037414 0.4137125 0.5888041 0.8906747 0.9068595 0.8906747 0.8475767 0.9056121 0.8475767 0.591299 0.5139286 0.591299 0.4497614 0.6062363 0.4497614 0.591299 0.4497614 0.591299 0.3904786 0.6062363 0.3904786 0.591299 0.3904786 0.591299 0.3451055 0.6062363 0.3451055 0.9106018 0.4790014 0.8956645 0.4790014 0.8956645 0.4197186 0.384199 0.591299 0.384199 0.6062363 0.3200318 0.6062363 0.3200318 0.6062363 0.2607491 0.6062363 0.2607491 0.591299 0.121966 0.3056129 0.121966 0.2975136 0.1818007 0.2856116 0.2607491 0.6062363 0.2153759 0.6062363 0.2153759 0.591299 0.8345103 0.9193335 0.8195731 0.9193335 0.8195731 0.8600507 0.1347191 0.72236 0.1108244 0.72236 0.1108244 0.6659969 0.2843627 0.06402128 0.2768799 0.06712079 0.2429862 0.01639533 0.2581673 0.06526863 0.2506844 0.06836813 0.2167907 0.01764267 0.005678594 0.2574452 0.0114057 0.2517181 0.06213116 0.2856116 0.2843627 0.1898898 0.2768799 0.1867904 0.2887818 0.1269556 0.2581673 0.1911371 0.2506844 0.1880376 0.2625863 0.1282029 0.2444903 0.1294503 0.2363909 0.1294503 0.224489 0.06961554 0.1849002 0.2930945 0.1818007 0.2856116 0.2325262 0.2517179 0.1963225 0.2457377 0.1905954 0.2400106 0.224489 0.189285 0.05903166 0.2930945 0.06213116 0.2856116 0.121966 0.2975136 0.2968811 0.1269555 0.2887818 0.1269556 0.2768799 0.06712079 0.2706857 0.1282029 0.2625863 0.1282029 0.2506844 0.06836813 0.2319719 0.06651604 0.224489 0.06961554 0.1905954 0.01889002 0.2487133 0.2432429 0.2429862 0.2375158 0.2768799 0.1867904 0.2225179 0.2444903 0.2167907 0.2387632 0.2506844 0.1880376 0.2319719 0.1923846 0.224489 0.189285 0.2363909 0.1294503 0.1214561 0.3492719 0.1214561 0.3270838 0.1727998 0.3168709 0.2382533 0.8157994 0.2143586 0.8157994 0.2143586 0.7726609 0.8357577 0.5999992 0.811863 0.5999992 0.811863 0.5568608 0.2382533 0.7726609 0.2143586 0.7726609 0.2143586 0.7162978 0.8357577 0.5568608 0.811863 0.5568608 0.811863 0.5004976 0.3617458 0.820789 0.3378511 0.820789 0.3378511 0.759782 0.8008306 0.5638247 0.7769358 0.5638247 0.7769358 0.5028176 0.3617458 0.759782 0.3378511 0.759782 0.3378511 0.7034189 0.8008306 0.5028176 0.7769358 0.5028176 0.7769358 0.4464545 0.8008305 0.6748432 0.7769358 0.6748432 0.7769358 0.6317047 0.1995838 0.8182942 0.1756891 0.8182942 0.1756891 0.7751557 0.8008306 0.6317047 0.7769358 0.6317047 0.7769358 0.5753416 0.8182942 0.2619538 0.7943995 0.2619538 0.7943995 0.2009468 0.1995839 0.7751557 0.1756891 0.7751557 0.1756892 0.7187926 0.1347191 0.783367 0.1108244 0.783367 0.1108244 0.72236 0.8182942 0.2009468 0.7943995 0.2009468 0.7943995 0.1445837 0.328379 0.328484 0.3488782 0.319993 0.3779621 0.3635202 0.3286382 0.1862804 0.2947446 0.2370059 0.2790552 0.2213165 0.1812908 0.33737 0.1727998 0.3168709 0.216327 0.287787 0.06411617 0.3797817 0.01339066 0.345888 0.02908003 0.3301986 0.3286382 0.1862804 0.3081391 0.1777894 0.3183521 0.1264457 0.06411617 0.3797817 0.07260715 0.3592826 0.1239509 0.3694955 0.3286382 0.06661087 0.3405401 0.1264457 0.3183521 0.1264457 0.1837857 0.3797817 0.1239509 0.3916835 0.1239509 0.3694955 0.3286382 0.06661087 0.3081391 0.07510191 0.2790552 0.03157472 0.1837857 0.3797817 0.1752946 0.3592826 0.2188218 0.3301986 0.328379 0.2088145 0.3622727 0.158089 0.3779621 0.1737784 0.0616213 0.33737 0.01089584 0.3034763 0.02658516 0.287787 0.328379 0.2088145 0.3488782 0.2173055 0.3386653 0.2686493 0.0616213 0.33737 0.07011234 0.3168709 0.1214561 0.3270838 0.328379 0.328484 0.3164772 0.2686493 0.3386653 0.2686493</float_array>
          <technique_common>
            <accessor source="#hele_tile_c-mesh-map-1-array" count="384" stride="2">
              <param name="S" type="float"/>
              <param name="T" type="float"/>
            </accessor>
          </technique_common>
        </source>
        <vertices id="hele_tile_c-mesh-vertices">
          <input semantic="POSITION" source="#hele_tile_c-mesh-positions"/>
        </vertices>
        <triangles material="hele_tile_c-material" count="128">
          <input semantic="VERTEX" source="#hele_tile_c-mesh-vertices" offset="0"/>
          <input semantic="NORMAL" source="#hele_tile_c-mesh-normals" offset="1"/>
          <input semantic="TEXCOORD" source="#hele_tile_c-mesh-map-0" offset="2" set="0"/>
          <input semantic="TEXCOORD" source="#hele_tile_c-mesh-map-1" offset="2" set="1"/>
          <p>0 0 0 3 0 1 2 0 2 3 1 3 4 1 4 2 1 5 5 2 6 6 2 7 4 2 8 7 3 9 8 3 10 6 3 11 9 4 12 10 4 13 8 4 14 11 5 15 12 5 16 10 5 17 13 6 18 14 6 19 12 6 20 15 7 21 16 7 22 14 7 23 17 8 24 18 8 25 16 8 26 19 9 27 20 9 28 18 9 29 21 10 30 22 10 31 20 10 32 22 11 33 25 11 34 24 11 35 24 12 36 27 12 37 26 12 38 27 13 39 28 13 40 26 13 41 21 14 42 43 14 43 23 14 44 29 15 45 30 15 46 28 15 47 30 16 48 1 16 49 0 16 50 41 17 51 58 17 52 42 17 53 31 18 54 33 18 55 1 18 56 7 19 57 36 19 58 9 19 59 17 20 60 41 20 61 19 20 62 27 21 63 46 21 64 29 21 65 3 22 66 34 22 67 5 22 68 13 23 69 39 23 70 15 23 71 23 24 72 44 24 73 25 24 74 9 25 75 37 25 76 11 25 77 19 26 78 42 26 79 21 26 80 29 27 81 47 27 82 31 27 83 5 28 84 35 28 85 7 28 86 15 29 87 40 29 88 17 29 89 25 30 90 45 30 91 27 30 92 1 31 93 32 31 94 3 31 95 11 32 96 38 32 97 13 32 98 62 33 99 79 33 100 63 33 101 34 34 102 51 34 103 35 34 104 42 35 105 59 35 106 43 35 107 35 36 108 52 36 109 36 36 110 43 37 111 60 37 112 44 37 113 36 38 114 53 38 115 37 38 116 44 39 117 61 39 118 45 39 119 37 40 120 54 40 121 38 40 122 45 41 123 62 41 124 46 41 125 38 42 126 55 42 127 39 42 128 46 43 129 63 43 130 47 43 131 39 44 132 56 44 133 40 44 134 33 45 135 48 45 136 32 45 137 47 46 138 49 46 139 33 46 140 40 47 141 57 47 142 41 47 143 32 48 144 50 48 145 34 48 146 55 49 147 72 49 148 56 49 149 48 50 150 65 50 151 64 50 152 63 51 153 65 51 154 49 51 155 57 52 156 72 52 157 73 52 158 48 53 159 66 53 160 50 53 161 57 54 162 74 54 163 58 54 164 51 55 165 66 55 166 67 55 167 59 56 168 74 56 169 75 56 170 51 57 171 68 57 172 52 57 173 59 58 174 76 58 175 60 58 176 53 59 177 68 59 178 69 59 179 61 60 180 76 60 181 77 60 182 53 61 183 70 61 184 54 61 185 61 62 186 78 62 187 62 62 188 55 63 189 70 63 190 71 63 191 0 64 192 1 64 193 3 64 194 3 65 195 5 65 196 4 65 197 5 66 198 7 66 199 6 66 200 7 67 201 9 67 202 8 67 203 9 68 204 11 68 205 10 68 206 11 69 207 13 69 208 12 69 209 13 70 210 15 70 211 14 70 212 15 71 213 17 71 214 16 71 215 17 72 216 19 72 217 18 72 218 19 73 219 21 73 220 20 73 221 21 74 222 23 74 223 22 74 224 22 75 225 23 75 226 25 75 227 24 76 228 25 76 229 27 76 230 27 77 231 29 77 232 28 77 233 21 78 234 42 78 235 43 78 236 29 79 237 31 79 238 30 79 239 30 80 240 31 80 241 1 80 242 41 81 243 57 81 244 58 81 245 31 82 246 47 82 247 33 82 248 7 83 249 35 83 250 36 83 251 17 84 252 40 84 253 41 84 254 27 85 255 45 85 256 46 85 257 3 86 258 32 86 259 34 86 260 13 87 261 38 87 262 39 87 263 23 88 264 43 88 265 44 88 266 9 89 267 36 89 268 37 89 269 19 90 270 41 90 271 42 90 272 29 91 273 46 91 274 47 91 275 5 92 276 34 92 277 35 92 278 15 93 279 39 93 280 40 93 281 25 94 282 44 94 283 45 94 284 1 95 285 33 95 286 32 95 287 11 96 288 37 96 289 38 96 290 62 97 291 78 97 292 79 97 293 34 98 294 50 98 295 51 98 296 42 99 297 58 99 298 59 99 299 35 100 300 51 100 301 52 100 302 43 101 303 59 101 304 60 101 305 36 102 306 52 102 307 53 102 308 44 103 309 60 103 310 61 103 311 37 104 312 53 104 313 54 104 314 45 105 315 61 105 316 62 105 317 38 106 318 54 106 319 55 106 320 46 107 321 62 107 322 63 107 323 39 108 324 55 108 325 56 108 326 33 109 327 49 109 328 48 109 329 47 110 330 63 110 331 49 110 332 40 111 333 56 111 334 57 111 335 32 112 336 48 112 337 50 112 338 55 113 339 71 113 340 72 113 341 48 114 342 49 114 343 65 114 344 63 115 345 79 115 346 65 115 347 57 116 348 56 116 349 72 116 350 48 117 351 64 117 352 66 117 353 57 118 354 73 118 355 74 118 356 51 119 357 50 119 358 66 119 359 59 120 360 58 120 361 74 120 362 51 121 363 67 121 364 68 121 365 59 122 366 75 122 367 76 122 368 53 123 369 52 123 370 68 123 371 61 124 372 60 124 373 76 124 374 53 125 375 69 125 376 70 125 377 61 126 378 77 126 379 78 126 380 55 127 381 54 127 382 70 127 383</p>
        </triangles>
      </mesh>
    </geometry>
  </library_geometries>
  <library_visual_scenes>
    <visual_scene id="Scene" name="Scene">
      <node id="hele_tile_c" name="hele_tile_c" type="NODE">
        <matrix sid="transform">1 0 0 0 0 1 0 0 0 0 1 0 0 0 0 1</matrix>
        <instance_geometry url="#hele_tile_c-mesh" name="hele_tile_c">
          <bind_material>
            <technique_common>
              <instance_material symbol="hele_tile_c-material" target="#hele_tile_c-material">
                <bind_vertex_input semantic="UVMap" input_semantic="TEXCOORD" input_set="0"/>
                <bind_vertex_input semantic="ao_map" input_semantic="TEXCOORD" input_set="1"/>
              </instance_material>
            </technique_common>
          </bind_material>
        </instance_geometry>
      </node>
    </visual_scene>
  </library_visual_scenes>
  <scene>
    <instance_visual_scene url="#Scene"/>
  </scene>
</COLLADA>